{
.appVersion = "3260";
.formatVersion = 3;
DisplayStrings = (
",,'",
",\"",
",,,'",
",\"",
"\"„",
"\"",
"‚",
"'",
"„"
);
axes = (
{
name = Weight;
tag = wght;
}
);
classes = (
{
automatic = 1;

glyphs = (
{
glyphname = A;
kernLeft = A;
kernRight = A;
lastChange = "2020-08-11 15:55:37 +0000";
layers = (
{
anchors = (
{
name = bottom;
pos = (317,0);
},
{
name = ogonek;
pos = (551,0);
},
{
name = top;
pos = (317,700);
}
);
background = {
anchors = (
{
name = bottom;
pos = (317,0);
},
{
name = ogonek;
pos = (551,0);
},
{
name = top;
pos = (317,700);
}
);
shapes = (
{
closed = 1;
nodes = (
(154,0,l),
(192,154,l),
(442,154,l),
(480,0,l),
(616,0,l),
(432,700,l),
(202,700,l),
(18,0,l)
);
},
{
closed = 1;
nodes = (
(308,617,l),
(326,617,l),
(411,276,l),
(223,276,l)
);
}
);
};
layerId = "5117E3E8-E17C-4812-BAF5-9E7064564A59";
shapes = (
{
closed = 1;
nodes = (
(154,0,l),
(192,154,l),
(442,154,l),
(480,0,l),
(616,0,l),
(432,700,l),
(202,700,l),
(18,0,l)
);
},
{
closed = 1;
nodes = (
(308,617,l),
(326,617,l),
(411,276,l),
(223,276,l)
);
}
);
width = 634;
},
{
anchors = (
{
name = bottom;
pos = (314,0);
},
{
name = ogonek;
pos = (567,0);
},
{
name = top;
pos = (314,700);
}
);
background = {
anchors = (
{
name = bottom;
pos = (314,0);
},
{
name = ogonek;
pos = (567,0);
},
{
name = top;
pos = (314,700);
}
);
shapes = (
{
closed = 1;
nodes = (
(95,0,l),
(155,186,l),
(473,186,l),
(533,0,l),
(600,0,l),
(371,700,l),
(257,700,l),
(28,0,l)
);
},
{
closed = 1;
nodes = (
(308,662,l),
(320,662,l),
(455,244,l),
(173,244,l)
);
}
);
};
layerId = "CEFBB1E5-951F-4065-926E-8B9137F837F5";
shapes = (
{
closed = 1;
nodes = (
(95,0,l),
(155,186,l),
(473,186,l),
(533,0,l),
(600,0,l),
(371,700,l),
(257,700,l),
(28,0,l)
);
},
{
closed = 1;
nodes = (
(308,662,l),
(320,662,l),
(455,244,l),
(173,244,l)
);
}
);
width = 628;
}
);
note = A;
unicode = 65;
},
{
glyphname = B;
kernLeft = Serif;
kernRight = B;
lastChange = "2020-08-10 18:51:13 +0000";
layers = (
{
anchors = (
{
name = stroke;
pos = (138,350);
}
);
background = {
anchors = (
{
name = stroke;
pos = (138,350);
}
);
shapes = (
{
closed = 1;
nodes = (
(410,0,ls),
(535,0,o),
(622,68,o),
(622,185,cs),
(622,195,ls),
(622,295,o),
(555,334,o),
(511,346,c),
(511,364,l),
(554,377,o),
(618,416,o),
(618,513,cs),
(618,523,ls),
(618,632,o),
(534,700,o),
(406,700,cs),
(46,700,l),
(46,584,l),
(138,584,l),
(138,116,l),
(46,116,l),
(46,0,l)
);
},
{
closed = 1;
nodes = (
(270,292,l),
(394,292,ls),
(452,292,o),
(490,263,o),
(490,211,cs),
(490,201,ls),
(490,149,o),
(451,120,o),
(394,120,cs),
(270,120,l)
);
},
{
closed = 1;
nodes = (
(270,580,l),
(392,580,ls),
(448,580,o),
(486,551,o),
(486,501,cs),
(486,491,ls),
(486,441,o),
(447,412,o),
(392,412,cs),
(270,412,l)
);
}
);
};
layerId = "5117E3E8-E17C-4812-BAF5-9E7064564A59";
shapes = (
{
closed = 1;
nodes = (
(410,0,ls),
(535,0,o),
(622,68,o),
(622,185,cs),
(622,195,ls),
(622,295,o),
(555,334,o),
(511,346,c),
(511,364,l),
(554,377,o),
(618,416,o),
(618,513,cs),
(618,523,ls),
(618,632,o),
(534,700,o),
(406,700,cs),
(46,700,l),
(46,584,l),
(138,584,l),
(138,116,l),
(46,116,l),
(46,0,l)
);
},
{
closed = 1;
nodes = (
(270,292,l),
(394,292,ls),
(452,292,o),
(490,263,o),
(490,211,cs),
(490,201,ls),
(490,149,o),
(451,120,o),
(394,120,cs),
(270,120,l)
);
},
{
closed = 1;
nodes = (
(270,580,l),
(392,580,ls),
(448,580,o),
(486,551,o),
(486,501,cs),
(486,491,ls),
(486,441,o),
(447,412,o),
(392,412,cs),
(270,412,l)
);
}
);
width = 664;
},
{
anchors = (
{
name = stroke;
pos = (148,330);
}
);
background = {
anchors = (
{
name = stroke;
pos = (148,330);
}
);
shapes = (
{
closed = 1;
nodes = (
(392,0,ls),
(511,0,o),
(602,68,o),
(602,182,cs),
(602,192,ls),
(602,290,o),
(536,335,o),
(484,348,c),
(484,360,l),
(535,375,o),
(602,419,o),
(602,517,cs),
(602,525,ls),
(602,629,o),
(515,700,o),
(395,700,cs),
(48,700,l),
(48,642,l),
(148,642,l),
(148,58,l),
(48,58,l),
(48,0,l)
);
},
{
closed = 1;
nodes = (
(212,324,l),
(386,324,ls),
(486,324,o),
(538,274,o),
(538,195,cs),
(538,187,ls),
(538,108,o),
(486,58,o),
(386,58,cs),
(212,58,l)
);
},
{
closed = 1;
nodes = (
(212,642,l),
(390,642,ls),
(482,642,o),
(538,592,o),
(538,517,cs),
(538,507,ls),
(538,432,o),
(482,382,o),
(390,382,cs),
(212,382,l)
);
}
);
};
layerId = "CEFBB1E5-951F-4065-926E-8B9137F837F5";
shapes = (
{
closed = 1;
nodes = (
(392,0,ls),
(511,0,o),
(602,68,o),
(602,182,cs),
(602,192,ls),
(602,290,o),
(536,335,o),
(484,348,c),
(484,360,l),
(535,375,o),
(602,419,o),
(602,517,cs),
(602,525,ls),
(602,629,o),
(515,700,o),
(395,700,cs),
(48,700,l),
(48,642,l),
(148,642,l),
(148,58,l),
(48,58,l),
(48,0,l)
);
},
{
closed = 1;
nodes = (
(212,324,l),
(386,324,ls),
(486,324,o),
(538,274,o),
(538,195,cs),
(538,187,ls),
(538,108,o),
(486,58,o),
(386,58,cs),
(212,58,l)
);
},
{
closed = 1;
nodes = (
(212,642,l),
(390,642,ls),
(482,642,o),
(538,592,o),
(538,517,cs),
(538,507,ls),
(538,432,o),
(482,382,o),
(390,382,cs),
(212,382,l)
);
}
);
width = 660;
}
);
metricLeft = I.ss05;
note = B.alt;
unicode = 66;
},
{
glyphname = C;
kernLeft = O;
kernRight = C;
lastChange = "2020-08-10 18:52:34 +0000";
layers = (
{
anchors = (
{
name = bottom;
pos = (332,0);
},
{
name = top;
pos = (332,700);
}
);
background = {
anchors = (
{
name = bottom;
pos = (332,0);
},
{
name = top;
pos = (332,700);
}
);
shapes = (
{
closed = 1;
nodes = (
(504,-14,o),
(602,86,o),
(602,250,cs),
(602,264,l),
(472,264,l),
(472,246,ls),
(472,164,o),
(426,104,o),
(332,104,cs),
(238,104,o),
(182,166,o),
(182,264,cs),
(182,436,ls),
(182,534,o),
(238,596,o),
(332,596,cs),
(426,596,o),
(472,536,o),
(472,454,cs),
(472,444,l),
(602,444,l),
(602,450,ls),
(602,614,o),
(504,714,o),
(332,714,cs),
(158,714,o),
(50,614,o),
(50,434,cs),
(50,266,ls),
(50,86,o),
(158,-14,o),
(332,-14,cs)
);
}
);
};
layerId = "5117E3E8-E17C-4812-BAF5-9E7064564A59";
shapes = (
{
closed = 1;
nodes = (
(504,-14,o),
(602,86,o),
(602,250,cs),
(602,264,l),
(472,264,l),
(472,246,ls),
(472,164,o),
(426,104,o),
(332,104,cs),
(238,104,o),
(182,166,o),
(182,264,cs),
(182,436,ls),
(182,534,o),
(238,596,o),
(332,596,cs),
(426,596,o),
(472,536,o),
(472,454,cs),
(472,444,l),
(602,444,l),
(602,450,ls),
(602,614,o),
(504,714,o),
(332,714,cs),
(158,714,o),
(50,614,o),
(50,434,cs),
(50,266,ls),
(50,86,o),
(158,-14,o),
(332,-14,cs)
);
}
);
width = 644;
},
{
anchors = (
{
name = bottom;
pos = (331,0);
},
{
name = top;
pos = (334,700);
}
);
background = {
anchors = (
{
name = bottom;
pos = (331,0);
},
{
name = top;
pos = (334,700);
}
);
shapes = (
{
closed = 1;
nodes = (
(496,-14,o),
(585,84,o),
(585,241,cs),
(585,254,l),
(521,254,l),
(521,239,ls),
(521,124,o),
(462,44,o),
(334,44,cs),
(204,44,o),
(128,126,o),
(128,269,cs),
(128,431,ls),
(128,574,o),
(204,656,o),
(334,656,cs),
(462,656,o),
(521,576,o),
(521,461,cs),
(521,454,l),
(585,454,l),
(585,459,ls),
(585,616,o),
(496,714,o),
(334,714,cs),
(170,714,o),
(64,616,o),
(64,429,cs),
(64,271,ls),
(64,84,o),
(170,-14,o),
(334,-14,cs)
);
}
);
};
layerId = "CEFBB1E5-951F-4065-926E-8B9137F837F5";
shapes = (
{
closed = 1;
nodes = (
(496,-14,o),
(585,84,o),
(585,241,cs),
(585,254,l),
(521,254,l),
(521,239,ls),
(521,124,o),
(462,44,o),
(334,44,cs),
(204,44,o),
(128,126,o),
(128,269,cs),
(128,431,ls),
(128,574,o),
(204,656,o),
(334,656,cs),
(462,656,o),
(521,576,o),
(521,461,cs),
(521,454,l),
(585,454,l),
(585,459,ls),
(585,616,o),
(496,714,o),
(334,714,cs),
(170,714,o),
(64,616,o),
(64,429,cs),
(64,271,ls),
(64,84,o),
(170,-14,o),
(334,-14,cs)
);
}
);
width = 641;
}
);
metricLeft = O;
metricRight = "=O-8";
note = C;
unicode = 67;
},
{
glyphname = D;
kernLeft = Serif;
kernRight = O;
lastChange = "2020-08-10 18:12:01 +0000";
layers = (
{
anchors = (
{
name = bottom;
pos = (320,0);
},
{
name = stroke;
pos = (138,496);
},
{
name = top;
pos = (320,700);
}
);
background = {
anchors = (
{
name = bottom;
pos = (320,0);
},
{
name = stroke;
pos = (138,496);
},
{
name = top;
pos = (320,700);
}
);
shapes = (
{
closed = 1;
nodes = (
(334,0,ls),
(522,0,o),
(622,96,o),
(622,284,cs),
(622,416,ls),
(622,604,o),
(522,700,o),
(334,700,cs),
(46,700,l),
(46,584,l),
(138,584,l),
(138,116,l),
(46,116,l),
(46,0,l)
);
},
{
closed = 1;
nodes = (
(270,580,l),
(336,580,ls),
(442,580,o),
(490,522,o),
(490,420,cs),
(490,280,ls),
(490,178,o),
(442,120,o),
(336,120,cs),
(270,120,l)
);
}
);
};
layerId = "5117E3E8-E17C-4812-BAF5-9E7064564A59";
shapes = (
{
closed = 1;
nodes = (
(334,0,ls),
(522,0,o),
(622,96,o),
(622,284,cs),
(622,416,ls),
(622,604,o),
(522,700,o),
(334,700,cs),
(46,700,l),
(46,584,l),
(138,584,l),
(138,116,l),
(46,116,l),
(46,0,l)
);
},
{
closed = 1;
nodes = (
(270,580,l),
(336,580,ls),
(442,580,o),
(490,522,o),
(490,420,cs),
(490,280,ls),
(490,178,o),
(442,120,o),
(336,120,cs),
(270,120,l)
);
}
);
width = 666;
},
{
anchors = (
{
name = bottom;
pos = (317,0);
},
{
name = stroke;
pos = (148,486);
},
{
name = top;
pos = (317,700);
}
);
background = {
anchors = (
{
name = bottom;
pos = (317,0);
},
{
name = stroke;
pos = (148,486);
},
{
name = top;
pos = (317,700);
}
);
shapes = (
{
closed = 1;
nodes = (
(314,0,ls),
(496,0,o),
(604,89,o),
(604,285,cs),
(604,414,ls),
(604,610,o),
(496,700,o),
(314,700,cs),
(48,700,l),
(48,642,l),
(148,642,l),
(148,58,l),
(48,58,l),
(48,0,l)
);
},
{
closed = 1;
nodes = (
(212,641,l),
(314,641,ls),
(460,641,o),
(540,575,o),
(540,417,cs),
(540,282,ls),
(540,124,o),
(460,58,o),
(314,58,cs),
(212,58,l)
);
}
);
};
layerId = "CEFBB1E5-951F-4065-926E-8B9137F837F5";
shapes = (
{
closed = 1;
nodes = (
(314,0,ls),
(496,0,o),
(604,89,o),
(604,285,cs),
(604,414,ls),
(604,610,o),
(496,700,o),
(314,700,cs),
(48,700,l),
(48,642,l),
(148,642,l),
(148,58,l),
(48,58,l),
(48,0,l)
);
},
{
closed = 1;
nodes = (
(212,641,l),
(314,641,ls),
(460,641,o),
(540,575,o),
(540,417,cs),
(540,282,ls),
(540,124,o),
(460,58,o),
(314,58,cs),
(212,58,l)
);
}
);
width = 662;
}
);
metricLeft = I.ss05;
metricRight = "=O-6";
note = D.alt;
unicode = 68;
},
{
glyphname = E;
kernLeft = H;
kernRight = E;
lastChange = "2020-08-10 18:53:30 +0000";
layers = (
{
anchors = (
{
name = bottom;
pos = (294,0);
},
{
name = ogonek;
pos = (426,0);
},
{
name = top;
pos = (296,700);
}
);
background = {
anchors = (
{
name = bottom;
pos = (294,0);
},
{
name = ogonek;
pos = (426,0);
},
{
name = top;
pos = (296,700);
}
);
shapes = (
{
closed = 1;
nodes = (
(522,0,l),
(522,120,l),
(198,120,l),
(198,293,l),
(488,293,l),
(488,413,l),
(198,413,l),
(198,580,l),
(516,580,l),
(516,700,l),
(66,700,l),
(66,0,l)
);
}
);
};
layerId = "5117E3E8-E17C-4812-BAF5-9E7064564A59";
shapes = (
{
closed = 1;
nodes = (
(522,0,l),
(522,120,l),
(198,120,l),
(198,293,l),
(488,293,l),
(488,413,l),
(198,413,l),
(198,580,l),
(516,580,l),
(516,700,l),
(66,700,l),
(66,0,l)
);
}
);
width = 554;
},
{
anchors = (
{
name = bottom;
pos = (299,0);
},
{
name = ogonek;
pos = (439,0);
},
{
name = top;
pos = (304,700);
}
);
background = {
anchors = (
{
name = bottom;
pos = (299,0);
},
{
name = ogonek;
pos = (439,0);
},
{
name = top;
pos = (304,700);
}
);
shapes = (
{
closed = 1;
nodes = (
(513,0,l),
(513,58,l),
(150,58,l),
(150,322,l),
(481,322,l),
(481,380,l),
(150,380,l),
(150,642,l),
(509,642,l),
(509,700,l),
(86,700,l),
(86,0,l)
);
}
);
};
layerId = "CEFBB1E5-951F-4065-926E-8B9137F837F5";
shapes = (
{
closed = 1;
nodes = (
(513,0,l),
(513,58,l),
(150,58,l),
(150,322,l),
(481,322,l),
(481,380,l),
(150,380,l),
(150,642,l),
(509,642,l),
(509,700,l),
(86,700,l),
(86,0,l)
);
}
);
width = 567;
}
);
metricLeft = I;
note = E;
unicode = 69;
},
{
glyphname = F;
kernLeft = H;
kernRight = F;
lastChange = "2020-08-10 18:54:47 +0000";
layers = (
{
background = {
shapes = (
{
closed = 1;
nodes = (
(198,0,l),
(198,291,l),
(482,291,l),
(482,411,l),
(198,411,l),
(198,580,l),
(506,580,l),
(506,700,l),
(66,700,l),
(66,0,l)
);
}
);
};
layerId = "5117E3E8-E17C-4812-BAF5-9E7064564A59";
shapes = (
{
closed = 1;
nodes = (
(198,0,l),
(198,291,l),
(482,291,l),
(482,411,l),
(198,411,l),
(198,580,l),
(506,580,l),
(506,700,l),
(66,700,l),
(66,0,l)
);
}
);
width = 534;
},
{
background = {
shapes = (
{
closed = 1;
nodes = (
(150,0,l),
(150,322,l),
(473,322,l),
(473,380,l),
(150,380,l),
(150,642,l),
(502,642,l),
(502,700,l),
(86,700,l),
(86,0,l)
);
}
);
};
layerId = "CEFBB1E5-951F-4065-926E-8B9137F837F5";
shapes = (
{
closed = 1;
nodes = (
(150,0,l),
(150,322,l),
(473,322,l),
(473,380,l),
(150,380,l),
(150,642,l),
(502,642,l),
(502,700,l),
(86,700,l),
(86,0,l)
);
}
);
width = 542;
}
);
metricLeft = I;
note = F;
unicode = 70;
},
{
glyphname = G;
kernLeft = O;
kernRight = G;
lastChange = "2020-08-10 20:17:15 +0000";
layers = (
{
anchors = (
{
name = bottom;
pos = (336,0);
},
{
name = top;
pos = (335,700);
}
);
background = {
anchors = (
{
name = bottom;
pos = (336,0);
},
{
name = top;
pos = (335,700);
}
);
shapes = (
{
closed = 1;
nodes = (
(416,-14,o),
(448,33,o),
(462,67,c),
(480,67,l),
(480,0,l),
(602,0,l),
(602,358,l),
(306,358,l),
(306,246,l),
(472,246,l),
(472,236,ls),
(472,158,o),
(430,102,o),
(334,102,cs),
(238,102,o),
(182,166,o),
(182,264,cs),
(182,436,ls),
(182,534,o),
(238,596,o),
(332,596,cs),
(426,596,o),
(472,538,o),
(472,464,cs),
(472,456,l),
(602,456,l),
(602,460,ls),
(602,616,o),
(504,714,o),
(332,714,cs),
(158,714,o),
(50,614,o),
(50,434,cs),
(50,266,ls),
(50,86,o),
(164,-14,o),
(308,-14,cs)
);
}
);
};
layerId = "5117E3E8-E17C-4812-BAF5-9E7064564A59";
shapes = (
{
closed = 1;
nodes = (
(416,-14,o),
(448,33,o),
(462,67,c),
(480,67,l),
(480,0,l),
(602,0,l),
(602,358,l),
(306,358,l),
(306,246,l),
(472,246,l),
(472,236,ls),
(472,158,o),
(430,102,o),
(334,102,cs),
(238,102,o),
(182,166,o),
(182,264,cs),
(182,436,ls),
(182,534,o),
(238,596,o),
(332,596,cs),
(426,596,o),
(472,538,o),
(472,464,cs),
(472,456,l),
(602,456,l),
(602,460,ls),
(602,616,o),
(504,714,o),
(332,714,cs),
(158,714,o),
(50,614,o),
(50,434,cs),
(50,266,ls),
(50,86,o),
(164,-14,o),
(308,-14,cs)
);
}
);
width = 662;
},
{
anchors = (
{
name = bottom;
pos = (337,0);
},
{
name = top;
pos = (335,700);
}
);
background = {
anchors = (
{
name = bottom;
pos = (337,0);
},
{
name = top;
pos = (335,700);
}
);
shapes = (
{
closed = 1;
nodes = (
(438,-14,o),
(487,30,o),
(511,79,c),
(523,79,l),
(523,0,l),
(581,0,l),
(581,323,l),
(288,323,l),
(288,267,l),
(519,267,l),
(519,247,ls),
(519,123,o),
(460,44,o),
(334,44,cs),
(204,44,o),
(128,126,o),
(128,269,cs),
(128,431,ls),
(128,574,o),
(204,656,o),
(334,656,cs),
(462,656,o),
(517,576,o),
(517,467,cs),
(517,460,l),
(581,460,l),
(581,465,ls),
(581,616,o),
(496,714,o),
(334,714,cs),
(170,714,o),
(64,616,o),
(64,429,cs),
(64,271,ls),
(64,84,o),
(170,-14,o),
(330,-14,cs)
);
}
);
};
layerId = "CEFBB1E5-951F-4065-926E-8B9137F837F5";
shapes = (
{
closed = 1;
nodes = (
(438,-14,o),
(487,30,o),
(511,79,c),
(523,79,l),
(523,0,l),
(581,0,l),
(581,323,l),
(288,323,l),
(288,267,l),
(519,267,l),
(519,247,ls),
(519,123,o),
(460,44,o),
(334,44,cs),
(204,44,o),
(128,126,o),
(128,269,cs),
(128,431,ls),
(128,574,o),
(204,656,o),
(334,656,cs),
(462,656,o),
(517,576,o),
(517,467,cs),
(517,460,l),
(581,460,l),
(581,465,ls),
(581,616,o),
(496,714,o),
(334,714,cs),
(170,714,o),
(64,616,o),
(64,429,cs),
(64,271,ls),
(64,84,o),
(170,-14,o),
(330,-14,cs)
);
}
);
width = 659;
}
);
metricLeft = O;
note = G;
unicode = 71;
},
{
glyphname = H;
kernLeft = H;
kernRight = H;
lastChange = "2020-08-10 20:16:15 +0000";
layers = (
{
anchors = (
{
name = bottom;
pos = (328,0);
},
{
name = stroke;
pos = (328,496);
},
{
name = top;
pos = (328,700);
}
);
background = {
anchors = (
{
name = bottom;
pos = (328,0);
},
{
name = stroke;
pos = (328,496);
},
{
name = top;
pos = (328,700);
}
);
shapes = (
{
closed = 1;
nodes = (
(198,0,l),
(198,291,l),
(458,291,l),
(458,0,l),
(590,0,l),
(590,700,l),
(458,700,l),
(458,411,l),
(198,411,l),
(198,700,l),
(66,700,l),
(66,0,l)
);
}
);
};
layerId = "5117E3E8-E17C-4812-BAF5-9E7064564A59";
shapes = (
{
closed = 1;
nodes = (
(198,0,l),
(198,291,l),
(458,291,l),
(458,0,l),
(590,0,l),
(590,700,l),
(458,700,l),
(458,411,l),
(198,411,l),
(198,700,l),
(66,700,l),
(66,0,l)
);
}
);
width = 656;
},
{
anchors = (
{
name = bottom;
pos = (328,0);
},
{
name = stroke;
pos = (328,486);
},
{
name = top;
pos = (328,700);
}
);
background = {
anchors = (
{
name = bottom;
pos = (328,0);
},
{
name = stroke;
pos = (328,486);
},
{
name = top;
pos = (328,700);
}
);
shapes = (
{
closed = 1;
nodes = (
(150,0,l),
(150,322,l),
(506,322,l),
(506,0,l),
(570,0,l),
(570,700,l),
(506,700,l),
(506,380,l),
(150,380,l),
(150,700,l),
(86,700,l),
(86,0,l)
);
}
);
};
layerId = "CEFBB1E5-951F-4065-926E-8B9137F837F5";
shapes = (
{
closed = 1;
nodes = (
(150,0,l),
(150,322,l),
(506,322,l),
(506,0,l),
(570,0,l),
(570,700,l),
(506,700,l),
(506,380,l),
(150,380,l),
(150,700,l),
(86,700,l),
(86,0,l)
);
}
);
width = 656;
}
);
metricLeft = I;
metricRight = I;
note = H;
unicode = 72;
},
{
glyphname = I;
kernLeft = H;
kernRight = H;
lastChange = "2020-08-10 18:12:01 +0000";
layers = (
{
anchors = (
{
name = bottom;
pos = (132,0);
},
{
name = ogonek;
pos = (132,0);
},
{
name = top;
pos = (132,700);
}
);
background = {
anchors = (
{
name = bottom;
pos = (132,0);
},
{
name = ogonek;
pos = (132,0);
},
{
name = top;
pos = (132,700);
}
);
shapes = (
{
closed = 1;
nodes = (
(198,0,l),
(198,700,l),
(66,700,l),
(66,0,l)
);
}
);
};
layerId = "5117E3E8-E17C-4812-BAF5-9E7064564A59";
shapes = (
{
closed = 1;
nodes = (
(198,0,l),
(198,700,l),
(66,700,l),
(66,0,l)
);
}
);
width = 264;
},
{
anchors = (
{
name = bottom;
pos = (118,0);
},
{
name = ogonek;
pos = (118,0);
},
{
name = top;
pos = (118,700);
}
);
background = {
anchors = (
{
name = bottom;
pos = (118,0);
},
{
name = ogonek;
pos = (118,0);
},
{
name = top;
pos = (118,700);
}
);
shapes = (
{
closed = 1;
nodes = (
(150,0,l),
(150,700,l),
(86,700,l),
(86,0,l)
);
}
);
};
layerId = "CEFBB1E5-951F-4065-926E-8B9137F837F5";
shapes = (
{
closed = 1;
nodes = (
(150,0,l),
(150,700,l),
(86,700,l),
(86,0,l)
);
}
);
width = 236;
}
);
note = I;
unicode = 73;
},
{
glyphname = J;
kernLeft = J;
kernRight = JSerif;
lastChange = "2020-08-11 15:48:20 +0000";
layers = (
{
anchors = (
{
name = top;
pos = (402,700);
}
);
background = {
anchors = (
{
name = top;
pos = (402,700);
}
);
shapes = (
{
closed = 1;
nodes = (
(404,-14,o),
(488,65,o),
(488,210,cs),
(488,580,l),
(568,580,l),
(568,700,l),
(236,700,l),
(236,580,l),
(356,580,l),
(356,210,ls),
(356,146,o),
(322,110,o),
(263,110,cs),
(200,110,o),
(164,147,o),
(164,210,cs),
(164,276,l),
(32,276,l),
(32,210,ls),
(32,69,o),
(123,-14,o),
(267,-14,cs)
);
}
);
};
layerId = "5117E3E8-E17C-4812-BAF5-9E7064564A59";
shapes = (
{
closed = 1;
nodes = (
(404,-14,o),
(488,65,o),
(488,210,cs),
(488,580,l),
(568,580,l),
(568,700,l),
(236,700,l),
(236,580,l),
(356,580,l),
(356,210,ls),
(356,146,o),
(322,110,o),
(263,110,cs),
(200,110,o),
(164,147,o),
(164,210,cs),
(164,276,l),
(32,276,l),
(32,210,ls),
(32,69,o),
(123,-14,o),
(267,-14,cs)
);
}
);
width = 610;
},
{
anchors = (
{
name = top;
pos = (411,700);
}
);
background = {
anchors = (
{
name = top;
pos = (411,700);
}
);
shapes = (
{
closed = 1;
nodes = (
(399,-14,o),
(468,64,o),
(468,210,cs),
(468,642,l),
(542,642,l),
(542,700,l),
(280,700,l),
(280,642,l),
(404,642,l),
(404,210,ls),
(404,112,o),
(368,44,o),
(262,44,cs),
(158,44,o),
(108,112,o),
(108,210,cs),
(108,259,l),
(44,259,l),
(44,210,ls),
(44,64,o),
(127,-14,o),
(261,-14,cs)
);
}
);
};
layerId = "CEFBB1E5-951F-4065-926E-8B9137F837F5";
shapes = (
{
closed = 1;
nodes = (
(399,-14,o),
(468,64,o),
(468,210,cs),
(468,642,l),
(542,642,l),
(542,700,l),
(280,700,l),
(280,642,l),
(404,642,l),
(404,210,ls),
(404,112,o),
(368,44,o),
(262,44,cs),
(158,44,o),
(108,112,o),
(108,210,cs),
(108,259,l),
(44,259,l),
(44,210,ls),
(44,64,o),
(127,-14,o),
(261,-14,cs)
);
}
);
width = 588;
}
);
note = J;
unicode = 74;
},
{
glyphname = K;
kernLeft = H;
kernRight = K;
lastChange = "2020-08-10 20:19:42 +0000";
layers = (
{
anchors = (
{
name = bottom;
pos = (311,0);
}
);
background = {
anchors = (
{
name = bottom;
pos = (311,0);
}
);
shapes = (
{
closed = 1;
nodes = (
(198,0,l),
(198,284,l),
(216,284,l),
(448,0,l),
(622,0,l),
(320,355,l),
(612,700,l),
(443,700,l),
(216,422,l),
(198,422,l),
(198,700,l),
(66,700,l),
(66,0,l)
);
}
);
};
layerId = "5117E3E8-E17C-4812-BAF5-9E7064564A59";
shapes = (
{
closed = 1;
nodes = (
(198,0,l),
(198,284,l),
(216,284,l),
(448,0,l),
(622,0,l),
(320,355,l),
(612,700,l),
(443,700,l),
(216,422,l),
(198,422,l),
(198,700,l),
(66,700,l),
(66,0,l)
);
}
);
width = 626;
},
{
anchors = (
{
name = bottom;
pos = (312,0);
}
);
background = {
anchors = (
{
name = bottom;
pos = (312,0);
}
);
shapes = (
{
closed = 1;
nodes = (
(150,0,l),
(150,322,l),
(162,322,l),
(497,0,l),
(588,0,l),
(214,354,l),
(576,700,l),
(486,700,l),
(162,384,l),
(150,384,l),
(150,700,l),
(86,700,l),
(86,0,l)
);
}
);
};
layerId = "CEFBB1E5-951F-4065-926E-8B9137F837F5";
shapes = (
{
closed = 1;
nodes = (
(150,0,l),
(150,322,l),
(162,322,l),
(497,0,l),
(588,0,l),
(214,354,l),
(576,700,l),
(486,700,l),
(162,384,l),
(150,384,l),
(150,700,l),
(86,700,l),
(86,0,l)
);
}
);
width = 604;
}
);
metricLeft = I;
note = K;
unicode = 75;
},
{
glyphname = L;
kernLeft = H;
kernRight = L;
lastChange = "2020-08-10 20:21:05 +0000";
layers = (
{
anchors = (
{
name = bottom;
pos = (292,0);
},
{
name = caron;
pos = (198,700);
},
{
name = sidecaron;
pos = (198,700);
},
{
name = top;
pos = (132,700);
}
);
background = {
anchors = (
{
name = bottom;
pos = (292,0);
},
{
name = caron;
pos = (198,700);
},
{
name = sidecaron;
pos = (198,700);
},
{
name = top;
pos = (132,700);
}
);
shapes = (
{
closed = 1;
nodes = (
(518,0,l),
(518,120,l),
(198,120,l),
(198,700,l),
(66,700,l),
(66,0,l)
);
}
);
};
layerId = "5117E3E8-E17C-4812-BAF5-9E7064564A59";
shapes = (
{
closed = 1;
nodes = (
(518,0,l),
(518,120,l),
(198,120,l),
(198,700,l),
(66,700,l),
(66,0,l)
);
}
);
width = 542;
},
{
anchors = (
{
name = bottom;
pos = (302,0);
},
{
name = caron;
pos = (149,700);
},
{
name = sidecaron;
pos = (150,700);
},
{
name = top;
pos = (117,700);
}
);
background = {
anchors = (
{
name = bottom;
pos = (302,0);
},
{
name = caron;
pos = (149,700);
},
{
name = sidecaron;
pos = (150,700);
},
{
name = top;
pos = (117,700);
}
);
shapes = (
{
closed = 1;
nodes = (
(518,0,l),
(518,58,l),
(150,58,l),
(150,700,l),
(86,700,l),
(86,0,l)
);
}
);
};
layerId = "CEFBB1E5-951F-4065-926E-8B9137F837F5";
shapes = (
{
closed = 1;
nodes = (
(518,0,l),
(518,58,l),
(150,58,l),
(150,700,l),
(86,700,l),
(86,0,l)
);
}
);
width = 547;
}
);
metricLeft = I;
note = L;
unicode = 76;
},
{
glyphname = M;
kernLeft = H;
kernRight = H;
lastChange = "2020-08-10 18:12:01 +0000";
layers = (
{
anchors = (
{
name = bottom;
pos = (441,0);
}
);
background = {
anchors = (
{
name = bottom;
pos = (441,0);
}
);
shapes = (
{
closed = 1;
nodes = (
(194,0,l),
(194,603,l),
(212,603,l),
(332,0,l),
(550,0,l),
(670,603,l),
(688,603,l),
(688,0,l),
(816,0,l),
(816,700,l),
(571,700,l),
(450,90,l),
(432,90,l),
(311,700,l),
(66,700,l),
(66,0,l)
);
}
);
};
layerId = "5117E3E8-E17C-4812-BAF5-9E7064564A59";
shapes = (
{
closed = 1;
nodes = (
(194,0,l),
(194,603,l),
(212,603,l),
(332,0,l),
(550,0,l),
(670,603,l),
(688,603,l),
(688,0,l),
(816,0,l),
(816,700,l),
(571,700,l),
(450,90,l),
(432,90,l),
(311,700,l),
(66,700,l),
(66,0,l)
);
}
);
width = 882;
},
{
anchors = (
{
name = bottom;
pos = (429,0);
}
);
background = {
anchors = (
{
name = bottom;
pos = (429,0);
}
);
shapes = (
{
closed = 1;
nodes = (
(148,0,l),
(148,662,l),
(160,662,l),
(372,0,l),
(486,0,l),
(698,662,l),
(710,662,l),
(710,0,l),
(772,0,l),
(772,700,l),
(647,700,l),
(435,38,l),
(423,38,l),
(211,700,l),
(86,700,l),
(86,0,l)
);
}
);
};
layerId = "CEFBB1E5-951F-4065-926E-8B9137F837F5";
shapes = (
{
closed = 1;
nodes = (
(148,0,l),
(148,662,l),
(160,662,l),
(372,0,l),
(486,0,l),
(698,662,l),
(710,662,l),
(710,0,l),
(772,0,l),
(772,700,l),
(647,700,l),
(435,38,l),
(423,38,l),
(211,700,l),
(86,700,l),
(86,0,l)
);
}
);
width = 858;
}
);
metricLeft = I;
metricRight = I;
note = M;
unicode = 77;
},
{
glyphname = N;
kernLeft = H;
kernRight = H;
lastChange = "2020-08-10 18:12:01 +0000";
layers = (
{
anchors = (
{
name = bottom;
pos = (336,0);
},
{
name = top;
pos = (334,700);
}
);
background = {
anchors = (
{
name = bottom;
pos = (336,0);
},
{
name = top;
pos = (334,700);
}
);
shapes = (
{
closed = 1;
nodes = (
(196,0,l),
(196,610,l),
(214,610,l),
(353,0,l),
(604,0,l),
(604,700,l),
(474,700,l),
(474,90,l),
(456,90,l),
(317,700,l),
(66,700,l),
(66,0,l)
);
}
);
};
layerId = "5117E3E8-E17C-4812-BAF5-9E7064564A59";
shapes = (
{
closed = 1;
nodes = (
(196,0,l),
(196,610,l),
(214,610,l),
(353,0,l),
(604,0,l),
(604,700,l),
(474,700,l),
(474,90,l),
(456,90,l),
(317,700,l),
(66,700,l),
(66,0,l)
);
}
);
width = 670;
},
{
anchors = (
{
name = bottom;
pos = (334,0);
},
{
name = top;
pos = (335,700);
}
);
background = {
anchors = (
{
name = bottom;
pos = (334,0);
},
{
name = top;
pos = (335,700);
}
);
shapes = (
{
closed = 1;
nodes = (
(150,0,l),
(150,663,l),
(162,663,l),
(448,0,l),
(575,0,l),
(575,700,l),
(511,700,l),
(511,38,l),
(499,38,l),
(213,700,l),
(86,700,l),
(86,0,l)
);
}
);
};
layerId = "CEFBB1E5-951F-4065-926E-8B9137F837F5";
shapes = (
{
closed = 1;
nodes = (
(150,0,l),
(150,663,l),
(162,663,l),
(448,0,l),
(575,0,l),
(575,700,l),
(511,700,l),
(511,38,l),
(499,38,l),
(213,700,l),
(86,700,l),
(86,0,l)
);
}
);
width = 661;
}
);
metricLeft = I;
metricRight = I;
note = N;
unicode = 78;
},
{
glyphname = O;
kernLeft = O;
kernRight = O;
lastChange = "2020-08-11 15:38:03 +0000";
layers = (
{
anchors = (
{
name = bottom;
pos = (338,0);
},
{
name = horn;
pos = (450,700);
},
{
name = ogonek;
pos = (352,0);
},
{
name = top;
pos = (338,700);
}
);
background = {
anchors = (
{
name = bottom;
pos = (338,0);
},
{
name = horn;
pos = (450,700);
},
{
name = ogonek;
pos = (352,0);
},
{
name = top;
pos = (338,700);
}
);
shapes = (
{
closed = 1;
nodes = (
(514,-14,o),
(626,86,o),
(626,266,cs),
(626,434,ls),
(626,614,o),
(514,714,o),
(338,714,cs),
(162,714,o),
(50,614,o),
(50,434,cs),
(50,266,ls),
(50,86,o),
(162,-14,o),
(338,-14,cs)
);
},
{
closed = 1;
nodes = (
(240,104,o),
(182,166,o),
(182,262,cs),
(182,438,ls),
(182,534,o),
(240,596,o),
(338,596,cs),
(436,596,o),
(494,534,o),
(494,438,cs),
(494,262,ls),
(494,166,o),
(436,104,o),
(338,104,cs)
);
}
);
};
layerId = "5117E3E8-E17C-4812-BAF5-9E7064564A59";
shapes = (
{
closed = 1;
nodes = (
(514,-14,o),
(626,86,o),
(626,266,cs),
(626,434,ls),
(626,614,o),
(514,714,o),
(338,714,cs),
(162,714,o),
(50,614,o),
(50,434,cs),
(50,266,ls),
(50,86,o),
(162,-14,o),
(338,-14,cs)
);
},
{
closed = 1;
nodes = (
(240,104,o),
(182,166,o),
(182,262,cs),
(182,438,ls),
(182,534,o),
(240,596,o),
(338,596,cs),
(436,596,o),
(494,534,o),
(494,438,cs),
(494,262,ls),
(494,166,o),
(436,104,o),
(338,104,cs)
);
}
);
width = 676;
},
{
anchors = (
{
name = bottom;
pos = (333,0);
},
{
name = horn;
pos = (436,700);
},
{
name = ogonek;
pos = (349,0);
},
{
name = top;
pos = (333,700);
}
);
background = {
anchors = (
{
name = bottom;
pos = (333,0);
},
{
name = horn;
pos = (436,700);
},
{
name = ogonek;
pos = (349,0);
},
{
name = top;
pos = (333,700);
}
);
shapes = (
{
closed = 1;
nodes = (
(497,-14,o),
(602,84,o),
(602,271,cs),
(602,429,ls),
(602,616,o),
(497,714,o),
(333,714,cs),
(169,714,o),
(64,616,o),
(64,429,cs),
(64,271,ls),
(64,84,o),
(169,-14,o),
(333,-14,cs)
);
},
{
closed = 1;
nodes = (
(203,44,o),
(128,126,o),
(128,269,cs),
(128,431,ls),
(128,574,o),
(203,656,o),
(333,656,cs),
(463,656,o),
(538,574,o),
(538,431,cs),
(538,269,ls),
(538,126,o),
(463,44,o),
(333,44,cs)
);
}
);
};
layerId = "CEFBB1E5-951F-4065-926E-8B9137F837F5";
shapes = (
{
closed = 1;
nodes = (
(497,-14,o),
(602,84,o),
(602,271,cs),
(602,429,ls),
(602,616,o),
(497,714,o),
(333,714,cs),
(169,714,o),
(64,616,o),
(64,429,cs),
(64,271,ls),
(64,84,o),
(169,-14,o),
(333,-14,cs)
);
},
{
closed = 1;
nodes = (
(203,44,o),
(128,126,o),
(128,269,cs),
(128,431,ls),
(128,574,o),
(203,656,o),
(333,656,cs),
(463,656,o),
(538,574,o),
(538,431,cs),
(538,269,ls),
(538,126,o),
(463,44,o),
(333,44,cs)
);
}
);
width = 666;
}
);
note = O;
unicode = 79;
},
{
glyphname = P;
kernLeft = H;
kernRight = P;
lastChange = "2020-08-10 18:12:01 +0000";
layers = (
{
background = {
shapes = (
{
closed = 1;
nodes = (
(198,0,l),
(198,256,l),
(354,256,ls),
(482,256,o),
(578,340,o),
(578,471,cs),
(578,485,ls),
(578,616,o),
(486,700,o),
(354,700,cs),
(66,700,l),
(66,0,l)
);
},
{
closed = 1;
nodes = (
(198,580,l),
(341,580,ls),
(404,580,o),
(446,543,o),
(446,483,cs),
(446,473,ls),
(446,413,o),
(403,376,o),
(341,376,cs),
(198,376,l)
);
}
);
};
layerId = "5117E3E8-E17C-4812-BAF5-9E7064564A59";
shapes = (
{
closed = 1;
nodes = (
(198,0,l),
(198,256,l),
(354,256,ls),
(482,256,o),
(578,340,o),
(578,471,cs),
(578,485,ls),
(578,616,o),
(486,700,o),
(354,700,cs),
(66,700,l),
(66,0,l)
);
},
{
closed = 1;
nodes = (
(198,580,l),
(341,580,ls),
(404,580,o),
(446,543,o),
(446,483,cs),
(446,473,ls),
(446,413,o),
(403,376,o),
(341,376,cs),
(198,376,l)
);
}
);
width = 604;
},
{
background = {
shapes = (
{
closed = 1;
nodes = (
(150,0,l),
(150,292,l),
(345,292,ls),
(466,292,o),
(564,364,o),
(564,490,cs),
(564,502,ls),
(564,628,o),
(468,700,o),
(345,700,cs),
(86,700,l),
(86,0,l)
);
},
{
closed = 1;
nodes = (
(150,642,l),
(338,642,ls),
(440,642,o),
(500,591,o),
(500,501,cs),
(500,491,ls),
(500,401,o),
(438,350,o),
(338,350,cs),
(150,350,l)
);
}
);
};
layerId = "CEFBB1E5-951F-4065-926E-8B9137F837F5";
shapes = (
{
closed = 1;
nodes = (
(150,0,l),
(150,292,l),
(345,292,ls),
(466,292,o),
(564,364,o),
(564,490,cs),
(564,502,ls),
(564,628,o),
(468,700,o),
(345,700,cs),
(86,700,l),
(86,0,l)
);
},
{
closed = 1;
nodes = (
(150,642,l),
(338,642,ls),
(440,642,o),
(500,591,o),
(500,501,cs),
(500,491,ls),
(500,401,o),
(438,350,o),
(338,350,cs),
(150,350,l)
);
}
);
width = 600;
}
);
metricLeft = I;
note = P;
unicode = 80;
},
{
glyphname = Q;
kernLeft = O;
kernRight = O;
lastChange = "2020-08-10 18:12:01 +0000";
layers = (
{
background = {
shapes = (
{
closed = 1;
nodes = (
(514,-14,o),
(626,86,o),
(626,266,cs),
(626,434,ls),
(626,614,o),
(514,714,o),
(338,714,cs),
(162,714,o),
(50,614,o),
(50,434,cs),
(50,266,ls),
(50,86,o),
(162,-14,o),
(338,-14,cs)
);
},
{
closed = 1;
nodes = (
(240,104,o),
(182,166,o),
(182,262,cs),
(182,438,ls),
(182,534,o),
(240,596,o),
(338,596,cs),
(436,596,o),
(494,534,o),
(494,438,cs),
(494,262,ls),
(494,166,o),
(436,104,o),
(338,104,cs)
);
},
{
closed = 1;
nodes = (
(489,-180,l),
(489,-78,l),
(430,-78,ls),
(412,-78,o),
(402,-68,o),
(402,-48,cs),
(402,0,l),
(274,0,l),
(274,-68,ls),
(274,-136,o),
(318,-180,o),
(384,-180,cs)
);
}
);
};
layerId = "5117E3E8-E17C-4812-BAF5-9E7064564A59";
shapes = (
{
closed = 1;
nodes = (
(514,-14,o),
(626,86,o),
(626,266,cs),
(626,434,ls),
(626,614,o),
(514,714,o),
(338,714,cs),
(162,714,o),
(50,614,o),
(50,434,cs),
(50,266,ls),
(50,86,o),
(162,-14,o),
(338,-14,cs)
);
},
{
closed = 1;
nodes = (
(240,104,o),
(182,166,o),
(182,262,cs),
(182,438,ls),
(182,534,o),
(240,596,o),
(338,596,cs),
(436,596,o),
(494,534,o),
(494,438,cs),
(494,262,ls),
(494,166,o),
(436,104,o),
(338,104,cs)
);
},
{
closed = 1;
nodes = (
(489,-180,l),
(489,-78,l),
(430,-78,ls),
(412,-78,o),
(402,-68,o),
(402,-48,cs),
(402,0,l),
(274,0,l),
(274,-68,ls),
(274,-136,o),
(318,-180,o),
(384,-180,cs)
);
}
);
width = 676;
},
{
background = {
shapes = (
{
closed = 1;
nodes = (
(497,-14,o),
(602,84,o),
(602,271,cs),
(602,429,ls),
(602,616,o),
(497,714,o),
(333,714,cs),
(169,714,o),
(64,616,o),
(64,429,cs),
(64,271,ls),
(64,84,o),
(169,-14,o),
(333,-14,cs)
);
},
{
closed = 1;
nodes = (
(203,44,o),
(128,126,o),
(128,269,cs),
(128,431,ls),
(128,574,o),
(203,656,o),
(333,656,cs),
(463,656,o),
(538,574,o),
(538,431,cs),
(538,269,ls),
(538,126,o),
(463,44,o),
(333,44,cs)
);
},
{
closed = 1;
nodes = (
(461,-154,l),
(461,-99,l),
(392,-99,ls),
(374,-99,o),
(364,-89,o),
(364,-69,cs),
(364,0,l),
(301,0,l),
(301,-82,ls),
(301,-127,o),
(328,-154,o),
(371,-154,cs)
);
}
);
};
layerId = "CEFBB1E5-951F-4065-926E-8B9137F837F5";
shapes = (
{
closed = 1;
nodes = (
(497,-14,o),
(602,84,o),
(602,271,cs),
(602,429,ls),
(602,616,o),
(497,714,o),
(333,714,cs),
(169,714,o),
(64,616,o),
(64,429,cs),
(64,271,ls),
(64,84,o),
(169,-14,o),
(333,-14,cs)
);
},
{
closed = 1;
nodes = (
(203,44,o),
(128,126,o),
(128,269,cs),
(128,431,ls),
(128,574,o),
(203,656,o),
(333,656,cs),
(463,656,o),
(538,574,o),
(538,431,cs),
(538,269,ls),
(538,126,o),
(463,44,o),
(333,44,cs)
);
},
{
closed = 1;
nodes = (
(461,-154,l),
(461,-99,l),
(392,-99,ls),
(374,-99,o),
(364,-89,o),
(364,-69,cs),
(364,0,l),
(301,0,l),
(301,-82,ls),
(301,-127,o),
(328,-154,o),
(371,-154,cs)
);
}
);
width = 666;
}
);
metricLeft = O;
metricRight = O;
note = Q;
unicode = 81;
},
{
glyphname = R;
kernLeft = H;
kernRight = R;
lastChange = "2020-08-10 18:12:01 +0000";
layers = (
{
anchors = (
{
name = bottom;
pos = (313,0);
},
{
name = top;
pos = (301,700);
}
);
background = {
anchors = (
{
name = bottom;
pos = (313,0);
},
{
name = top;
pos = (301,700);
}
);
shapes = (
{
closed = 1;
nodes = (
(198,0,l),
(198,264,l),
(382,264,ls),
(421,264,o),
(436,242,o),
(436,210,cs),
(436,0,l),
(568,0,l),
(568,229,ls),
(568,285,o),
(537,321,o),
(484,324,c),
(484,342,l),
(543,366,o),
(588,417,o),
(588,501,cs),
(588,513,ls),
(588,626,o),
(501,700,o),
(370,700,cs),
(66,700,l),
(66,0,l)
);
},
{
closed = 1;
nodes = (
(198,580,l),
(356,580,ls),
(420,580,o),
(456,543,o),
(456,487,cs),
(456,477,ls),
(456,421,o),
(418,384,o),
(356,384,cs),
(198,384,l)
);
}
);
};
layerId = "5117E3E8-E17C-4812-BAF5-9E7064564A59";
shapes = (
{
closed = 1;
nodes = (
(198,0,l),
(198,264,l),
(382,264,ls),
(421,264,o),
(436,242,o),
(436,210,cs),
(436,0,l),
(568,0,l),
(568,229,ls),
(568,285,o),
(537,321,o),
(484,324,c),
(484,342,l),
(543,366,o),
(588,417,o),
(588,501,cs),
(588,513,ls),
(588,626,o),
(501,700,o),
(370,700,cs),
(66,700,l),
(66,0,l)
);
},
{
closed = 1;
nodes = (
(198,580,l),
(356,580,ls),
(420,580,o),
(456,543,o),
(456,487,cs),
(456,477,ls),
(456,421,o),
(418,384,o),
(356,384,cs),
(198,384,l)
);
}
);
width = 632;
},
{
anchors = (
{
name = bottom;
pos = (319,0);
},
{
name = top;
pos = (310,700);
}
);
background = {
anchors = (
{
name = bottom;
pos = (319,0);
},
{
name = top;
pos = (310,700);
}
);
shapes = (
{
closed = 1;
nodes = (
(150,0,l),
(150,297,l),
(416,297,ls),
(463,297,o),
(486,274,o),
(486,231,cs),
(486,0,l),
(550,0,l),
(550,238,ls),
(550,299,o),
(513,325,o),
(467,327,c),
(467,339,l),
(528,356,o),
(581,409,o),
(581,504,cs),
(581,514,ls),
(581,632,o),
(489,700,o),
(360,700,cs),
(86,700,l),
(86,0,l)
);
},
{
closed = 1;
nodes = (
(150,642,l),
(354,642,ls),
(460,642,o),
(517,592,o),
(517,501,cs),
(517,496,ls),
(517,405,o),
(458,355,o),
(354,355,cs),
(150,355,l)
);
}
);
};
layerId = "CEFBB1E5-951F-4065-926E-8B9137F837F5";
shapes = (
{
closed = 1;
nodes = (
(150,0,l),
(150,297,l),
(416,297,ls),
(463,297,o),
(486,274,o),
(486,231,cs),
(486,0,l),
(550,0,l),
(550,238,ls),
(550,299,o),
(513,325,o),
(467,327,c),
(467,339,l),
(528,356,o),
(581,409,o),
(581,504,cs),
(581,514,ls),
(581,632,o),
(489,700,o),
(360,700,cs),
(86,700,l),
(86,0,l)
);
},
{
closed = 1;
nodes = (
(150,642,l),
(354,642,ls),
(460,642,o),
(517,592,o),
(517,501,cs),
(517,496,ls),
(517,405,o),
(458,355,o),
(354,355,cs),
(150,355,l)
);
}
);
width = 631;
}
);
metricLeft = I;
note = R;
unicode = 82;
},
{
glyphname = S;
kernLeft = S;
kernRight = S;
lastChange = "2020-08-11 15:56:16 +0000";
layers = (
{
anchors = (
{
name = bottom;
pos = (315,0);
},
{
name = top;
pos = (301,700);
}
);
background = {
anchors = (
{
name = bottom;
pos = (315,0);
},
{
name = top;
pos = (301,700);
}
);
shapes = (
{
closed = 1;
nodes = (
(471,-14,o),
(574,74,o),
(574,202,cs),
(574,330,o),
(475,382,o),
(326,414,cs),
(303,419,ls),
(219,437,o),
(180,462,o),
(180,514,cs),
(180,566,o),
(217,598,o),
(297,598,cs),
(377,598,o),
(426,566,o),
(426,486,cs),
(426,456,l),
(556,456,l),
(556,486,ls),
(556,638,o),
(447,714,o),
(297,714,cs),
(147,714,o),
(50,638,o),
(50,510,cs),
(50,382,o),
(135,333,o),
(280,301,cs),
(303,296,ls),
(393,276,o),
(444,256,o),
(444,198,cs),
(444,142,o),
(399,102,o),
(309,102,cs),
(219,102,o),
(164,144,o),
(164,228,cs),
(164,256,l),
(34,256,l),
(34,228,ls),
(34,76,o),
(147,-14,o),
(309,-14,cs)
);
}
);
};
layerId = "5117E3E8-E17C-4812-BAF5-9E7064564A59";
shapes = (
{
closed = 1;
nodes = (
(471,-14,o),
(574,74,o),
(574,202,cs),
(574,330,o),
(475,382,o),
(326,414,cs),
(303,419,ls),
(219,437,o),
(180,462,o),
(180,514,cs),
(180,566,o),
(217,598,o),
(297,598,cs),
(377,598,o),
(426,566,o),
(426,486,cs),
(426,456,l),
(556,456,l),
(556,486,ls),
(556,638,o),
(447,714,o),
(297,714,cs),
(147,714,o),
(50,638,o),
(50,510,cs),
(50,382,o),
(135,333,o),
(280,301,cs),
(303,296,ls),
(393,276,o),
(444,256,o),
(444,198,cs),
(444,142,o),
(399,102,o),
(309,102,cs),
(219,102,o),
(164,144,o),
(164,228,cs),
(164,256,l),
(34,256,l),
(34,228,ls),
(34,76,o),
(147,-14,o),
(309,-14,cs)
);
}
);
width = 606;
},
{
anchors = (
{
name = bottom;
pos = (320,0);
},
{
name = top;
pos = (307,700);
}
);
background = {
anchors = (
{
name = bottom;
pos = (320,0);
},
{
name = top;
pos = (307,700);
}
);
shapes = (
{
closed = 1;
nodes = (
(463,-14,o),
(560,64,o),
(560,186,cs),
(560,308,o),
(466,351,o),
(357,378,cs),
(293,394,ls),
(196,418,o),
(135,444,o),
(135,528,cs),
(135,612,o),
(205,658,o),
(303,658,cs),
(405,658,o),
(484,612,o),
(484,503,cs),
(484,456,l),
(548,456,l),
(548,503,ls),
(548,642,o),
(440,714,o),
(303,714,cs),
(166,714,o),
(71,642,o),
(71,528,cs),
(71,414,o),
(155,367,o),
(270,338,cs),
(334,322,ls),
(430,298,o),
(496,270,o),
(496,186,cs),
(496,102,o),
(431,42,o),
(315,42,cs),
(200,42,o),
(118,102,o),
(118,232,cs),
(118,251,l),
(54,251,l),
(54,232,ls),
(54,64,o),
(166,-14,o),
(315,-14,cs)
);
}
);
};
layerId = "CEFBB1E5-951F-4065-926E-8B9137F837F5";
shapes = (
{
closed = 1;
nodes = (
(463,-14,o),
(560,64,o),
(560,186,cs),
(560,308,o),
(466,351,o),
(357,378,cs),
(293,394,ls),
(196,418,o),
(135,444,o),
(135,528,cs),
(135,612,o),
(205,658,o),
(303,658,cs),
(405,658,o),
(484,612,o),
(484,503,cs),
(484,456,l),
(548,456,l),
(548,503,ls),
(548,642,o),
(440,714,o),
(303,714,cs),
(166,714,o),
(71,642,o),
(71,528,cs),
(71,414,o),
(155,367,o),
(270,338,cs),
(334,322,ls),
(430,298,o),
(496,270,o),
(496,186,cs),
(496,102,o),
(431,42,o),
(315,42,cs),
(200,42,o),
(118,102,o),
(118,232,cs),
(118,251,l),
(54,251,l),
(54,232,ls),
(54,64,o),
(166,-14,o),
(315,-14,cs)
);
}
);
width = 616;
}
);
note = S;
unicode = 83;
},
{
glyphname = T;
kernLeft = T;
kernRight = T;
lastChange = "2020-08-11 09:51:51 +0000";
layers = (
{
anchors = (
{
name = bottom;
pos = (294,0);
},
{
name = strokeC;
pos = (294,496);
},
{
name = top;
pos = (294,700);
}
);
background = {
anchors = (
{
name = bottom;
pos = (294,0);
},
{
name = strokeC;
pos = (294,496);
},
{
name = top;
pos = (294,700);
}
);
shapes = (
{
closed = 1;
nodes = (
(360,0,l),
(360,580,l),
(564,580,l),
(564,700,l),
(24,700,l),
(24,580,l),
(228,580,l),
(228,0,l)
);
}
);
};
layerId = "5117E3E8-E17C-4812-BAF5-9E7064564A59";
shapes = (
{
closed = 1;
nodes = (
(360,0,l),
(360,580,l),
(564,580,l),
(564,700,l),
(24,700,l),
(24,580,l),
(228,580,l),
(228,0,l)
);
}
);
width = 588;
},
{
anchors = (
{
name = bottom;
pos = (295,0);
},
{
name = strokeC;
pos = (294,486);
},
{
name = top;
pos = (294,700);
}
);
background = {
anchors = (
{
name = bottom;
pos = (295,0);
},
{
name = strokeC;
pos = (294,486);
},
{
name = top;
pos = (294,700);
}
);
shapes = (
{
closed = 1;
nodes = (
(326,0,l),
(326,642,l),
(560,642,l),
(560,700,l),
(28,700,l),
(28,642,l),
(262,642,l),
(262,0,l)
);
}
);
};
layerId = "CEFBB1E5-951F-4065-926E-8B9137F837F5";
shapes = (
{
closed = 1;
nodes = (
(326,0,l),
(326,642,l),
(560,642,l),
(560,700,l),
(28,700,l),
(28,642,l),
(262,642,l),
(262,0,l)
);
}
);
width = 588;
}
);
note = T;
unicode = 84;
},
{
glyphname = U;
kernLeft = U;
kernRight = U;
lastChange = "2020-08-10 18:12:01 +0000";
layers = (
{
anchors = (
{
name = bottom;
pos = (336,0);
},
{
name = horn;
pos = (610,700);
},
{
name = ogonek;
pos = (424,0);
},
{
name = top;
pos = (336,700);
}
);
background = {
anchors = (
{
name = bottom;
pos = (336,0);
},
{
name = horn;
pos = (610,700);
},
{
name = ogonek;
pos = (424,0);
},
{
name = top;
pos = (336,700);
}
);
shapes = (
{
closed = 1;
nodes = (
(508,-14,o),
(610,86,o),
(610,246,cs),
(610,700,l),
(478,700,l),
(478,242,ls),
(478,156,o),
(428,104,o),
(336,104,cs),
(244,104,o),
(194,156,o),
(194,242,cs),
(194,700,l),
(62,700,l),
(62,246,ls),
(62,86,o),
(164,-14,o),
(336,-14,cs)
);
}
);
};
layerId = "5117E3E8-E17C-4812-BAF5-9E7064564A59";
shapes = (
{
closed = 1;
nodes = (
(508,-14,o),
(610,86,o),
(610,246,cs),
(610,700,l),
(478,700,l),
(478,242,ls),
(478,156,o),
(428,104,o),
(336,104,cs),
(244,104,o),
(194,156,o),
(194,242,cs),
(194,700,l),
(62,700,l),
(62,246,ls),
(62,86,o),
(164,-14,o),
(336,-14,cs)
);
}
);
width = 672;
},
{
anchors = (
{
name = bottom;
pos = (334,0);
},
{
name = horn;
pos = (584,700);
},
{
name = ogonek;
pos = (399,0);
},
{
name = top;
pos = (332,700);
}
);
background = {
anchors = (
{
name = bottom;
pos = (334,0);
},
{
name = horn;
pos = (584,700);
},
{
name = ogonek;
pos = (399,0);
},
{
name = top;
pos = (332,700);
}
);
shapes = (
{
closed = 1;
nodes = (
(482,-14,o),
(584,65,o),
(584,229,cs),
(584,700,l),
(520,700,l),
(520,229,ls),
(520,104,o),
(451,44,o),
(332,44,cs),
(213,44,o),
(144,104,o),
(144,229,cs),
(144,700,l),
(80,700,l),
(80,229,ls),
(80,65,o),
(182,-14,o),
(332,-14,cs)
);
}
);
};
layerId = "CEFBB1E5-951F-4065-926E-8B9137F837F5";
shapes = (
{
closed = 1;
nodes = (
(482,-14,o),
(584,65,o),
(584,229,cs),
(584,700,l),
(520,700,l),
(520,229,ls),
(520,104,o),
(451,44,o),
(332,44,cs),
(213,44,o),
(144,104,o),
(144,229,cs),
(144,700,l),
(80,700,l),
(80,229,ls),
(80,65,o),
(182,-14,o),
(332,-14,cs)
);
}
);
width = 664;
}
);
note = U;
unicode = 85;
},
{
glyphname = V;
kernLeft = V;
kernRight = V;
lastChange = "2020-08-11 15:24:01 +0000";
layers = (
{
background = {
shapes = (
{
closed = 1;
nodes = (
(422,0,l),
(600,700,l),
(464,700,l),
(316,85,l),
(302,85,l),
(154,700,l),
(18,700,l),
(196,0,l)
);
}
);
};
layerId = "5117E3E8-E17C-4812-BAF5-9E7064564A59";
shapes = (
{
closed = 1;
nodes = (
(422,0,l),
(600,700,l),
(464,700,l),
(316,85,l),
(302,85,l),
(154,700,l),
(18,700,l),
(196,0,l)
);
}
);
width = 618;
},
{
background = {
shapes = (
{
closed = 1;
nodes = (
(367,0,l),
(592,700,l),
(525,700,l),
(316,37,l),
(304,37,l),
(95,700,l),
(28,700,l),
(253,0,l)
);
}
);
};
layerId = "CEFBB1E5-951F-4065-926E-8B9137F837F5";
shapes = (
{
closed = 1;
nodes = (
(367,0,l),
(592,700,l),
(525,700,l),
(316,37,l),
(304,37,l),
(95,700,l),
(28,700,l),
(253,0,l)
);
}
);
width = 620;
}
);
note = V;
unicode = 86;
},
{
glyphname = W;
kernLeft = W;
kernRight = W;
lastChange = "2020-08-11 15:47:45 +0000";
layers = (
{
anchors = (
{
name = top;
pos = (449,700);
}
);
background = {
anchors = (
{
name = top;
pos = (449,700);
}
);
shapes = (
{
closed = 1;
nodes = (
(350,0,l),
(440,622,l),
(458,622,l),
(548,0,l),
(776,0,l),
(868,700,l),
(737,700,l),
(669,92,l),
(651,92,l),
(563,700,l),
(335,700,l),
(247,92,l),
(229,92,l),
(161,700,l),
(30,700,l),
(122,0,l)
);
}
);
};
layerId = "5117E3E8-E17C-4812-BAF5-9E7064564A59";
shapes = (
{
closed = 1;
nodes = (
(350,0,l),
(440,622,l),
(458,622,l),
(548,0,l),
(776,0,l),
(868,700,l),
(737,700,l),
(669,92,l),
(651,92,l),
(563,700,l),
(335,700,l),
(247,92,l),
(229,92,l),
(161,700,l),
(30,700,l),
(122,0,l)
);
}
);
width = 898;
},
{
anchors = (
{
name = top;
pos = (433,700);
}
);
background = {
anchors = (
{
name = top;
pos = (433,700);
}
);
shapes = (
{
closed = 1;
nodes = (
(282,0,l),
(427,662,l),
(439,662,l),
(584,0,l),
(703,0,l),
(826,700,l),
(761,700,l),
(649,38,l),
(637,38,l),
(492,700,l),
(374,700,l),
(229,38,l),
(217,38,l),
(105,700,l),
(40,700,l),
(163,0,l)
);
}
);
};
layerId = "CEFBB1E5-951F-4065-926E-8B9137F837F5";
shapes = (
{
closed = 1;
nodes = (
(282,0,l),
(427,662,l),
(439,662,l),
(584,0,l),
(703,0,l),
(826,700,l),
(761,700,l),
(649,38,l),
(637,38,l),
(492,700,l),
(374,700,l),
(229,38,l),
(217,38,l),
(105,700,l),
(40,700,l),
(163,0,l)
);
}
);
width = 866;
}
);
note = W;
unicode = 87;
},
{
glyphname = X;
kernLeft = X;
kernRight = X;
lastChange = "2020-08-10 18:12:01 +0000";
layers = (
{
background = {
shapes = (
{
closed = 1;
nodes = (
(172,0,l),
(313,259,l),
(331,259,l),
(472,0,l),
(622,0,l),
(417,353,l),
(620,700,l),
(470,700,l),
(331,447,l),
(313,447,l),
(174,700,l),
(24,700,l),
(227,353,l),
(22,0,l)
);
}
);
};
layerId = "5117E3E8-E17C-4812-BAF5-9E7064564A59";
shapes = (
{
closed = 1;
nodes = (
(172,0,l),
(313,259,l),
(331,259,l),
(472,0,l),
(622,0,l),
(417,353,l),
(620,700,l),
(470,700,l),
(331,447,l),
(313,447,l),
(174,700,l),
(24,700,l),
(227,353,l),
(22,0,l)
);
}
);
width = 644;
},
{
background = {
shapes = (
{
closed = 1;
nodes = (
(113,0,l),
(311,309,l),
(323,309,l),
(522,0,l),
(599,0,l),
(365,353,l),
(595,700,l),
(518,700,l),
(323,397,l),
(311,397,l),
(117,700,l),
(40,700,l),
(270,353,l),
(36,0,l)
);
}
);
};
layerId = "CEFBB1E5-951F-4065-926E-8B9137F837F5";
shapes = (
{
closed = 1;
nodes = (
(113,0,l),
(311,309,l),
(323,309,l),
(522,0,l),
(599,0,l),
(365,353,l),
(595,700,l),
(518,700,l),
(323,397,l),
(311,397,l),
(117,700,l),
(40,700,l),
(270,353,l),
(36,0,l)
);
}
);
width = 635;
}
);
note = X;
unicode = 88;
},
{
glyphname = Y;
kernLeft = Y;
kernRight = Y;
lastChange = "2020-08-10 18:12:01 +0000";
layers = (
{
anchors = (
{
name = bottom;
pos = (312,0);
},
{
name = top;
pos = (312,700);
}
);
background = {
anchors = (
{
name = bottom;
pos = (312,0);
},
{
name = top;
pos = (312,700);
}
);
shapes = (
{
closed = 1;
nodes = (
(378,0,l),
(378,241,l),
(616,700,l),
(469,700,l),
(321,400,l),
(303,400,l),
(155,700,l),
(8,700,l),
(246,241,l),
(246,0,l)
);
}
);
};
layerId = "5117E3E8-E17C-4812-BAF5-9E7064564A59";
shapes = (
{
closed = 1;
nodes = (
(378,0,l),
(378,241,l),
(616,700,l),
(469,700,l),
(321,400,l),
(303,400,l),
(155,700,l),
(8,700,l),
(246,241,l),
(246,0,l)
);
}
);
width = 624;
},
{
anchors = (
{
name = bottom;
pos = (302,0);
},
{
name = top;
pos = (302,700);
}
);
background = {
anchors = (
{
name = bottom;
pos = (302,0);
},
{
name = top;
pos = (302,700);
}
);
shapes = (
{
closed = 1;
nodes = (
(334,0,l),
(334,277,l),
(588,700,l),
(512,700,l),
(308,350,l),
(296,350,l),
(92,700,l),
(16,700,l),
(270,277,l),
(270,0,l)
);
}
);
};
layerId = "CEFBB1E5-951F-4065-926E-8B9137F837F5";
shapes = (
{
closed = 1;
nodes = (
(334,0,l),
(334,277,l),
(588,700,l),
(512,700,l),
(308,350,l),
(296,350,l),
(92,700,l),
(16,700,l),
(270,277,l),
(270,0,l)
);
}
);
width = 604;
}
);
note = Y;
unicode = 89;
},
{
glyphname = Z;
kernLeft = Z;
kernRight = Z;
lastChange = "2020-08-11 15:07:55 +0000";
layers = (
{
anchors = (
{
name = bottom;
pos = (289,0);
},
{
name = top;
pos = (293,700);
}
);
background = {
anchors = (
{
name = bottom;
pos = (289,0);
},
{
name = top;
pos = (293,700);
}
);
shapes = (
{
closed = 1;
nodes = (
(532,0,l),
(532,118,l),
(184,118,l),
(184,134,l),
(530,532,l),
(530,700,l),
(56,700,l),
(56,582,l),
(392,582,l),
(392,566,l),
(46,168,l),
(46,0,l)
);
}
);
};
layerId = "5117E3E8-E17C-4812-BAF5-9E7064564A59";
shapes = (
{
closed = 1;
nodes = (
(532,0,l),
(532,118,l),
(184,118,l),
(184,134,l),
(530,532,l),
(530,700,l),
(56,700,l),
(56,582,l),
(392,582,l),
(392,566,l),
(46,168,l),
(46,0,l)
);
}
);
width = 576;
},
{
anchors = (
{
name = bottom;
pos = (284,0);
},
{
name = top;
pos = (283,700);
}
);
background = {
anchors = (
{
name = bottom;
pos = (284,0);
},
{
name = top;
pos = (283,700);
}
);
shapes = (
{
closed = 1;
nodes = (
(530,0,l),
(530,58,l),
(112,58,l),
(112,68,l),
(520,612,l),
(520,700,l),
(64,700,l),
(64,642,l),
(460,642,l),
(460,632,l),
(52,88,l),
(52,0,l)
);
}
);
};
layerId = "CEFBB1E5-951F-4065-926E-8B9137F837F5";
shapes = (
{
closed = 1;
nodes = (
(530,0,l),
(530,58,l),
(112,58,l),
(112,68,l),
(520,612,l),
(520,700,l),
(64,700,l),
(64,642,l),
(460,642,l),
(460,632,l),
(52,88,l),
(52,0,l)
);
}
);
width = 578;
}
);
note = Z;
unicode = 90;
},
{
glyphname = a;
kernLeft = a;
kernRight = a;
lastChange = "2020-09-18 16:01:24 +0000";
layers = (
{
anchors = (
{
name = bottom;
pos = (276,0);
},
{
name = ogonek;
pos = (468,0);
},
{
name = top;
pos = (281,496);
}
);
background = {
anchors = (
{
name = bottom;
pos = (276,0);
},
{
name = ogonek;
pos = (468,0);
},
{
name = top;
pos = (281,496);
}
);
shapes = (
{
closed = 1;
nodes = (
(328,-14,o),
(359,42,o),
(368,67,c),
(488,67,l),
(488,319,ls),
(488,443,o),
(406,510,o),
(276,510,cs),
(147,510,o),
(82,445,o),
(58,370,c),
(174,331,l),
(183,376,o),
(211,408,o),
(274,408,cs),
(338,408,o),
(366,374,o),
(366,328,cs),
(366,300,l),
(230,300,ls),
(118,300,o),
(38,247,o),
(38,145,cs),
(38,43,o),
(118,-14,o),
(224,-14,cs)
);
},
{
closed = 1;
nodes = (
(192,88,o),
(164,113,o),
(164,149,cs),
(164,185,o),
(192,206,o),
(239,206,cs),
(366,206,l),
(366,196,ls),
(366,130,o),
(316,88,o),
(246,88,cs)
);
},
{
closed = 1;
nodes = (
(556,0,l),
(556,104,l),
(516,104,ls),
(498,104,o),
(488,114,o),
(488,134,cs),
(488,162,l),
(384,162,l),
(384,92,ls),
(384,36,o),
(418,0,o),
(472,0,cs)
);
}
);
};
layerId = "5117E3E8-E17C-4812-BAF5-9E7064564A59";
shapes = (
{
closed = 1;
nodes = (
(328,-14,o),
(359,42,o),
(368,67,c),
(387,67,l),
(387,66,ls),
(387,26,o),
(423,0,o),
(472,0,cs),
(556,0,l),
(556,104,l),
(516,104,ls),
(498,104,o),
(488,114,o),
(488,134,cs),
(488,319,ls),
(488,443,o),
(406,510,o),
(276,510,cs),
(147,510,o),
(82,445,o),
(58,370,c),
(174,331,l),
(183,376,o),
(211,408,o),
(274,408,cs),
(338,408,o),
(366,374,o),
(366,328,cs),
(366,300,l),
(230,300,ls),
(118,300,o),
(38,247,o),
(38,145,cs),
(38,43,o),
(118,-14,o),
(224,-14,cs)
);
},
{
closed = 1;
nodes = (
(192,88,o),
(164,113,o),
(164,149,cs),
(164,185,o),
(192,206,o),
(239,206,cs),
(366,206,l),
(366,196,ls),
(366,130,o),
(316,88,o),
(246,88,cs)
);
}
);
width = 578;
},
{
anchors = (
{
name = bottom;
pos = (287,0);
},
{
name = ogonek;
pos = (475,0);
},
{
name = top;
pos = (282,486);
}
);
background = {
anchors = (
{
name = bottom;
pos = (287,0);
},
{
name = ogonek;
pos = (475,0);
},
{
name = top;
pos = (282,486);
}
);
shapes = (
{
closed = 1;
nodes = (
(337,-14,o),
(381,31,o),
(407,76,c),
(473,78,l),
(473,318,ls),
(473,432,o),
(402,500,o),
(280,500,cs),
(159,500,o),
(93,432,o),
(70,347,c),
(128,330,l),
(145,400,o),
(194,446,o),
(280,446,cs),
(367,446,o),
(413,399,o),
(413,321,cs),
(413,282,l),
(235,282,ls),
(134,282,o),
(55,234,o),
(55,137,cs),
(55,40,o),
(134,-14,o),
(237,-14,cs)
);
},
{
closed = 1;
nodes = (
(167,40,o),
(115,75,o),
(115,138,cs),
(115,200,o),
(167,230,o),
(236,230,cs),
(413,230,l),
(413,218,ls),
(413,105,o),
(344,40,o),
(241,40,cs)
);
},
{
closed = 1;
nodes = (
(548,0,l),
(548,52,l),
(501,52,ls),
(483,52,o),
(473,62,o),
(473,82,cs),
(473,98,l),
(417,96,l),
(417,69,ls),
(417,26,o),
(443,0,o),
(484,0,cs)
);
}
);
};
layerId = "CEFBB1E5-951F-4065-926E-8B9137F837F5";
shapes = (
{
closed = 1;
nodes = (
(337,-14,o),
(381,31,o),
(407,76,c),
(417,76,l),
(417,69,ls),
(417,26,o),
(443,0,o),
(484,0,cs),
(548,0,l),
(548,52,l),
(501,52,ls),
(483,52,o),
(473,62,o),
(473,82,cs),
(473,318,ls),
(473,432,o),
(402,500,o),
(280,500,cs),
(159,500,o),
(93,432,o),
(70,347,c),
(128,330,l),
(145,400,o),
(194,446,o),
(280,446,cs),
(367,446,o),
(413,399,o),
(413,321,cs),
(413,282,l),
(235,282,ls),
(134,282,o),
(55,234,o),
(55,137,cs),
(55,40,o),
(134,-14,o),
(237,-14,cs)
);
},
{
closed = 1;
nodes = (
(167,40,o),
(115,75,o),
(115,138,cs),
(115,200,o),
(167,230,o),
(236,230,cs),
(413,230,l),
(413,218,ls),
(413,105,o),
(344,40,o),
(241,40,cs)
);
}
);
width = 574;
}
);
note = a.alt;
unicode = 97;
},
{
glyphname = b;
kernLeft = l;
kernRight = o;
lastChange = "2020-08-10 18:12:01 +0000";
layers = (
{
anchors = (
{
name = strokeA;
pos = (70,496);
}
);
background = {
anchors = (
{
name = strokeA;
pos = (70,496);
}
);
shapes = (
{
closed = 1;
nodes = (
(487,-14,o),
(592,78,o),
(592,240,cs),
(592,256,ls),
(592,418,o),
(488,510,o),
(368,510,cs),
(278,510,o),
(235,474,o),
(214,439,c),
(196,439,l),
(196,700,l),
(70,700,l),
(70,0,l),
(194,0,l),
(194,60,l),
(212,60,l),
(235,22,o),
(278,-14,o),
(368,-14,cs)
);
},
{
closed = 1;
nodes = (
(253,96,o),
(194,147,o),
(194,243,cs),
(194,253,ls),
(194,349,o),
(252,400,o),
(330,400,cs),
(408,400,o),
(466,349,o),
(466,253,cs),
(466,243,ls),
(466,147,o),
(407,96,o),
(330,96,cs)
);
}
);
};
layerId = "5117E3E8-E17C-4812-BAF5-9E7064564A59";
shapes = (
{
closed = 1;
nodes = (
(487,-14,o),
(592,78,o),
(592,240,cs),
(592,256,ls),
(592,418,o),
(488,510,o),
(368,510,cs),
(278,510,o),
(235,474,o),
(214,439,c),
(196,439,l),
(196,700,l),
(70,700,l),
(70,0,l),
(194,0,l),
(194,60,l),
(212,60,l),
(235,22,o),
(278,-14,o),
(368,-14,cs)
);
},
{
closed = 1;
nodes = (
(253,96,o),
(194,147,o),
(194,243,cs),
(194,253,ls),
(194,349,o),
(252,400,o),
(330,400,cs),
(408,400,o),
(466,349,o),
(466,253,cs),
(466,243,ls),
(466,147,o),
(407,96,o),
(330,96,cs)
);
}
);
width = 638;
},
{
anchors = (
{
name = strokeA;
pos = (88,486);
}
);
background = {
anchors = (
{
name = strokeA;
pos = (88,486);
}
);
shapes = (
{
closed = 1;
nodes = (
(478,-14,o),
(582,82,o),
(582,237,cs),
(582,249,ls),
(582,403,o),
(479,500,o),
(348,500,cs),
(241,500,o),
(186,450,o),
(160,401,c),
(148,401,l),
(148,700,l),
(88,700,l),
(88,0,l),
(146,0,l),
(146,89,l),
(158,89,l),
(186,36,o),
(241,-14,o),
(348,-14,cs)
);
},
{
closed = 1;
nodes = (
(224,40,o),
(148,115,o),
(148,239,cs),
(148,247,ls),
(148,371,o),
(224,446,o),
(334,446,cs),
(444,446,o),
(520,371,o),
(520,247,cs),
(520,239,ls),
(520,115,o),
(444,40,o),
(334,40,cs)
);
}
);
};
layerId = "CEFBB1E5-951F-4065-926E-8B9137F837F5";
shapes = (
{
closed = 1;
nodes = (
(478,-14,o),
(582,82,o),
(582,237,cs),
(582,249,ls),
(582,403,o),
(479,500,o),
(348,500,cs),
(241,500,o),
(186,450,o),
(160,401,c),
(148,401,l),
(148,700,l),
(88,700,l),
(88,0,l),
(146,0,l),
(146,89,l),
(158,89,l),
(186,36,o),
(241,-14,o),
(348,-14,cs)
);
},
{
closed = 1;
nodes = (
(224,40,o),
(148,115,o),
(148,239,cs),
(148,247,ls),
(148,371,o),
(224,446,o),
(334,446,cs),
(444,446,o),
(520,371,o),
(520,247,cs),
(520,239,ls),
(520,115,o),
(444,40,o),
(334,40,cs)
);
}
);
width = 646;
}
);
metricLeft = l;
metricRight = o;
note = b;
unicode = 98;
},
{
glyphname = c;
kernLeft = o;
kernRight = o;
lastChange = "2020-08-10 18:12:01 +0000";
layers = (
{
anchors = (
{
name = bottom;
pos = (303,0);
},
{
name = top;
pos = (303,496);
}
);
background = {
anchors = (
{
name = bottom;
pos = (303,0);
},
{
name = top;
pos = (303,496);
}
);
shapes = (
{
closed = 1;
nodes = (
(445,-14,o),
(526,69,o),
(552,176,c),
(430,205,l),
(419,141,o),
(382,98,o),
(306,98,cs),
(230,98,o),
(172,149,o),
(172,243,cs),
(172,253,ls),
(172,347,o),
(230,398,o),
(306,398,cs),
(382,398,o),
(419,352,o),
(427,292,c),
(549,318,l),
(528,428,o),
(445,510,o),
(303,510,cs),
(159,510,o),
(46,417,o),
(46,255,cs),
(46,241,ls),
(46,79,o),
(159,-14,o),
(303,-14,cs)
);
}
);
};
layerId = "5117E3E8-E17C-4812-BAF5-9E7064564A59";
metricRight = "=o-12";
shapes = (
{
closed = 1;
nodes = (
(445,-14,o),
(526,69,o),
(552,176,c),
(430,205,l),
(419,141,o),
(382,98,o),
(306,98,cs),
(230,98,o),
(172,149,o),
(172,243,cs),
(172,253,ls),
(172,347,o),
(230,398,o),
(306,398,cs),
(382,398,o),
(419,352,o),
(427,292,c),
(549,318,l),
(528,428,o),
(445,510,o),
(303,510,cs),
(159,510,o),
(46,417,o),
(46,255,cs),
(46,241,ls),
(46,79,o),
(159,-14,o),
(303,-14,cs)
);
}
);
width = 586;
},
{
anchors = (
{
name = bottom;
pos = (310,0);
},
{
name = top;
pos = (310,486);
}
);
background = {
anchors = (
{
name = bottom;
pos = (310,0);
},
{
name = top;
pos = (310,486);
}
);
shapes = (
{
closed = 1;
nodes = (
(450,-14,o),
(525,76,o),
(543,171,c),
(484,183,l),
(471,103,o),
(416,40,o),
(310,40,cs),
(204,40,o),
(124,117,o),
(124,239,cs),
(124,247,ls),
(124,369,o),
(204,446,o),
(310,446,cs),
(416,446,o),
(470,380,o),
(480,303,c),
(539,315,l),
(525,409,o),
(450,500,o),
(310,500,cs),
(168,500,o),
(64,403,o),
(64,248,cs),
(64,238,ls),
(64,83,o),
(168,-14,o),
(310,-14,cs)
);
}
);
};
layerId = "CEFBB1E5-951F-4065-926E-8B9137F837F5";
shapes = (
{
closed = 1;
nodes = (
(450,-14,o),
(525,76,o),
(543,171,c),
(484,183,l),
(471,103,o),
(416,40,o),
(310,40,cs),
(204,40,o),
(124,117,o),
(124,239,cs),
(124,247,ls),
(124,369,o),
(204,446,o),
(310,446,cs),
(416,446,o),
(470,380,o),
(480,303,c),
(539,315,l),
(525,409,o),
(450,500,o),
(310,500,cs),
(168,500,o),
(64,403,o),
(64,248,cs),
(64,238,ls),
(64,83,o),
(168,-14,o),
(310,-14,cs)
);
}
);
width = 603;
}
);
metricLeft = o;
metricRight = "=o-4";
note = c;
unicode = 99;
},
{
glyphname = d;
kernLeft = o;
kernRight = l;
lastChange = "2020-08-10 18:12:01 +0000";
layers = (
{
anchors = (
{
name = bottom;
pos = (324,0);
},
{
name = sidecaron;
pos = (568,700);
},
{
name = strokeB;
pos = (568,496);
}
);
background = {
anchors = (
{
name = bottom;
pos = (324,0);
},
{
name = sidecaron;
pos = (568,700);
},
{
name = strokeB;
pos = (568,496);
}
);
shapes = (
{
closed = 1;
nodes = (
(360,-14,o),
(403,22,o),
(426,60,c),
(444,60,l),
(444,0,l),
(568,0,l),
(568,700,l),
(442,700,l),
(442,439,l),
(424,439,l),
(403,474,o),
(360,510,o),
(270,510,cs),
(150,510,o),
(46,418,o),
(46,256,cs),
(46,240,ls),
(46,78,o),
(151,-14,o),
(270,-14,cs)
);
},
{
closed = 1;
nodes = (
(231,96,o),
(172,147,o),
(172,243,cs),
(172,253,ls),
(172,349,o),
(230,400,o),
(308,400,cs),
(386,400,o),
(444,349,o),
(444,253,cs),
(444,243,ls),
(444,147,o),
(385,96,o),
(308,96,cs)
);
}
);
};
layerId = "5117E3E8-E17C-4812-BAF5-9E7064564A59";
shapes = (
{
closed = 1;
nodes = (
(360,-14,o),
(403,22,o),
(426,60,c),
(444,60,l),
(444,0,l),
(568,0,l),
(568,700,l),
(442,700,l),
(442,439,l),
(424,439,l),
(403,474,o),
(360,510,o),
(270,510,cs),
(150,510,o),
(46,418,o),
(46,256,cs),
(46,240,ls),
(46,78,o),
(151,-14,o),
(270,-14,cs)
);
},
{
closed = 1;
nodes = (
(231,96,o),
(172,147,o),
(172,243,cs),
(172,253,ls),
(172,349,o),
(230,400,o),
(308,400,cs),
(386,400,o),
(444,349,o),
(444,253,cs),
(444,243,ls),
(444,147,o),
(385,96,o),
(308,96,cs)
);
}
);
width = 638;
},
{
anchors = (
{
name = bottom;
pos = (316,0);
},
{
name = sidecaron;
pos = (558,700);
},
{
name = strokeB;
pos = (558,486);
}
);
background = {
anchors = (
{
name = bottom;
pos = (316,0);
},
{
name = sidecaron;
pos = (558,700);
},
{
name = strokeB;
pos = (558,486);
}
);
shapes = (
{
closed = 1;
nodes = (
(405,-14,o),
(460,36,o),
(488,89,c),
(500,89,l),
(500,0,l),
(558,0,l),
(558,700,l),
(498,700,l),
(498,401,l),
(486,401,l),
(460,450,o),
(405,500,o),
(298,500,cs),
(167,500,o),
(64,403,o),
(64,249,cs),
(64,237,ls),
(64,82,o),
(168,-14,o),
(298,-14,cs)
);
},
{
closed = 1;
nodes = (
(202,40,o),
(126,115,o),
(126,239,cs),
(126,247,ls),
(126,371,o),
(202,446,o),
(312,446,cs),
(422,446,o),
(498,371,o),
(498,247,cs),
(498,239,ls),
(498,115,o),
(422,40,o),
(312,40,cs)
);
}
);
};
layerId = "CEFBB1E5-951F-4065-926E-8B9137F837F5";
shapes = (
{
closed = 1;
nodes = (
(405,-14,o),
(460,36,o),
(488,89,c),
(500,89,l),
(500,0,l),
(558,0,l),
(558,700,l),
(498,700,l),
(498,401,l),
(486,401,l),
(460,450,o),
(405,500,o),
(298,500,cs),
(167,500,o),
(64,403,o),
(64,249,cs),
(64,237,ls),
(64,82,o),
(168,-14,o),
(298,-14,cs)
);
},
{
closed = 1;
nodes = (
(202,40,o),
(126,115,o),
(126,239,cs),
(126,247,ls),
(126,371,o),
(202,446,o),
(312,446,cs),
(422,446,o),
(498,371,o),
(498,247,cs),
(498,239,ls),
(498,115,o),
(422,40,o),
(312,40,cs)
);
}
);
width = 646;
}
);
metricLeft = o;
metricRight = l;
note = d;
unicode = 100;
},
{
glyphname = e;
kernLeft = o;
kernRight = o;
lastChange = "2020-08-10 18:12:01 +0000";
layers = (
{
anchors = (
{
name = bottom;
pos = (296,0);
},
{
name = ogonek;
pos = (384,0);
},
{
name = top;
pos = (294,496);
}
);
background = {
anchors = (
{
name = bottom;
pos = (296,0);
},
{
name = ogonek;
pos = (384,0);
},
{
name = top;
pos = (294,496);
}
);
shapes = (
{
closed = 1;
nodes = (
(432,-14,o),
(491,63,o),
(519,116,c),
(416,170,l),
(399,132,o),
(370,96,o),
(300,96,cs),
(230,96,o),
(177,143,o),
(174,211,c),
(535,211,l),
(535,254,ls),
(535,406,o),
(440,510,o),
(294,510,cs),
(146,510,o),
(46,410,o),
(46,254,cs),
(46,242,ls),
(46,86,o),
(147,-14,o),
(296,-14,cs)
);
},
{
closed = 1;
nodes = (
(184,362,o),
(225,400,o),
(293,400,cs),
(358,400,o),
(401,362,o),
(407,305,c),
(175,305,l)
);
}
);
};
layerId = "5117E3E8-E17C-4812-BAF5-9E7064564A59";
shapes = (
{
closed = 1;
nodes = (
(432,-14,o),
(491,63,o),
(519,116,c),
(416,170,l),
(399,132,o),
(370,96,o),
(300,96,cs),
(230,96,o),
(177,143,o),
(174,211,c),
(535,211,l),
(535,254,ls),
(535,406,o),
(440,510,o),
(294,510,cs),
(146,510,o),
(46,410,o),
(46,254,cs),
(46,242,ls),
(46,86,o),
(147,-14,o),
(296,-14,cs)
);
},
{
closed = 1;
nodes = (
(184,362,o),
(225,400,o),
(293,400,cs),
(358,400,o),
(401,362,o),
(407,305,c),
(175,305,l)
);
}
);
width = 577;
},
{
anchors = (
{
name = bottom;
pos = (312,0);
},
{
name = ogonek;
pos = (371,0);
},
{
name = top;
pos = (305,486);
}
);
background = {
anchors = (
{
name = bottom;
pos = (312,0);
},
{
name = ogonek;
pos = (371,0);
},
{
name = top;
pos = (305,486);
}
);
shapes = (
{
closed = 1;
nodes = (
(441,-14,o),
(498,57,o),
(529,123,c),
(475,147,l),
(448,87,o),
(403,40,o),
(312,40,cs),
(205,40,o),
(128,109,o),
(124,230,c),
(538,230,l),
(538,262,ls),
(538,410,o),
(441,500,o),
(305,500,cs),
(165,500,o),
(64,398,o),
(64,249,cs),
(64,237,ls),
(64,88,o),
(162,-14,o),
(312,-14,cs)
);
},
{
closed = 1;
nodes = (
(139,387,o),
(208,446,o),
(305,446,cs),
(403,446,o),
(472,387,o),
(477,282,c),
(125,282,l)
);
}
);
};
layerId = "CEFBB1E5-951F-4065-926E-8B9137F837F5";
shapes = (
{
closed = 1;
nodes = (
(441,-14,o),
(498,57,o),
(529,123,c),
(475,147,l),
(448,87,o),
(403,40,o),
(312,40,cs),
(205,40,o),
(128,109,o),
(124,230,c),
(538,230,l),
(538,262,ls),
(538,410,o),
(441,500,o),
(305,500,cs),
(165,500,o),
(64,398,o),
(64,249,cs),
(64,237,ls),
(64,88,o),
(162,-14,o),
(312,-14,cs)
);
},
{
closed = 1;
nodes = (
(139,387,o),
(208,446,o),
(305,446,cs),
(403,446,o),
(472,387,o),
(477,282,c),
(125,282,l)
);
}
);
width = 598;
}
);
metricLeft = o;
metricRight = "=o-4";
note = e;
unicode = 101;
},
{
glyphname = f;
kernLeft = t;
kernRight = f;
lastChange = "2020-08-11 15:51:37 +0000";
layers = (
{
background = {
shapes = (
{
closed = 1;
nodes = (
(278,0,l),
(278,392,l),
(408,392,l),
(408,496,l),
(278,496,l),
(278,566,ls),
(278,586,o),
(288,596,o),
(306,596,cs),
(392,596,l),
(392,700,l),
(262,700,ls),
(196,700,o),
(152,656,o),
(152,588,cs),
(152,496,l),
(26,496,l),
(26,392,l),
(152,392,l),
(152,0,l)
);
}
);
};
layerId = "5117E3E8-E17C-4812-BAF5-9E7064564A59";
shapes = (
{
closed = 1;
nodes = (
(278,0,l),
(278,392,l),
(408,392,l),
(408,496,l),
(278,496,l),
(278,566,ls),
(278,586,o),
(288,596,o),
(306,596,cs),
(392,596,l),
(392,700,l),
(262,700,ls),
(196,700,o),
(152,656,o),
(152,588,cs),
(152,496,l),
(26,496,l),
(26,392,l),
(152,392,l),
(152,0,l)
);
}
);
width = 436;
},
{
background = {
shapes = (
{
closed = 1;
nodes = (
(250,0,l),
(250,432,l),
(414,432,l),
(414,486,l),
(250,486,l),
(250,616,ls),
(250,636,o),
(258,646,o),
(280,646,cs),
(388,646,l),
(388,700,l),
(268,700,ls),
(216,700,o),
(190,672,o),
(190,624,cs),
(190,486,l),
(30,486,l),
(30,432,l),
(190,432,l),
(190,0,l)
);
}
);
};
layerId = "CEFBB1E5-951F-4065-926E-8B9137F837F5";
shapes = (
{
closed = 1;
nodes = (
(250,0,l),
(250,432,l),
(414,432,l),
(414,486,l),
(250,486,l),
(250,616,ls),
(250,636,o),
(258,646,o),
(280,646,cs),
(388,646,l),
(388,700,l),
(268,700,ls),
(216,700,o),
(190,672,o),
(190,624,cs),
(190,486,l),
(30,486,l),
(30,432,l),
(190,432,l),
(190,0,l)
);
}
);
width = 444;
}
);
note = f;
unicode = 102;
},
{
glyphname = g;
kernLeft = o;
kernRight = u;
lastChange = "2020-08-10 18:12:01 +0000";
layers = (
{
anchors = (
{
name = top;
pos = (328,496);
}
);
background = {
anchors = (
{
name = top;
pos = (328,496);
}
);
shapes = (
{
closed = 1;
nodes = (
(46,90,o),
(150,-2,o),
(272,-2,cs),
(363,-2,o),
(404,36,o),
(424,69,c),
(442,69,l),
(442,-60,ls),
(442,-80,o),
(432,-90,o),
(414,-90,cs),
(126,-90,l),
(126,-200,l),
(458,-200,ls),
(524,-200,o),
(568,-156,o),
(568,-88,cs),
(568,496,l),
(444,496,l),
(444,436,l),
(426,436,l),
(404,470,o),
(362,510,o),
(272,510,cs),
(149,510,o),
(46,418,o),
(46,262,cs),
(46,246,ls)
);
},
{
closed = 1;
nodes = (
(231,108,o),
(172,159,o),
(172,249,cs),
(172,259,ls),
(172,349,o),
(230,400,o),
(308,400,cs),
(386,400,o),
(444,349,o),
(444,259,cs),
(444,249,ls),
(444,159,o),
(385,108,o),
(308,108,cs)
);
}
);
};
layerId = "5117E3E8-E17C-4812-BAF5-9E7064564A59";
shapes = (
{
closed = 1;
nodes = (
(46,90,o),
(150,-2,o),
(272,-2,cs),
(363,-2,o),
(404,36,o),
(424,69,c),
(442,69,l),
(442,-60,ls),
(442,-80,o),
(432,-90,o),
(414,-90,cs),
(126,-90,l),
(126,-200,l),
(458,-200,ls),
(524,-200,o),
(568,-156,o),
(568,-88,cs),
(568,496,l),
(444,496,l),
(444,436,l),
(426,436,l),
(404,470,o),
(362,510,o),
(272,510,cs),
(149,510,o),
(46,418,o),
(46,262,cs),
(46,246,ls)
);
},
{
closed = 1;
nodes = (
(231,108,o),
(172,159,o),
(172,249,cs),
(172,259,ls),
(172,349,o),
(230,400,o),
(308,400,cs),
(386,400,o),
(444,349,o),
(444,259,cs),
(444,249,ls),
(444,159,o),
(385,108,o),
(308,108,cs)
);
}
);
width = 638;
},
{
anchors = (
{
name = top;
pos = (332,486);
}
);
background = {
anchors = (
{
name = top;
pos = (332,486);
}
);
shapes = (
{
closed = 1;
nodes = (
(64,89,o),
(167,-6,o),
(298,-6,cs),
(405,-6,o),
(460,44,o),
(486,93,c),
(498,93,l),
(498,-116,ls),
(498,-136,o),
(489,-146,o),
(467,-146,cs),
(147,-146,l),
(147,-200,l),
(479,-200,ls),
(531,-200,o),
(556,-172,o),
(556,-124,cs),
(556,486,l),
(500,486,l),
(500,397,l),
(488,397,l),
(460,450,o),
(405,500,o),
(298,500,cs),
(168,500,o),
(64,406,o),
(64,253,cs),
(64,241,ls)
);
},
{
closed = 1;
nodes = (
(202,48,o),
(126,121,o),
(126,243,cs),
(126,251,ls),
(126,373,o),
(202,446,o),
(312,446,cs),
(422,446,o),
(498,373,o),
(498,251,cs),
(498,243,ls),
(498,121,o),
(422,48,o),
(312,48,cs)
);
}
);
};
layerId = "CEFBB1E5-951F-4065-926E-8B9137F837F5";
shapes = (
{
closed = 1;
nodes = (
(64,89,o),
(167,-6,o),
(298,-6,cs),
(405,-6,o),
(460,44,o),
(486,93,c),
(498,93,l),
(498,-116,ls),
(498,-136,o),
(489,-146,o),
(467,-146,cs),
(147,-146,l),
(147,-200,l),
(479,-200,ls),
(531,-200,o),
(556,-172,o),
(556,-124,cs),
(556,486,l),
(500,486,l),
(500,397,l),
(488,397,l),
(460,450,o),
(405,500,o),
(298,500,cs),
(168,500,o),
(64,406,o),
(64,253,cs),
(64,241,ls)
);
},
{
closed = 1;
nodes = (
(202,48,o),
(126,121,o),
(126,243,cs),
(126,251,ls),
(126,373,o),
(202,446,o),
(312,446,cs),
(422,446,o),
(498,373,o),
(498,251,cs),
(498,243,ls),
(498,121,o),
(422,48,o),
(312,48,cs)
);
}
);
width = 644;
}
);
metricLeft = o;
metricRight = u;
note = g;
unicode = 103;
},
{
glyphname = h;
kernLeft = l;
kernRight = n;
lastChange = "2020-08-10 18:12:01 +0000";
layers = (
{
anchors = (
{
name = bottom;
pos = (310,0);
},
{
name = strokeA;
pos = (70,496);
},
{
name = top;
pos = (133,700);
}
);
background = {
anchors = (
{
name = bottom;
pos = (310,0);
},
{
name = strokeA;
pos = (70,496);
},
{
name = top;
pos = (133,700);
}
);
shapes = (
{
closed = 1;
nodes = (
(196,0,l),
(196,252,ls),
(196,344,o),
(241,398,o),
(318,398,cs),
(386,398,o),
(424,361,o),
(424,286,cs),
(424,0,l),
(550,0,l),
(550,296,ls),
(550,419,o),
(473,504,o),
(357,504,cs),
(269,504,o),
(230,467,o),
(214,435,c),
(196,435,l),
(196,700,l),
(70,700,l),
(70,0,l)
);
}
);
};
layerId = "5117E3E8-E17C-4812-BAF5-9E7064564A59";
shapes = (
{
closed = 1;
nodes = (
(196,0,l),
(196,252,ls),
(196,344,o),
(241,398,o),
(318,398,cs),
(386,398,o),
(424,361,o),
(424,286,cs),
(424,0,l),
(550,0,l),
(550,296,ls),
(550,419,o),
(473,504,o),
(357,504,cs),
(269,504,o),
(230,467,o),
(214,435,c),
(196,435,l),
(196,700,l),
(70,700,l),
(70,0,l)
);
}
);
width = 616;
},
{
anchors = (
{
name = bottom;
pos = (309,0);
},
{
name = strokeA;
pos = (88,486);
},
{
name = top;
pos = (118,700);
}
);
background = {
anchors = (
{
name = bottom;
pos = (309,0);
},
{
name = strokeA;
pos = (88,486);
},
{
name = top;
pos = (118,700);
}
);
shapes = (
{
closed = 1;
nodes = (
(148,0,l),
(148,243,ls),
(148,376,o),
(223,441,o),
(323,441,cs),
(412,441,o),
(470,398,o),
(470,292,cs),
(470,0,l),
(530,0,l),
(530,296,ls),
(530,430,o),
(441,495,o),
(336,495,cs),
(232,495,o),
(184,448,o),
(160,401,c),
(148,401,l),
(148,700,l),
(88,700,l),
(88,0,l)
);
}
);
};
layerId = "CEFBB1E5-951F-4065-926E-8B9137F837F5";
shapes = (
{
closed = 1;
nodes = (
(148,0,l),
(148,243,ls),
(148,376,o),
(223,441,o),
(323,441,cs),
(412,441,o),
(470,398,o),
(470,292,cs),
(470,0,l),
(530,0,l),
(530,296,ls),
(530,430,o),
(441,495,o),
(336,495,cs),
(232,495,o),
(184,448,o),
(160,401,c),
(148,401,l),
(148,700,l),
(88,700,l),
(88,0,l)
);
}
);
width = 612;
}
);
metricLeft = l;
metricRight = n;
note = h;
unicode = 104;
},
{
glyphname = k;
kernLeft = l;
kernRight = k;
lastChange = "2020-08-10 18:12:01 +0000";
layers = (
{
anchors = (
{
name = bottom;
pos = (283,0);
}
);
background = {
anchors = (
{
name = bottom;
pos = (283,0);
}
);
shapes = (
{
closed = 1;
nodes = (
(196,0,l),
(196,197,l),
(214,197,l),
(388,0,l),
(550,0,l),
(313,256,l),
(542,496,l),
(378,496,l),
(214,313,l),
(196,313,l),
(196,700,l),
(70,700,l),
(70,0,l)
);
}
);
};
layerId = "5117E3E8-E17C-4812-BAF5-9E7064564A59";
shapes = (
{
closed = 1;
nodes = (
(196,0,l),
(196,197,l),
(214,197,l),
(388,0,l),
(550,0,l),
(313,256,l),
(542,496,l),
(378,496,l),
(214,313,l),
(196,313,l),
(196,700,l),
(70,700,l),
(70,0,l)
);
}
);
width = 564;
},
{
anchors = (
{
name = bottom;
pos = (278,0);
}
);
background = {
anchors = (
{
name = bottom;
pos = (278,0);
}
);
shapes = (
{
closed = 1;
nodes = (
(148,0,l),
(148,219,l),
(160,219,l),
(418,0,l),
(505,0,l),
(209,249,l),
(497,486,l),
(409,486,l),
(160,278,l),
(148,278,l),
(148,700,l),
(88,700,l),
(88,0,l)
);
}
);
};
layerId = "CEFBB1E5-951F-4065-926E-8B9137F837F5";
shapes = (
{
closed = 1;
nodes = (
(148,0,l),
(148,219,l),
(160,219,l),
(418,0,l),
(505,0,l),
(209,249,l),
(497,486,l),
(409,486,l),
(160,278,l),
(148,278,l),
(148,700,l),
(88,700,l),
(88,0,l)
);
}
);
width = 527;
}
);
metricLeft = l;
note = k;
unicode = 107;
},
{
glyphname = l;
kernLeft = l;
kernRight = l;
lastChange = "2020-08-11 15:49:13 +0000";
layers = (
{
anchors = (
{
name = bottom;
pos = (133,0);
},
{
name = sidecaron;
pos = (196,700);
},
{
name = top;
pos = (133,700);
}
);
background = {
anchors = (
{
name = bottom;
pos = (133,0);
},
{
name = sidecaron;
pos = (196,700);
},
{
name = top;
pos = (133,700);
}
);
shapes = (
{
closed = 1;
nodes = (
(196,0,l),
(196,700,l),
(70,700,l),
(70,0,l)
);
}
);
};
layerId = "5117E3E8-E17C-4812-BAF5-9E7064564A59";
shapes = (
{
closed = 1;
nodes = (
(196,0,l),
(196,700,l),
(70,700,l),
(70,0,l)
);
}
);
width = 266;
},
{
anchors = (
{
name = bottom;
pos = (118,0);
},
{
name = sidecaron;
pos = (148,700);
},
{
name = top;
pos = (118,700);
}
);
background = {
anchors = (
{
name = bottom;
pos = (118,0);
},
{
name = sidecaron;
pos = (148,700);
},
{
name = top;
pos = (118,700);
}
);
shapes = (
{
closed = 1;
nodes = (
(148,0,l),
(148,700,l),
(88,700,l),
(88,0,l)
);
}
);
};
layerId = "CEFBB1E5-951F-4065-926E-8B9137F837F5";
shapes = (
{
closed = 1;
nodes = (
(148,0,l),
(148,700,l),
(88,700,l),
(88,0,l)
);
}
);
width = 236;
}
);
note = l;
unicode = 108;
},
{
glyphname = m;
kernLeft = n;
kernRight = n;
lastChange = "2020-08-10 18:12:01 +0000";
layers = (
{
anchors = (
{
name = bottom;
pos = (429,0);
}
);
background = {
anchors = (
{
name = bottom;
pos = (429,0);
}
);
shapes = (
{
closed = 1;
nodes = (
(196,0,l),
(196,293,ls),
(196,361,o),
(228,399,o),
(286,399,cs),
(336,399,o),
(366,371,o),
(366,317,cs),
(366,0,l),
(492,0,l),
(492,293,ls),
(492,361,o),
(524,399,o),
(582,399,cs),
(632,399,o),
(662,371,o),
(662,317,cs),
(662,0,l),
(788,0,l),
(788,326,ls),
(788,446,o),
(714,504,o),
(622,504,cs),
(546,504,o),
(508,472,o),
(486,430,c),
(468,430,l),
(445,474,o),
(405,504,o),
(334,504,cs),
(268,504,o),
(229,475,o),
(212,442,c),
(194,442,l),
(194,496,l),
(70,496,l),
(70,0,l)
);
}
);
};
layerId = "5117E3E8-E17C-4812-BAF5-9E7064564A59";
shapes = (
{
closed = 1;
nodes = (
(196,0,l),
(196,293,ls),
(196,361,o),
(228,399,o),
(286,399,cs),
(336,399,o),
(366,371,o),
(366,317,cs),
(366,0,l),
(492,0,l),
(492,293,ls),
(492,361,o),
(524,399,o),
(582,399,cs),
(632,399,o),
(662,371,o),
(662,317,cs),
(662,0,l),
(788,0,l),
(788,326,ls),
(788,446,o),
(714,504,o),
(622,504,cs),
(546,504,o),
(508,472,o),
(486,430,c),
(468,430,l),
(445,474,o),
(405,504,o),
(334,504,cs),
(268,504,o),
(229,475,o),
(212,442,c),
(194,442,l),
(194,496,l),
(70,496,l),
(70,0,l)
);
}
);
width = 854;
},
{
anchors = (
{
name = bottom;
pos = (434,0);
}
);
background = {
anchors = (
{
name = bottom;
pos = (434,0);
}
);
shapes = (
{
closed = 1;
nodes = (
(148,0,l),
(148,295,ls),
(148,391,o),
(207,442,o),
(284,442,cs),
(360,442,o),
(404,396,o),
(404,327,cs),
(404,0,l),
(464,0,l),
(464,295,ls),
(464,391,o),
(523,442,o),
(600,442,cs),
(676,442,o),
(720,396,o),
(720,327,cs),
(720,0,l),
(780,0,l),
(780,333,ls),
(780,430,o),
(713,496,o),
(614,496,cs),
(527,496,o),
(482,455,o),
(460,404,c),
(448,404,l),
(426,454,o),
(378,496,o),
(300,496,cs),
(218,496,o),
(178,458,o),
(158,422,c),
(146,422,l),
(146,486,l),
(88,486,l),
(88,0,l)
);
}
);
};
layerId = "CEFBB1E5-951F-4065-926E-8B9137F837F5";
shapes = (
{
closed = 1;
nodes = (
(148,0,l),
(148,295,ls),
(148,391,o),
(207,442,o),
(284,442,cs),
(360,442,o),
(404,396,o),
(404,327,cs),
(404,0,l),
(464,0,l),
(464,295,ls),
(464,391,o),
(523,442,o),
(600,442,cs),
(676,442,o),
(720,396,o),
(720,327,cs),
(720,0,l),
(780,0,l),
(780,333,ls),
(780,430,o),
(713,496,o),
(614,496,cs),
(527,496,o),
(482,455,o),
(460,404,c),
(448,404,l),
(426,454,o),
(378,496,o),
(300,496,cs),
(218,496,o),
(178,458,o),
(158,422,c),
(146,422,l),
(146,486,l),
(88,486,l),
(88,0,l)
);
}
);
width = 862;
}
);
metricLeft = idotless;
metricRight = n;
note = m;
unicode = 109;
},
{
glyphname = n;
kernLeft = n;
kernRight = n;
lastChange = "2020-08-11 15:27:23 +0000";
layers = (
{
anchors = (
{
name = apostrophe;
pos = (70,496);
},
{
name = bottom;
pos = (310,0);
},
{
name = top;
pos = (303,496);
}
);
background = {
anchors = (
{
name = apostrophe;
pos = (70,496);
},
{
name = bottom;
pos = (310,0);
},
{
name = top;
pos = (303,496);
}
);
shapes = (
{
closed = 1;
nodes = (
(196,0,l),
(196,252,ls),
(196,344,o),
(241,398,o),
(318,398,cs),
(386,398,o),
(424,361,o),
(424,286,cs),
(424,0,l),
(550,0,l),
(550,296,ls),
(550,419,o),
(473,504,o),
(357,504,cs),
(268,504,o),
(228,465,o),
(212,431,c),
(194,431,l),
(194,496,l),
(70,496,l),
(70,0,l)
);
}
);
};
layerId = "5117E3E8-E17C-4812-BAF5-9E7064564A59";
shapes = (
{
closed = 1;
nodes = (
(196,0,l),
(196,252,ls),
(196,344,o),
(241,398,o),
(318,398,cs),
(386,398,o),
(424,361,o),
(424,286,cs),
(424,0,l),
(550,0,l),
(550,296,ls),
(550,419,o),
(473,504,o),
(357,504,cs),
(268,504,o),
(228,465,o),
(212,431,c),
(194,431,l),
(194,496,l),
(70,496,l),
(70,0,l)
);
}
);
width = 616;
},
{
anchors = (
{
name = apostrophe;
pos = (88,486);
},
{
name = bottom;
pos = (309,0);
},
{
name = top;
pos = (310,486);
}
);
background = {
anchors = (
{
name = apostrophe;
pos = (88,486);
},
{
name = bottom;
pos = (309,0);
},
{
name = top;
pos = (310,486);
}
);
shapes = (
{
closed = 1;
nodes = (
(148,0,l),
(148,243,ls),
(148,376,o),
(223,442,o),
(323,442,cs),
(412,442,o),
(470,398,o),
(470,292,cs),
(470,0,l),
(530,0,l),
(530,296,ls),
(530,430,o),
(441,496,o),
(336,496,cs),
(232,496,o),
(182,448,o),
(158,396,c),
(146,396,l),
(146,486,l),
(88,486,l),
(88,0,l)
);
}
);
};
layerId = "CEFBB1E5-951F-4065-926E-8B9137F837F5";
shapes = (
{
closed = 1;
nodes = (
(148,0,l),
(148,243,ls),
(148,376,o),
(223,442,o),
(323,442,cs),
(412,442,o),
(470,398,o),
(470,292,cs),
(470,0,l),
(530,0,l),
(530,296,ls),
(530,430,o),
(441,496,o),
(336,496,cs),
(232,496,o),
(182,448,o),
(158,396,c),
(146,396,l),
(146,486,l),
(88,486,l),
(88,0,l)
);
}
);
width = 612;
}
);
metricLeft = idotless;
note = n;
unicode = 110;
},
{
glyphname = o;
kernLeft = o;
kernRight = o;
lastChange = "2020-08-11 15:06:05 +0000";
layers = (
{
anchors = (
{
name = bottom;
pos = (306,0);
},
{
name = horn;
pos = (398,496);
},
{
name = ogonek;
pos = (318,0);
},
{
name = top;
pos = (306,496);
}
);
background = {
anchors = (
{
name = bottom;
pos = (306,0);
},
{
name = horn;
pos = (398,496);
},
{
name = ogonek;
pos = (318,0);
},
{
name = top;
pos = (306,496);
}
);
shapes = (
{
closed = 1;
nodes = (
(454,-14,o),
(566,80,o),
(566,240,cs),
(566,256,ls),
(566,416,o),
(454,510,o),
(306,510,cs),
(158,510,o),
(46,416,o),
(46,256,cs),
(46,240,ls),
(46,80,o),
(158,-14,o),
(306,-14,cs)
);
},
{
closed = 1;
nodes = (
(229,98,o),
(172,150,o),
(172,243,cs),
(172,253,ls),
(172,346,o),
(228,398,o),
(306,398,cs),
(384,398,o),
(440,346,o),
(440,253,cs),
(440,243,ls),
(440,150,o),
(383,98,o),
(306,98,cs)
);
}
);
};
layerId = "5117E3E8-E17C-4812-BAF5-9E7064564A59";
shapes = (
{
closed = 1;
nodes = (
(454,-14,o),
(566,80,o),
(566,240,cs),
(566,256,ls),
(566,416,o),
(454,510,o),
(306,510,cs),
(158,510,o),
(46,416,o),
(46,256,cs),
(46,240,ls),
(46,80,o),
(158,-14,o),
(306,-14,cs)
);
},
{
closed = 1;
nodes = (
(229,98,o),
(172,150,o),
(172,243,cs),
(172,253,ls),
(172,346,o),
(228,398,o),
(306,398,cs),
(384,398,o),
(440,346,o),
(440,253,cs),
(440,243,ls),
(440,150,o),
(383,98,o),
(306,98,cs)
);
}
);
width = 612;
},
{
anchors = (
{
name = bottom;
pos = (310,0);
},
{
name = horn;
pos = (404,486);
},
{
name = ogonek;
pos = (321,0);
},
{
name = top;
pos = (310,486);
}
);
background = {
anchors = (
{
name = bottom;
pos = (310,0);
},
{
name = horn;
pos = (404,486);
},
{
name = ogonek;
pos = (321,0);
},
{
name = top;
pos = (310,486);
}
);
shapes = (
{
closed = 1;
nodes = (
(458,-14,o),
(556,87,o),
(556,237,cs),
(556,249,ls),
(556,399,o),
(458,500,o),
(310,500,cs),
(162,500,o),
(64,399,o),
(64,249,cs),
(64,237,ls),
(64,87,o),
(162,-14,o),
(310,-14,cs)
);
},
{
closed = 1;
nodes = (
(196,40,o),
(124,119,o),
(124,239,cs),
(124,247,ls),
(124,367,o),
(196,446,o),
(310,446,cs),
(424,446,o),
(496,367,o),
(496,247,cs),
(496,239,ls),
(496,119,o),
(424,40,o),
(310,40,cs)
);
}
);
};
layerId = "CEFBB1E5-951F-4065-926E-8B9137F837F5";
shapes = (
{
closed = 1;
nodes = (
(458,-14,o),
(556,87,o),
(556,237,cs),
(556,249,ls),
(556,399,o),
(458,500,o),
(310,500,cs),
(162,500,o),
(64,399,o),
(64,249,cs),
(64,237,ls),
(64,87,o),
(162,-14,o),
(310,-14,cs)
);
},
{
closed = 1;
nodes = (
(196,40,o),
(124,119,o),
(124,239,cs),
(124,247,ls),
(124,367,o),
(196,446,o),
(310,446,cs),
(424,446,o),
(496,367,o),
(496,247,cs),
(496,239,ls),
(496,119,o),
(424,40,o),
(310,40,cs)
);
}
);
width = 620;
}
);
note = o;
unicode = 111;
},
{
glyphname = p;
kernLeft = n;
kernRight = o;
lastChange = "2020-08-10 18:18:38 +0000";
layers = (
{
layerId = "5117E3E8-E17C-4812-BAF5-9E7064564A59";
shapes = (
{
closed = 1;
nodes = (
(196,-200,l),
(196,57,l),
(214,57,l),
(235,22,o),
(278,-14,o),
(368,-14,cs),
(488,-14,o),
(592,78,o),
(592,240,cs),
(592,256,ls),
(592,418,o),
(487,510,o),
(368,510,cs),
(278,510,o),
(235,474,o),
(212,436,c),
(194,436,l),
(194,496,l),
(70,496,l),
(70,-200,l)
);
},
{
closed = 1;
nodes = (
(252,96,o),
(194,147,o),
(194,243,cs),
(194,253,ls),
(194,349,o),
(253,400,o),
(330,400,cs),
(407,400,o),
(466,349,o),
(466,253,cs),
(466,243,ls),
(466,147,o),
(408,96,o),
(330,96,cs)
);
}
);
width = 638;
},
{
background = {
shapes = (
{
closed = 1;
nodes = (
(148,-200,l),
(148,85,l),
(160,85,l),
(186,36,o),
(241,-14,o),
(348,-14,cs),
(479,-14,o),
(582,83,o),
(582,237,cs),
(582,249,ls),
(582,404,o),
(478,500,o),
(348,500,cs),
(241,500,o),
(186,450,o),
(158,397,c),
(146,397,l),
(146,486,l),
(88,486,l),
(88,-200,l)
);
},
{
closed = 1;
nodes = (
(224,40,o),
(148,115,o),
(148,239,cs),
(148,247,ls),
(148,371,o),
(224,446,o),
(334,446,cs),
(444,446,o),
(520,371,o),
(520,247,cs),
(520,239,ls),
(520,115,o),
(444,40,o),
(334,40,cs)
);
}
);
};
layerId = "CEFBB1E5-951F-4065-926E-8B9137F837F5";
shapes = (
{
closed = 1;
nodes = (
(148,-200,l),
(148,85,l),
(160,85,l),
(186,36,o),
(241,-14,o),
(348,-14,cs),
(479,-14,o),
(582,83,o),
(582,237,cs),
(582,249,ls),
(582,404,o),
(478,500,o),
(348,500,cs),
(241,500,o),
(186,450,o),
(158,397,c),
(146,397,l),
(146,486,l),
(88,486,l),
(88,-200,l)
);
},
{
closed = 1;
nodes = (
(224,40,o),
(148,115,o),
(148,239,cs),
(148,247,ls),
(148,371,o),
(224,446,o),
(334,446,cs),
(444,446,o),
(520,371,o),
(520,247,cs),
(520,239,ls),
(520,115,o),
(444,40,o),
(334,40,cs)
);
}
);
width = 646;
}
);
metricLeft = idotless;
metricRight = o;
note = p;
unicode = 112;
},
{
glyphname = q;
kernLeft = o;
kernRight = u;
lastChange = "2020-08-10 18:18:33 +0000";
layers = (
{
background = {
shapes = (
{
closed = 1;
nodes = (
(568,-200,l),
(568,496,l),
(444,496,l),
(444,436,l),
(426,436,l),
(403,474,o),
(360,510,o),
(270,510,cs),
(151,510,o),
(46,418,o),
(46,256,cs),
(46,240,ls),
(46,78,o),
(150,-14,o),
(270,-14,cs),
(360,-14,o),
(403,22,o),
(424,57,c),
(442,57,l),
(442,-200,l)
);
},
{
closed = 1;
nodes = (
(230,96,o),
(172,147,o),
(172,243,cs),
(172,253,ls),
(172,349,o),
(231,400,o),
(308,400,cs),
(385,400,o),
(444,349,o),
(444,253,cs),
(444,243,ls),
(444,147,o),
(386,96,o),
(308,96,cs)
);
}
);
};
layerId = "5117E3E8-E17C-4812-BAF5-9E7064564A59";
shapes = (
{
closed = 1;
nodes = (
(568,-200,l),
(568,496,l),
(444,496,l),
(444,436,l),
(426,436,l),
(403,474,o),
(360,510,o),
(270,510,cs),
(151,510,o),
(46,418,o),
(46,256,cs),
(46,240,ls),
(46,78,o),
(150,-14,o),
(270,-14,cs),
(360,-14,o),
(403,22,o),
(424,57,c),
(442,57,l),
(442,-200,l)
);
},
{
closed = 1;
nodes = (
(230,96,o),
(172,147,o),
(172,243,cs),
(172,253,ls),
(172,349,o),
(231,400,o),
(308,400,cs),
(385,400,o),
(444,349,o),
(444,253,cs),
(444,243,ls),
(444,147,o),
(386,96,o),
(308,96,cs)
);
}
);
width = 638;
},
{
background = {
shapes = (
{
closed = 1;
nodes = (
(558,-200,l),
(558,486,l),
(500,486,l),
(500,397,l),
(488,397,l),
(460,450,o),
(405,500,o),
(298,500,cs),
(168,500,o),
(64,404,o),
(64,249,cs),
(64,237,ls),
(64,83,o),
(167,-14,o),
(298,-14,cs),
(405,-14,o),
(460,36,o),
(486,85,c),
(498,85,l),
(498,-200,l)
);
},
{
closed = 1;
nodes = (
(202,40,o),
(126,115,o),
(126,239,cs),
(126,247,ls),
(126,371,o),
(202,446,o),
(312,446,cs),
(422,446,o),
(498,371,o),
(498,247,cs),
(498,239,ls),
(498,115,o),
(422,40,o),
(312,40,cs)
);
}
);
};
layerId = "CEFBB1E5-951F-4065-926E-8B9137F837F5";
shapes = (
{
closed = 1;
nodes = (
(558,-200,l),
(558,486,l),
(500,486,l),
(500,397,l),
(488,397,l),
(460,450,o),
(405,500,o),
(298,500,cs),
(168,500,o),
(64,404,o),
(64,249,cs),
(64,237,ls),
(64,83,o),
(167,-14,o),
(298,-14,cs),
(405,-14,o),
(460,36,o),
(486,85,c),
(498,85,l),
(498,-200,l)
);
},
{
closed = 1;
nodes = (
(202,40,o),
(126,115,o),
(126,239,cs),
(126,247,ls),
(126,371,o),
(202,446,o),
(312,446,cs),
(422,446,o),
(498,371,o),
(498,247,cs),
(498,239,ls),
(498,115,o),
(422,40,o),
(312,40,cs)
);
}
);
width = 646;
}
);
metricLeft = o;
metricRight = idotless;
note = q;
unicode = 113;
},
{
glyphname = r;
kernLeft = n;
kernRight = r;
lastChange = "2020-08-10 18:12:01 +0000";
layers = (
{
anchors = (
{
name = bottom;
pos = (135,0);
},
{
name = top;
pos = (216,496);
}
);
background = {
anchors = (
{
name = bottom;
pos = (135,0);
},
{
name = top;
pos = (216,496);
}
);
shapes = (
{
closed = 1;
nodes = (
(196,0,l),
(196,282,ls),
(196,352,o),
(242,386,o),
(306,386,cs),
(368,386,l),
(368,498,l),
(308,498,ls),
(262,498,o),
(226,480,o),
(212,440,c),
(194,440,l),
(194,496,l),
(70,496,l),
(70,0,l)
);
}
);
};
layerId = "5117E3E8-E17C-4812-BAF5-9E7064564A59";
shapes = (
{
closed = 1;
nodes = (
(196,0,l),
(196,282,ls),
(196,352,o),
(242,386,o),
(306,386,cs),
(368,386,l),
(368,498,l),
(308,498,ls),
(262,498,o),
(226,480,o),
(212,440,c),
(194,440,l),
(194,496,l),
(70,496,l),
(70,0,l)
);
}
);
width = 396;
},
{
anchors = (
{
name = bottom;
pos = (118,0);
},
{
name = top;
pos = (211,486);
}
);
background = {
anchors = (
{
name = bottom;
pos = (118,0);
},
{
name = top;
pos = (211,486);
}
);
shapes = (
{
closed = 1;
nodes = (
(148,0,l),
(148,304,ls),
(148,392,o),
(195,432,o),
(269,432,cs),
(333,432,l),
(333,488,l),
(276,488,ls),
(211,488,o),
(176,469,o),
(158,425,c),
(146,425,l),
(146,486,l),
(88,486,l),
(88,0,l)
);
}
);
};
layerId = "CEFBB1E5-951F-4065-926E-8B9137F837F5";
shapes = (
{
closed = 1;
nodes = (
(148,0,l),
(148,304,ls),
(148,392,o),
(195,432,o),
(269,432,cs),
(333,432,l),
(333,488,l),
(276,488,ls),
(211,488,o),
(176,469,o),
(158,425,c),
(146,425,l),
(146,486,l),
(88,486,l),
(88,0,l)
);
}
);
width = 369;
}
);
metricLeft = idotless;
note = r;
unicode = 114;
},
{
glyphname = s;
kernLeft = s;
kernRight = s;
lastChange = "2020-08-11 15:53:53 +0000";
layers = (
{
anchors = (
{
name = bottom;
pos = (265,0);
},
{
name = top;
pos = (261,496);
}
);
background = {
anchors = (
{
name = bottom;
pos = (265,0);
},
{
name = top;
pos = (261,496);
}
);
shapes = (
{
closed = 1;
nodes = (
(402,-14,o),
(484,45,o),
(484,149,cs),
(484,253,o),
(396,285,o),
(284,305,cs),
(256,310,ls),
(210,318,o),
(182,331,o),
(182,363,cs),
(182,392,o),
(208,410,o),
(256,410,cs),
(304,410,o),
(338,391,o),
(349,340,c),
(466,376,l),
(443,456,o),
(367,510,o),
(256,510,cs),
(138,510,o),
(60,455,o),
(60,357,cs),
(60,259,o),
(146,220,o),
(250,201,cs),
(278,196,ls),
(337,185,o),
(362,171,o),
(362,140,cs),
(362,109,o),
(334,86,o),
(276,86,cs),
(218,86,o),
(171,108,o),
(158,178,c),
(42,148,l),
(59,44,o),
(146,-14,o),
(276,-14,cs)
);
}
);
};
layerId = "5117E3E8-E17C-4812-BAF5-9E7064564A59";
shapes = (
{
closed = 1;
nodes = (
(402,-14,o),
(484,45,o),
(484,149,cs),
(484,253,o),
(396,285,o),
(284,305,cs),
(256,310,ls),
(210,318,o),
(182,331,o),
(182,363,cs),
(182,392,o),
(208,410,o),
(256,410,cs),
(304,410,o),
(338,391,o),
(349,340,c),
(466,376,l),
(443,456,o),
(367,510,o),
(256,510,cs),
(138,510,o),
(60,455,o),
(60,357,cs),
(60,259,o),
(146,220,o),
(250,201,cs),
(278,196,ls),
(337,185,o),
(362,171,o),
(362,140,cs),
(362,109,o),
(334,86,o),
(276,86,cs),
(218,86,o),
(171,108,o),
(158,178,c),
(42,148,l),
(59,44,o),
(146,-14,o),
(276,-14,cs)
);
}
);
width = 524;
},
{
anchors = (
{
name = bottom;
pos = (274,0);
},
{
name = top;
pos = (261,486);
}
);
background = {
anchors = (
{
name = bottom;
pos = (274,0);
},
{
name = top;
pos = (261,486);
}
);
shapes = (
{
closed = 1;
nodes = (
(399,-14,o),
(474,38,o),
(474,130,cs),
(474,222,o),
(396,254,o),
(297,271,cs),
(251,279,ls),
(182,291,o),
(139,311,o),
(139,365,cs),
(139,419,o),
(186,448,o),
(260,448,cs),
(334,448,o),
(388,419,o),
(401,342,c),
(457,354,l),
(439,449,o),
(370,500,o),
(260,500,cs),
(150,500,o),
(79,449,o),
(79,365,cs),
(79,281,o),
(149,242,o),
(242,226,cs),
(288,218,ls),
(364,205,o),
(414,188,o),
(414,130,cs),
(414,72,o),
(361,38,o),
(281,38,cs),
(201,38,o),
(128,72,o),
(113,178,c),
(54,167,l),
(72,38,o),
(163,-14,o),
(281,-14,cs)
);
}
);
};
layerId = "CEFBB1E5-951F-4065-926E-8B9137F837F5";
shapes = (
{
closed = 1;
nodes = (
(399,-14,o),
(474,38,o),
(474,130,cs),
(474,222,o),
(396,254,o),
(297,271,cs),
(251,279,ls),
(182,291,o),
(139,311,o),
(139,365,cs),
(139,419,o),
(186,448,o),
(260,448,cs),
(334,448,o),
(388,419,o),
(401,342,c),
(457,354,l),
(439,449,o),
(370,500,o),
(260,500,cs),
(150,500,o),
(79,449,o),
(79,365,cs),
(79,281,o),
(149,242,o),
(242,226,cs),
(288,218,ls),
(364,205,o),
(414,188,o),
(414,130,cs),
(414,72,o),
(361,38,o),
(281,38,cs),
(201,38,o),
(128,72,o),
(113,178,c),
(54,167,l),
(72,38,o),
(163,-14,o),
(281,-14,cs)
);
}
);
width = 528;
}
);
note = s;
unicode = 115;
},
{
glyphname = t;
kernLeft = t;
kernRight = t;
lastChange = "2020-09-27 11:41:20 +0000";
layers = (
{
anchors = (
{
name = bottom;
pos = (232,0);
},
{
name = sidecaron;
pos = (280,757);
},
{
name = top;
pos = (213,644);
}
);
background = {
anchors = (
{
name = bottom;
pos = (232,0);
},
{
name = sidecaron;
pos = (282,743);
},
{
name = top;
pos = (213,644);
}
);
shapes = (
{
closed = 1;
nodes = (
(400,0,l),
(400,104,l),
(304,104,ls),
(286,104,o),
(276,114,o),
(276,134,cs),
(276,392,l),
(412,392,l),
(412,496,l),
(276,496,l),
(276,650,l),
(150,650,l),
(150,496,l),
(26,496,l),
(26,392,l),
(150,392,l),
(150,112,ls),
(150,44,o),
(194,0,o),
(260,0,cs)
);
}
);
};
layerId = "5117E3E8-E17C-4812-BAF5-9E7064564A59";
shapes = (
{
closed = 1;
nodes = (
(400,0,l),
(400,104,l),
(304,104,ls),
(286,104,o),
(276,114,o),
(276,134,cs),
(276,392,l),
(412,392,l),
(412,496,l),
(276,496,l),
(276,650,l),
(150,650,l),
(150,496,l),
(26,496,l),
(26,392,l),
(150,392,l),
(150,112,ls),
(150,44,o),
(194,0,o),
(260,0,cs)
);
}
);
width = 456;
},
{
anchors = (
{
name = bottom;
pos = (261,0);
},
{
name = sidecaron;
pos = (260,762);
},
{
name = top;
pos = (216,652);
}
);
background = {
anchors = (
{
name = bottom;
pos = (261,0);
},
{
name = sidecaron;
pos = (268,757);
},
{
name = top;
pos = (216,652);
}
);
shapes = (
{
closed = 1;
nodes = (
(390,0,l),
(390,54,l),
(276,54,ls),
(254,54,o),
(246,64,o),
(246,84,cs),
(246,432,l),
(416,432,l),
(416,486,l),
(246,486,l),
(246,668,l),
(186,668,l),
(186,486,l),
(30,486,l),
(30,432,l),
(186,432,l),
(186,76,ls),
(186,28,o),
(212,0,o),
(264,0,cs)
);
}
);
};
layerId = "CEFBB1E5-951F-4065-926E-8B9137F837F5";
shapes = (
{
closed = 1;
nodes = (
(390,0,l),
(390,54,l),
(276,54,ls),
(254,54,o),
(246,64,o),
(246,84,cs),
(246,432,l),
(416,432,l),
(416,486,l),
(246,486,l),
(246,668,l),
(186,668,l),
(186,486,l),
(30,486,l),
(30,432,l),
(186,432,l),
(186,76,ls),
(186,28,o),
(212,0,o),
(264,0,cs)
);
}
);
width = 462;
}
);
note = t;
unicode = 116;
},
{
glyphname = u;
kernLeft = u;
kernRight = u;
lastChange = "2020-08-11 15:54:18 +0000";
layers = (
{
anchors = (
{
name = bottom;
pos = (304,0);
},
{
name = horn;
pos = (546,496);
},
{
name = ogonek;
pos = (484,0);
},
{
name = top;
pos = (306,496);
}
);
background = {
anchors = (
{
name = bottom;
pos = (304,0);
},
{
name = horn;
pos = (546,496);
},
{
name = ogonek;
pos = (484,0);
},
{
name = top;
pos = (306,496);
}
);
shapes = (
{
closed = 1;
nodes = (
(348,-8,o),
(388,31,o),
(404,65,c),
(422,65,l),
(422,0,l),
(546,0,l),
(546,496,l),
(420,496,l),
(420,244,ls),
(420,152,o),
(375,98,o),
(298,98,cs),
(230,98,o),
(192,135,o),
(192,210,cs),
(192,496,l),
(66,496,l),
(66,200,ls),
(66,77,o),
(143,-8,o),
(259,-8,cs)
);
}
);
};
layerId = "5117E3E8-E17C-4812-BAF5-9E7064564A59";
shapes = (
{
closed = 1;
nodes = (
(348,-8,o),
(388,31,o),
(404,65,c),
(422,65,l),
(422,0,l),
(546,0,l),
(546,496,l),
(420,496,l),
(420,244,ls),
(420,152,o),
(375,98,o),
(298,98,cs),
(230,98,o),
(192,135,o),
(192,210,cs),
(192,496,l),
(66,496,l),
(66,200,ls),
(66,77,o),
(143,-8,o),
(259,-8,cs)
);
}
);
width = 616;
},
{
anchors = (
{
name = bottom;
pos = (295,0);
},
{
name = horn;
pos = (523,486);
},
{
name = ogonek;
pos = (493,0);
},
{
name = top;
pos = (302,486);
}
);
background = {
anchors = (
{
name = bottom;
pos = (295,0);
},
{
name = horn;
pos = (523,486);
},
{
name = ogonek;
pos = (493,0);
},
{
name = top;
pos = (302,486);
}
);
shapes = (
{
closed = 1;
nodes = (
(379,-10,o),
(429,38,o),
(453,90,c),
(465,90,l),
(465,0,l),
(523,0,l),
(523,486,l),
(463,486,l),
(463,243,ls),
(463,110,o),
(388,44,o),
(288,44,cs),
(199,44,o),
(141,88,o),
(141,194,cs),
(141,486,l),
(81,486,l),
(81,190,ls),
(81,56,o),
(170,-10,o),
(275,-10,cs)
);
}
);
};
layerId = "CEFBB1E5-951F-4065-926E-8B9137F837F5";
shapes = (
{
closed = 1;
nodes = (
(379,-10,o),
(429,38,o),
(453,90,c),
(465,90,l),
(465,0,l),
(523,0,l),
(523,486,l),
(463,486,l),
(463,243,ls),
(463,110,o),
(388,44,o),
(288,44,cs),
(199,44,o),
(141,88,o),
(141,194,cs),
(141,486,l),
(81,486,l),
(81,190,ls),
(81,56,o),
(170,-10,o),
(275,-10,cs)
);
}
);
width = 611;
}
);
metricRight = idotless;
note = u;
unicode = 117;
},
{
glyphname = v;
kernLeft = v;
kernRight = v;
lastChange = "2020-08-11 15:54:26 +0000";
layers = (
{
background = {
shapes = (
{
closed = 1;
nodes = (
(374,0,l),
(532,496,l),
(398,496,l),
(283,92,l),
(265,92,l),
(150,496,l),
(16,496,l),
(174,0,l)
);
}
);
};
layerId = "5117E3E8-E17C-4812-BAF5-9E7064564A59";
shapes = (
{
closed = 1;
nodes = (
(374,0,l),
(532,496,l),
(398,496,l),
(283,92,l),
(265,92,l),
(150,496,l),
(16,496,l),
(174,0,l)
);
}
);
width = 548;
},
{
background = {
shapes = (
{
closed = 1;
nodes = (
(316,0,l),
(498,486,l),
(434,486,l),
(274,46,l),
(262,46,l),
(102,486,l),
(38,486,l),
(220,0,l)
);
}
);
};
layerId = "CEFBB1E5-951F-4065-926E-8B9137F837F5";
shapes = (
{
closed = 1;
nodes = (
(316,0,l),
(498,486,l),
(434,486,l),
(274,46,l),
(262,46,l),
(102,486,l),
(38,486,l),
(220,0,l)
);
}
);
width = 536;
}
);
note = v;
unicode = 118;
},
{
glyphname = w;
kernLeft = w;
kernRight = w;
lastChange = "2020-08-11 15:54:35 +0000";
layers = (
{
anchors = (
{
name = top;
pos = (392,496);
}
);
background = {
anchors = (
{
name = top;
pos = (392,496);
}
);
shapes = (
{
closed = 1;
nodes = (
(319,0,l),
(383,411,l),
(401,411,l),
(465,0,l),
(674,0,l),
(744,496,l),
(619,496,l),
(575,85,l),
(557,85,l),
(493,496,l),
(291,496,l),
(227,85,l),
(209,85,l),
(165,496,l),
(40,496,l),
(110,0,l)
);
}
);
};
layerId = "5117E3E8-E17C-4812-BAF5-9E7064564A59";
shapes = (
{
closed = 1;
nodes = (
(319,0,l),
(383,411,l),
(401,411,l),
(465,0,l),
(674,0,l),
(744,496,l),
(619,496,l),
(575,85,l),
(557,85,l),
(493,496,l),
(291,496,l),
(227,85,l),
(209,85,l),
(165,496,l),
(40,496,l),
(110,0,l)
);
}
);
width = 784;
},
{
anchors = (
{
name = top;
pos = (404,486);
}
);
background = {
anchors = (
{
name = top;
pos = (404,486);
}
);
shapes = (
{
closed = 1;
nodes = (
(273,0,l),
(398,446,l),
(410,446,l),
(535,0,l),
(640,0,l),
(750,486,l),
(688,486,l),
(592,40,l),
(580,40,l),
(455,486,l),
(353,486,l),
(228,40,l),
(216,40,l),
(120,486,l),
(58,486,l),
(168,0,l)
);
}
);
};
layerId = "CEFBB1E5-951F-4065-926E-8B9137F837F5";
shapes = (
{
closed = 1;
nodes = (
(273,0,l),
(398,446,l),
(410,446,l),
(535,0,l),
(640,0,l),
(750,486,l),
(688,486,l),
(592,40,l),
(580,40,l),
(455,486,l),
(353,486,l),
(228,40,l),
(216,40,l),
(120,486,l),
(58,486,l),
(168,0,l)
);
}
);
width = 808;
}
);
note = w;
unicode = 119;
},
{
glyphname = x;
kernLeft = x;
kernRight = x;
lastChange = "2020-08-11 15:32:28 +0000";
layers = (
{
background = {
shapes = (
{
closed = 1;
nodes = (
(174,0,l),
(287,167,l),
(305,167,l),
(418,0,l),
(566,0,l),
(386,250,l),
(564,496,l),
(418,496,l),
(305,331,l),
(287,331,l),
(174,496,l),
(28,496,l),
(206,250,l),
(26,0,l)
);
}
);
};
layerId = "5117E3E8-E17C-4812-BAF5-9E7064564A59";
shapes = (
{
closed = 1;
nodes = (
(174,0,l),
(287,167,l),
(305,167,l),
(418,0,l),
(566,0,l),
(386,250,l),
(564,496,l),
(418,496,l),
(305,331,l),
(287,331,l),
(174,496,l),
(28,496,l),
(206,250,l),
(26,0,l)
);
}
);
width = 592;
},
{
background = {
shapes = (
{
closed = 1;
nodes = (
(126,0,l),
(291,207,l),
(303,207,l),
(468,0,l),
(544,0,l),
(341,247,l),
(537,486,l),
(462,486,l),
(303,287,l),
(291,287,l),
(132,486,l),
(57,486,l),
(253,247,l),
(50,0,l)
);
}
);
};
layerId = "CEFBB1E5-951F-4065-926E-8B9137F837F5";
shapes = (
{
closed = 1;
nodes = (
(126,0,l),
(291,207,l),
(303,207,l),
(468,0,l),
(544,0,l),
(341,247,l),
(537,486,l),
(462,486,l),
(303,287,l),
(291,287,l),
(132,486,l),
(57,486,l),
(253,247,l),
(50,0,l)
);
}
);
width = 594;
}
);
note = x;
unicode = 120;
},
{
glyphname = y;
kernLeft = u;
kernRight = u;
lastChange = "2020-08-10 18:19:29 +0000";
layers = (
{
anchors = (
{
name = bottom;
pos = (660,0);
},
{
name = top;
pos = (306,496);
}
);
background = {
anchors = (
{
name = bottom;
pos = (660,0);
},
{
name = top;
pos = (306,496);
}
);
shapes = (
{
closed = 1;
nodes = (
(348,-8,o),
(388,31,o),
(404,65,c),
(422,65,l),
(422,0,l),
(546,0,l),
(546,496,l),
(420,496,l),
(420,244,ls),
(420,152,o),
(375,98,o),
(298,98,cs),
(230,98,o),
(192,135,o),
(192,210,cs),
(192,496,l),
(66,496,l),
(66,200,ls),
(66,77,o),
(143,-8,o),
(259,-8,cs)
);
},
{
closed = 1;
nodes = (
(436,-200,ls),
(502,-200,o),
(546,-156,o),
(546,-88,cs),
(546,0,l),
(422,0,l),
(422,-60,ls),
(422,-80,o),
(412,-90,o),
(394,-90,cs),
(124,-90,l),
(124,-200,l)
);
}
);
};
layerId = "5117E3E8-E17C-4812-BAF5-9E7064564A59";
shapes = (
{
closed = 1;
nodes = (
(436,-200,ls),
(502,-200,o),
(546,-156,o),
(546,-88,cs),
(546,496,l),
(420,496,l),
(420,244,ls),
(420,152,o),
(375,98,o),
(298,98,cs),
(230,98,o),
(192,135,o),
(192,210,cs),
(192,496,l),
(66,496,l),
(66,200,ls),
(66,77,o),
(143,-8,o),
(259,-8,cs),
(348,-8,o),
(388,31,o),
(404,65,c),
(422,65,l),
(422,-60,ls),
(422,-80,o),
(412,-90,o),
(394,-90,cs),
(124,-90,l),
(124,-200,l)
);
}
);
width = 616;
},
{
anchors = (
{
name = top;
pos = (274,496);
}
);
associatedMasterId = "5117E3E8-E17C-4812-BAF5-9E7064564A59";
layerId = "9D0E3B52-0C7F-449D-9D20-01CA693A13A8";
name = "Sep 28 19, 01:54";
shapes = (
{
closed = 1;
nodes = (
(156,0,l),
(306,0,l),
(331,-200,l),
(544,496,l),
(408,496,l),
(280,40,l),
(268,40,l),
(140,496,l),
(4,496,l)
);
},
{
closed = 1;
nodes = (
(331,-200,l),
(544,496,l),
(408,496,l),
(280,40,l),
(264,0,l),
(195,-200,l)
);
}
);
width = 548;
},
{
anchors = (
{
name = bottom;
pos = (609,-42);
},
{
name = top;
pos = (303,486);
}
);
background = {
anchors = (
{
name = bottom;
pos = (609,-42);
},
{
name = top;
pos = (303,486);
}
);
shapes = (
{
closed = 1;
nodes = (
(379,-10,o),
(427,37,o),
(451,84,c),
(463,84,l),
(463,0,l),
(523,0,l),
(523,486,l),
(463,486,l),
(463,242,ls),
(463,109,o),
(388,44,o),
(288,44,cs),
(199,44,o),
(141,87,o),
(141,193,cs),
(141,486,l),
(81,486,l),
(81,189,ls),
(81,55,o),
(170,-10,o),
(275,-10,cs)
);
},
{
closed = 1;
nodes = (
(445,-200,ls),
(497,-200,o),
(523,-172,o),
(523,-124,cs),
(523,0,l),
(463,0,l),
(463,-116,ls),
(463,-136,o),
(455,-146,o),
(433,-146,cs),
(149,-146,l),
(149,-200,l)
);
}
);
};
layerId = "CEFBB1E5-951F-4065-926E-8B9137F837F5";
shapes = (
{
closed = 1;
nodes = (
(445,-200,ls),
(497,-200,o),
(523,-172,o),
(523,-124,cs),
(523,486,l),
(463,486,l),
(463,242,ls),
(463,109,o),
(388,44,o),
(288,44,cs),
(199,44,o),
(141,87,o),
(141,193,cs),
(141,486,l),
(81,486,l),
(81,189,ls),
(81,55,o),
(170,-10,o),
(275,-10,cs),
(379,-10,o),
(427,37,o),
(451,84,c),
(463,84,l),
(463,-116,ls),
(463,-136,o),
(455,-146,o),
(433,-146,cs),
(149,-146,l),
(149,-200,l)
);
}
);
width = 611;
}
);
metricLeft = u;
metricRight = u;
note = y;
unicode = 121;
},
{
glyphname = z;
kernLeft = z;
kernRight = z;
lastChange = "2020-08-11 15:27:37 +0000";
layers = (
{
anchors = (
{
name = bottom;
pos = (261,0);
},
{
name = top;
pos = (260,496);
}
);
background = {
anchors = (
{
name = bottom;
pos = (261,0);
},
{
name = top;
pos = (260,496);
}
);
shapes = (
{
closed = 1;
nodes = (
(470,0,l),
(470,104,l),
(190,104,l),
(190,120,l),
(462,346,l),
(462,496,l),
(62,496,l),
(62,392,l),
(324,392,l),
(324,376,l),
(52,150,l),
(52,0,l)
);
}
);
};
layerId = "5117E3E8-E17C-4812-BAF5-9E7064564A59";
shapes = (
{
closed = 1;
nodes = (
(470,0,l),
(470,104,l),
(190,104,l),
(190,120,l),
(462,346,l),
(462,496,l),
(62,496,l),
(62,392,l),
(324,392,l),
(324,376,l),
(52,150,l),
(52,0,l)
);
}
);
width = 518;
},
{
anchors = (
{
name = bottom;
pos = (262,0);
},
{
name = top;
pos = (253,486);
}
);
background = {
anchors = (
{
name = bottom;
pos = (262,0);
},
{
name = top;
pos = (253,486);
}
);
shapes = (
{
closed = 1;
nodes = (
(460,0,l),
(460,54,l),
(124,54,l),
(124,64,l),
(452,404,l),
(452,486,l),
(74,486,l),
(74,432,l),
(391,432,l),
(391,422,l),
(64,82,l),
(64,0,l)
);
}
);
};
layerId = "CEFBB1E5-951F-4065-926E-8B9137F837F5";
shapes = (
{
closed = 1;
nodes = (
(460,0,l),
(460,54,l),
(124,54,l),
(124,64,l),
(452,404,l),
(452,486,l),
(74,486,l),
(74,432,l),
(391,432,l),
(391,422,l),
(64,82,l),
(64,0,l)
);
}
);
width = 522;
}
);
note = z;
unicode = 122;
},
{
glyphname = zero;
kernLeft = zero;
kernRight = zero;
lastChange = "2020-08-10 18:12:01 +0000";
layers = (
{
background = {
shapes = (
{
closed = 1;
nodes = (
(490,-14,o),
(598,76,o),
(598,262,cs),
(598,438,ls),
(598,618,o),
(490,714,o),
(324,714,cs),
(158,714,o),
(50,618,o),
(50,438,cs),
(50,262,ls),
(50,76,o),
(158,-14,o),
(324,-14,cs)
);
},
{
closed = 1;
nodes = (
(227,100,o),
(178,153,o),
(178,258,cs),
(178,444,ls),
(178,543,o),
(232,600,o),
(324,600,cs),
(413,600,o),
(470,547,o),
(470,444,cs),
(470,258,ls),
(470,157,o),
(424,100,o),
(324,100,cs)
);
}
);
};
layerId = "5117E3E8-E17C-4812-BAF5-9E7064564A59";
shapes = (
{
closed = 1;
nodes = (
(490,-14,o),
(598,76,o),
(598,262,cs),
(598,438,ls),
(598,618,o),
(490,714,o),
(324,714,cs),
(158,714,o),
(50,618,o),
(50,438,cs),
(50,262,ls),
(50,76,o),
(158,-14,o),
(324,-14,cs)
);
},
{
closed = 1;
nodes = (
(227,100,o),
(178,153,o),
(178,258,cs),
(178,444,ls),
(178,543,o),
(232,600,o),
(324,600,cs),
(413,600,o),
(470,547,o),
(470,444,cs),
(470,258,ls),
(470,157,o),
(424,100,o),
(324,100,cs)
);
}
);
width = 648;
},
{
background = {
shapes = (
{
closed = 1;
nodes = (
(476,-14,o),
(574,82,o),
(574,270,cs),
(574,430,ls),
(574,618,o),
(476,714,o),
(319,714,cs),
(162,714,o),
(64,618,o),
(64,430,cs),
(64,270,ls),
(64,82,o),
(162,-14,o),
(319,-14,cs)
);
},
{
closed = 1;
nodes = (
(191,42,o),
(126,126,o),
(126,266,cs),
(126,434,ls),
(126,574,o),
(191,658,o),
(319,658,cs),
(447,658,o),
(512,574,o),
(512,434,cs),
(512,266,ls),
(512,126,o),
(447,42,o),
(319,42,cs)
);
}
);
};
layerId = "CEFBB1E5-951F-4065-926E-8B9137F837F5";
shapes = (
{
closed = 1;
nodes = (
(476,-14,o),
(574,82,o),
(574,270,cs),
(574,430,ls),
(574,618,o),
(476,714,o),
(319,714,cs),
(162,714,o),
(64,618,o),
(64,430,cs),
(64,270,ls),
(64,82,o),
(162,-14,o),
(319,-14,cs)
);
},
{
closed = 1;
nodes = (
(191,42,o),
(126,126,o),
(126,266,cs),
(126,434,ls),
(126,574,o),
(191,658,o),
(319,658,cs),
(447,658,o),
(512,574,o),
(512,434,cs),
(512,266,ls),
(512,126,o),
(447,42,o),
(319,42,cs)
);
}
);
width = 638;
}
);
metricLeft = O;
metricRight = O;
note = zero;
unicode = 48;
},
{
glyphname = one;
kernLeft = one;
kernRight = one;
lastChange = "2020-08-10 18:12:01 +0000";
layers = (
{
background = {
shapes = (
{
closed = 1;
nodes = (
(386,0,l),
(386,700,l),
(155,700,l),
(12,384,l),
(146,384,l),
(240,606,l),
(258,606,l),
(258,0,l)
);
}
);
};
layerId = "5117E3E8-E17C-4812-BAF5-9E7064564A59";
shapes = (
{
closed = 1;
nodes = (
(386,0,l),
(386,700,l),
(155,700,l),
(12,384,l),
(146,384,l),
(240,606,l),
(258,606,l),
(258,0,l)
);
}
);
width = 452;
},
{
background = {
shapes = (
{
closed = 1;
nodes = (
(318,0,l),
(318,700,l),
(197,700,l),
(20,402,l),
(90,402,l),
(243,662,l),
(256,662,l),
(256,0,l)
);
}
);
};
layerId = "CEFBB1E5-951F-4065-926E-8B9137F837F5";
shapes = (
{
closed = 1;
nodes = (
(318,0,l),
(318,700,l),
(197,700,l),
(20,402,l),
(90,402,l),
(243,662,l),
(256,662,l),
(256,0,l)
);
}
);
width = 404;
}
);
metricRight = I;
note = one;
unicode = 49;
},
{
glyphname = two;
kernLeft = two;
kernRight = two;
lastChange = "2020-08-11 15:34:47 +0000";
layers = (
{
background = {
shapes = (
{
closed = 1;
nodes = (
(550,0,l),
(550,114,l),
(173,114,l),
(173,118,ls),
(173,169,o),
(197,198,o),
(283,225,cs),
(347,245,ls),
(466,282,o),
(556,348,o),
(556,483,cs),
(556,493,ls),
(556,627,o),
(445,714,o),
(301,714,cs),
(157,714,o),
(44,627,o),
(44,476,cs),
(44,460,l),
(172,460,l),
(172,478,ls),
(172,557,o),
(223,600,o),
(301,600,cs),
(379,600,o),
(428,557,o),
(428,491,cs),
(428,487,ls),
(428,423,o),
(387,381,o),
(314,358,cs),
(247,337,ls),
(115,296,o),
(42,230,o),
(42,84,cs),
(42,0,l)
);
}
);
};
layerId = "5117E3E8-E17C-4812-BAF5-9E7064564A59";
shapes = (
{
closed = 1;
nodes = (
(550,0,l),
(550,114,l),
(173,114,l),
(173,118,ls),
(173,169,o),
(197,198,o),
(283,225,cs),
(347,245,ls),
(466,282,o),
(556,348,o),
(556,483,cs),
(556,493,ls),
(556,627,o),
(445,714,o),
(301,714,cs),
(157,714,o),
(44,627,o),
(44,476,cs),
(44,460,l),
(172,460,l),
(172,478,ls),
(172,557,o),
(223,600,o),
(301,600,cs),
(379,600,o),
(428,557,o),
(428,491,cs),
(428,487,ls),
(428,423,o),
(387,381,o),
(314,358,cs),
(247,337,ls),
(115,296,o),
(42,230,o),
(42,84,cs),
(42,0,l)
);
}
);
width = 594;
},
{
background = {
shapes = (
{
closed = 1;
nodes = (
(547,0,l),
(547,56,l),
(120,56,l),
(120,79,ls),
(120,187,o),
(181,214,o),
(289,248,cs),
(339,263,ls),
(469,304,o),
(553,358,o),
(553,494,cs),
(553,503,ls),
(553,629,o),
(456,714,o),
(312,714,cs),
(168,714,o),
(63,630,o),
(63,478,cs),
(63,465,l),
(123,465,l),
(123,478,ls),
(123,599,o),
(201,658,o),
(312,658,cs),
(416,658,o),
(491,598,o),
(491,501,cs),
(491,497,ls),
(491,392,o),
(423,349,o),
(325,319,cs),
(275,303,ls),
(143,262,o),
(58,219,o),
(58,69,cs),
(58,0,l)
);
}
);
};
layerId = "CEFBB1E5-951F-4065-926E-8B9137F837F5";
shapes = (
{
closed = 1;
nodes = (
(547,0,l),
(547,56,l),
(120,56,l),
(120,79,ls),
(120,187,o),
(181,214,o),
(289,248,cs),
(339,263,ls),
(469,304,o),
(553,358,o),
(553,494,cs),
(553,503,ls),
(553,629,o),
(456,714,o),
(312,714,cs),
(168,714,o),
(63,630,o),
(63,478,cs),
(63,465,l),
(123,465,l),
(123,478,ls),
(123,599,o),
(201,658,o),
(312,658,cs),
(416,658,o),
(491,598,o),
(491,501,cs),
(491,497,ls),
(491,392,o),
(423,349,o),
(325,319,cs),
(275,303,ls),
(143,262,o),
(58,219,o),
(58,69,cs),
(58,0,l)
);
}
);
width = 606;
}
);
note = two;
unicode = 50;
},
{
glyphname = three;
kernLeft = three;
kernRight = three;
lastChange = "2020-08-11 15:41:46 +0000";
layers = (
{
background = {
shapes = (
{
closed = 1;
nodes = (
(462,-14,o),
(568,73,o),
(568,210,cs),
(568,222,ls),
(568,348,o),
(467,402,o),
(374,402,cs),
(337,402,l),
(337,418,l),
(548,530,l),
(548,700,l),
(52,700,l),
(52,586,l),
(406,586,l),
(406,570,l),
(180,450,l),
(180,310,l),
(320,310,ls),
(388,310,o),
(440,283,o),
(440,219,cs),
(440,209,ls),
(440,146,o),
(390,100,o),
(304,100,cs),
(218,100,o),
(162,148,o),
(162,223,cs),
(162,237,l),
(34,237,l),
(34,219,ls),
(34,75,o),
(146,-14,o),
(304,-14,cs)
);
}
);
};
layerId = "5117E3E8-E17C-4812-BAF5-9E7064564A59";
shapes = (
{
closed = 1;
nodes = (
(462,-14,o),
(568,73,o),
(568,210,cs),
(568,222,ls),
(568,348,o),
(467,402,o),
(374,402,cs),
(337,402,l),
(337,418,l),
(548,530,l),
(548,700,l),
(52,700,l),
(52,586,l),
(406,586,l),
(406,570,l),
(180,450,l),
(180,310,l),
(320,310,ls),
(388,310,o),
(440,283,o),
(440,219,cs),
(440,209,ls),
(440,146,o),
(390,100,o),
(304,100,cs),
(218,100,o),
(162,148,o),
(162,223,cs),
(162,237,l),
(34,237,l),
(34,219,ls),
(34,75,o),
(146,-14,o),
(304,-14,cs)
);
}
);
width = 608;
},
{
background = {
shapes = (
{
closed = 1;
nodes = (
(451,-14,o),
(547,72,o),
(547,202,cs),
(547,212,ls),
(547,341,o),
(449,409,o),
(320,409,cs),
(265,409,l),
(265,419,l),
(546,610,l),
(546,700,l),
(66,700,l),
(66,644,l),
(484,644,l),
(484,634,l),
(200,441,l),
(200,357,l),
(303,357,ls),
(403,357,o),
(485,313,o),
(485,210,cs),
(485,204,ls),
(485,111,o),
(417,42,o),
(303,42,cs),
(189,42,o),
(112,111,o),
(112,224,cs),
(112,244,l),
(50,244,l),
(50,225,ls),
(50,72,o),
(156,-14,o),
(303,-14,cs)
);
}
);
};
layerId = "CEFBB1E5-951F-4065-926E-8B9137F837F5";
shapes = (
{
closed = 1;
nodes = (
(451,-14,o),
(547,72,o),
(547,202,cs),
(547,212,ls),
(547,341,o),
(449,409,o),
(320,409,cs),
(265,409,l),
(265,419,l),
(546,610,l),
(546,700,l),
(66,700,l),
(66,644,l),
(484,644,l),
(484,634,l),
(200,441,l),
(200,357,l),
(303,357,ls),
(403,357,o),
(485,313,o),
(485,210,cs),
(485,204,ls),
(485,111,o),
(417,42,o),
(303,42,cs),
(189,42,o),
(112,111,o),
(112,224,cs),
(112,244,l),
(50,244,l),
(50,225,ls),
(50,72,o),
(156,-14,o),
(303,-14,cs)
);
}
);
width = 603;
}
);
note = three;
unicode = 51;
},
{
glyphname = four;
kernLeft = four;
kernRight = four;
lastChange = "2020-08-11 15:34:20 +0000";
layers = (
{
background = {
shapes = (
{
closed = 1;
nodes = (
(498,0,l),
(498,142,l),
(614,142,l),
(614,256,l),
(498,256,l),
(498,700,l),
(268,700,l),
(26,290,l),
(26,142,l),
(370,142,l),
(370,0,l)
);
},
{
closed = 1;
nodes = (
(148,272,l),
(352,618,l),
(370,618,l),
(370,256,l),
(148,256,l)
);
}
);
};
layerId = "5117E3E8-E17C-4812-BAF5-9E7064564A59";
shapes = (
{
closed = 1;
nodes = (
(498,0,l),
(498,142,l),
(614,142,l),
(614,256,l),
(498,256,l),
(498,700,l),
(268,700,l),
(26,290,l),
(26,142,l),
(370,142,l),
(370,0,l)
);
},
{
closed = 1;
nodes = (
(148,272,l),
(352,618,l),
(370,618,l),
(370,256,l),
(148,256,l)
);
}
);
width = 636;
},
{
background = {
shapes = (
{
closed = 1;
nodes = (
(470,0,l),
(470,144,l),
(592,144,l),
(592,200,l),
(470,200,l),
(470,700,l),
(350,700,l),
(34,218,l),
(34,144,l),
(408,144,l),
(408,0,l)
);
},
{
closed = 1;
nodes = (
(99,210,l),
(396,664,l),
(408,664,l),
(408,200,l),
(99,200,l)
);
}
);
};
layerId = "CEFBB1E5-951F-4065-926E-8B9137F837F5";
shapes = (
{
closed = 1;
nodes = (
(470,0,l),
(470,144,l),
(592,144,l),
(592,200,l),
(470,200,l),
(470,700,l),
(350,700,l),
(34,218,l),
(34,144,l),
(408,144,l),
(408,0,l)
);
},
{
closed = 1;
nodes = (
(99,210,l),
(396,664,l),
(408,664,l),
(408,200,l),
(99,200,l)
);
}
);
width = 620;
}
);
note = four;
unicode = 52;
},
{
glyphname = five;
kernLeft = five;
kernRight = five;
lastChange = "2020-08-10 18:12:01 +0000";
layers = (
{
background = {
shapes = (
{
closed = 1;
nodes = (
(467,-14,o),
(566,79,o),
(566,227,cs),
(566,239,ls),
(566,386,o),
(464,466,o),
(341,466,cs),
(266,466,o),
(225,438,o),
(206,413,c),
(188,413,l),
(188,584,l),
(538,584,l),
(538,700,l),
(60,700,l),
(60,308,l),
(215,308,l),
(230,332,o),
(256,360,o),
(314,360,cs),
(385,360,o),
(438,312,o),
(438,238,cs),
(438,228,ls),
(438,152,o),
(389,100,o),
(301,100,cs),
(213,100,o),
(168,154,o),
(168,221,cs),
(168,230,l),
(38,230,l),
(38,220,ls),
(38,79,o),
(139,-14,o),
(303,-14,cs)
);
}
);
};
layerId = "5117E3E8-E17C-4812-BAF5-9E7064564A59";
shapes = (
{
closed = 1;
nodes = (
(467,-14,o),
(566,79,o),
(566,227,cs),
(566,239,ls),
(566,386,o),
(464,466,o),
(341,466,cs),
(266,466,o),
(225,438,o),
(206,413,c),
(188,413,l),
(188,584,l),
(538,584,l),
(538,700,l),
(60,700,l),
(60,308,l),
(215,308,l),
(230,332,o),
(256,360,o),
(314,360,cs),
(385,360,o),
(438,312,o),
(438,238,cs),
(438,228,ls),
(438,152,o),
(389,100,o),
(301,100,cs),
(213,100,o),
(168,154,o),
(168,221,cs),
(168,230,l),
(38,230,l),
(38,220,ls),
(38,79,o),
(139,-14,o),
(303,-14,cs)
);
}
);
width = 600;
},
{
background = {
shapes = (
{
closed = 1;
nodes = (
(452,-14,o),
(545,86,o),
(545,226,cs),
(545,236,ls),
(545,380,o),
(449,470,o),
(328,470,cs),
(222,470,o),
(172,418,o),
(151,373,c),
(139,373,l),
(139,644,l),
(529,644,l),
(529,700,l),
(77,700,l),
(77,327,l),
(169,327,l),
(188,364,o),
(225,416,o),
(314,416,cs),
(415,416,o),
(483,346,o),
(483,235,cs),
(483,227,ls),
(483,111,o),
(414,42,o),
(300,42,cs),
(193,42,o),
(118,102,o),
(118,222,cs),
(118,232,l),
(56,232,l),
(56,219,ls),
(56,80,o),
(153,-14,o),
(301,-14,cs)
);
}
);
};
layerId = "CEFBB1E5-951F-4065-926E-8B9137F837F5";
shapes = (
{
closed = 1;
nodes = (
(452,-14,o),
(545,86,o),
(545,226,cs),
(545,236,ls),
(545,380,o),
(449,470,o),
(328,470,cs),
(222,470,o),
(172,418,o),
(151,373,c),
(139,373,l),
(139,644,l),
(529,644,l),
(529,700,l),
(77,700,l),
(77,327,l),
(169,327,l),
(188,364,o),
(225,416,o),
(314,416,cs),
(415,416,o),
(483,346,o),
(483,235,cs),
(483,227,ls),
(483,111,o),
(414,42,o),
(300,42,cs),
(193,42,o),
(118,102,o),
(118,222,cs),
(118,232,l),
(56,232,l),
(56,219,ls),
(56,80,o),
(153,-14,o),
(301,-14,cs)
);
}
);
width = 598;
}
);
note = five;
unicode = 53;
},
{
glyphname = six;
kernLeft = six;
kernRight = six;
lastChange = "2020-08-10 18:12:01 +0000";
layers = (
{
background = {
shapes = (
{
closed = 1;
nodes = (
(472,-14,o),
(578,80,o),
(578,219,cs),
(578,231,ls),
(578,371,o),
(471,452,o),
(350,452,cs),
(260,452,o),
(219,423,o),
(196,396,c),
(178,396,l),
(178,468,ls),
(178,550,o),
(228,600,o),
(318,600,cs),
(408,600,o),
(444,552,o),
(444,496,c),
(574,496,l),
(574,632,o),
(474,714,o),
(318,714,cs),
(162,714,o),
(50,630,o),
(50,460,cs),
(50,221,ls),
(50,83,o),
(152,-14,o),
(312,-14,cs)
);
},
{
closed = 1;
nodes = (
(230,100,o),
(178,147,o),
(178,221,cs),
(178,229,ls),
(178,303,o),
(231,350,o),
(314,350,cs),
(397,350,o),
(450,303,o),
(450,229,cs),
(450,221,ls),
(450,147,o),
(398,100,o),
(314,100,cs)
);
}
);
};
layerId = "5117E3E8-E17C-4812-BAF5-9E7064564A59";
shapes = (
{
closed = 1;
nodes = (
(472,-14,o),
(578,80,o),
(578,219,cs),
(578,231,ls),
(578,371,o),
(471,452,o),
(350,452,cs),
(260,452,o),
(219,423,o),
(196,396,c),
(178,396,l),
(178,468,ls),
(178,550,o),
(228,600,o),
(318,600,cs),
(408,600,o),
(444,552,o),
(444,496,c),
(574,496,l),
(574,632,o),
(474,714,o),
(318,714,cs),
(162,714,o),
(50,630,o),
(50,460,cs),
(50,221,ls),
(50,83,o),
(152,-14,o),
(312,-14,cs)
);
},
{
closed = 1;
nodes = (
(230,100,o),
(178,147,o),
(178,221,cs),
(178,229,ls),
(178,303,o),
(231,350,o),
(314,350,cs),
(397,350,o),
(450,303,o),
(450,229,cs),
(450,221,ls),
(450,147,o),
(398,100,o),
(314,100,cs)
);
}
);
width = 618;
},
{
background = {
shapes = (
{
closed = 1;
nodes = (
(447,-14,o),
(554,74,o),
(554,217,cs),
(554,229,ls),
(554,370,o),
(453,460,o),
(324,460,cs),
(220,460,o),
(163,414,o),
(138,369,c),
(126,369,l),
(126,476,ls),
(126,589,o),
(193,658,o),
(311,658,cs),
(425,658,o),
(486,597,o),
(486,505,c),
(548,505,l),
(548,622,o),
(465,714,o),
(311,714,cs),
(155,714,o),
(64,620,o),
(64,469,cs),
(64,222,ls),
(64,73,o),
(170,-14,o),
(309,-14,cs)
);
},
{
closed = 1;
nodes = (
(201,42,o),
(126,109,o),
(126,218,cs),
(126,226,ls),
(126,335,o),
(202,406,o),
(309,406,cs),
(416,406,o),
(492,335,o),
(492,226,cs),
(492,218,ls),
(492,109,o),
(417,42,o),
(309,42,cs)
);
}
);
};
layerId = "CEFBB1E5-951F-4065-926E-8B9137F837F5";
shapes = (
{
closed = 1;
nodes = (
(447,-14,o),
(554,74,o),
(554,217,cs),
(554,229,ls),
(554,370,o),
(453,460,o),
(324,460,cs),
(220,460,o),
(163,414,o),
(138,369,c),
(126,369,l),
(126,476,ls),
(126,589,o),
(193,658,o),
(311,658,cs),
(425,658,o),
(486,597,o),
(486,505,c),
(548,505,l),
(548,622,o),
(465,714,o),
(311,714,cs),
(155,714,o),
(64,620,o),
(64,469,cs),
(64,222,ls),
(64,73,o),
(170,-14,o),
(309,-14,cs)
);
},
{
closed = 1;
nodes = (
(201,42,o),
(126,109,o),
(126,218,cs),
(126,226,ls),
(126,335,o),
(202,406,o),
(309,406,cs),
(416,406,o),
(492,335,o),
(492,226,cs),
(492,218,ls),
(492,109,o),
(417,42,o),
(309,42,cs)
);
}
);
width = 610;
}
);
metricLeft = O;
note = six;
unicode = 54;
},
{
glyphname = seven;
kernLeft = seven;
kernRight = seven;
lastChange = "2020-08-10 18:12:01 +0000";
layers = (
{
background = {
shapes = (
{
closed = 1;
nodes = (
(259,0,l),
(259,20,ls),
(259,55,o),
(265,74,o),
(282,105,cs),
(530,548,l),
(530,700,l),
(26,700,l),
(26,586,l),
(398,586,l),
(398,570,l),
(163,155,ls),
(136,108,o),
(131,78,o),
(131,26,cs),
(131,0,l)
);
}
);
};
layerId = "5117E3E8-E17C-4812-BAF5-9E7064564A59";
shapes = (
{
closed = 1;
nodes = (
(259,0,l),
(259,20,ls),
(259,55,o),
(265,74,o),
(282,105,cs),
(530,548,l),
(530,700,l),
(26,700,l),
(26,586,l),
(398,586,l),
(398,570,l),
(163,155,ls),
(136,108,o),
(131,78,o),
(131,26,cs),
(131,0,l)
);
}
);
width = 554;
},
{
background = {
shapes = (
{
closed = 1;
nodes = (
(222,0,l),
(222,24,ls),
(222,59,o),
(227,76,o),
(242,103,cs),
(534,627,l),
(534,700,l),
(35,700,l),
(35,644,l),
(468,644,l),
(468,635,l),
(189,135,ls),
(166,92,o),
(160,69,o),
(160,24,cs),
(160,0,l)
);
}
);
};
layerId = "CEFBB1E5-951F-4065-926E-8B9137F837F5";
shapes = (
{
closed = 1;
nodes = (
(222,0,l),
(222,24,ls),
(222,59,o),
(227,76,o),
(242,103,cs),
(534,627,l),
(534,700,l),
(35,700,l),
(35,644,l),
(468,644,l),
(468,635,l),
(189,135,ls),
(166,92,o),
(160,69,o),
(160,24,cs),
(160,0,l)
);
}
);
width = 568;
}
);
note = seven;
unicode = 55;
},
{
glyphname = eight;
kernLeft = eight;
kernRight = eight;
lastChange = "2020-08-11 15:39:20 +0000";
layers = (
{
background = {
shapes = (
{
closed = 1;
nodes = (
(460,-14,o),
(572,62,o),
(572,187,cs),
(572,199,ls),
(572,294,o),
(511,339,o),
(464,353,c),
(464,371,l),
(511,387,o),
(562,432,o),
(562,517,cs),
(562,529,ls),
(562,638,o),
(458,714,o),
(300,714,cs),
(142,714,o),
(38,638,o),
(38,529,cs),
(38,517,ls),
(38,432,o),
(89,387,o),
(136,371,c),
(136,353,l),
(89,339,o),
(28,294,o),
(28,199,cs),
(28,187,ls),
(28,62,o),
(140,-14,o),
(300,-14,cs)
);
},
{
closed = 1;
nodes = (
(208,100,o),
(156,138,o),
(156,197,cs),
(156,205,ls),
(156,264,o),
(206,302,o),
(300,302,cs),
(394,302,o),
(444,264,o),
(444,205,cs),
(444,197,ls),
(444,138,o),
(392,100,o),
(300,100,cs)
);
},
{
closed = 1;
nodes = (
(215,416,o),
(166,448,o),
(166,504,cs),
(166,512,ls),
(166,568,o),
(217,600,o),
(300,600,cs),
(383,600,o),
(434,568,o),
(434,512,cs),
(434,504,ls),
(434,448,o),
(385,416,o),
(300,416,cs)
);
}
);
};
layerId = "5117E3E8-E17C-4812-BAF5-9E7064564A59";
shapes = (
{
closed = 1;
nodes = (
(460,-14,o),
(572,62,o),
(572,187,cs),
(572,199,ls),
(572,294,o),
(511,339,o),
(464,353,c),
(464,371,l),
(511,387,o),
(562,432,o),
(562,517,cs),
(562,529,ls),
(562,638,o),
(458,714,o),
(300,714,cs),
(142,714,o),
(38,638,o),
(38,529,cs),
(38,517,ls),
(38,432,o),
(89,387,o),
(136,371,c),
(136,353,l),
(89,339,o),
(28,294,o),
(28,199,cs),
(28,187,ls),
(28,62,o),
(140,-14,o),
(300,-14,cs)
);
},
{
closed = 1;
nodes = (
(208,100,o),
(156,138,o),
(156,197,cs),
(156,205,ls),
(156,264,o),
(206,302,o),
(300,302,cs),
(394,302,o),
(444,264,o),
(444,205,cs),
(444,197,ls),
(444,138,o),
(392,100,o),
(300,100,cs)
);
},
{
closed = 1;
nodes = (
(215,416,o),
(166,448,o),
(166,504,cs),
(166,512,ls),
(166,568,o),
(217,600,o),
(300,600,cs),
(383,600,o),
(434,568,o),
(434,512,cs),
(434,504,ls),
(434,448,o),
(385,416,o),
(300,416,cs)
);
}
);
width = 600;
},
{
background = {
shapes = (
{
closed = 1;
nodes = (
(479,-14,o),
(578,65,o),
(578,183,cs),
(578,193,ls),
(578,301,o),
(493,349,o),
(434,358,c),
(434,370,l),
(493,384,o),
(564,430,o),
(564,523,cs),
(564,533,ls),
(564,648,o),
(458,714,o),
(316,714,cs),
(174,714,o),
(68,648,o),
(68,533,cs),
(68,523,ls),
(68,430,o),
(139,384,o),
(198,370,c),
(198,358,l),
(139,349,o),
(54,301,o),
(54,193,cs),
(54,183,ls),
(54,65,o),
(152,-14,o),
(316,-14,cs)
);
},
{
closed = 1;
nodes = (
(195,42,o),
(116,90,o),
(116,184,cs),
(116,192,ls),
(116,286,o),
(194,334,o),
(316,334,cs),
(437,334,o),
(516,286,o),
(516,192,cs),
(516,184,ls),
(516,90,o),
(437,42,o),
(316,42,cs)
);
},
{
closed = 1;
nodes = (
(201,390,o),
(130,437,o),
(130,520,cs),
(130,528,ls),
(130,611,o),
(201,658,o),
(316,658,cs),
(431,658,o),
(502,611,o),
(502,528,cs),
(502,520,ls),
(502,437,o),
(431,390,o),
(316,390,cs)
);
}
);
};
layerId = "CEFBB1E5-951F-4065-926E-8B9137F837F5";
shapes = (
{
closed = 1;
nodes = (
(479,-14,o),
(578,65,o),
(578,183,cs),
(578,193,ls),
(578,301,o),
(493,349,o),
(434,358,c),
(434,370,l),
(493,384,o),
(564,430,o),
(564,523,cs),
(564,533,ls),
(564,648,o),
(458,714,o),
(316,714,cs),
(174,714,o),
(68,648,o),
(68,533,cs),
(68,523,ls),
(68,430,o),
(139,384,o),
(198,370,c),
(198,358,l),
(139,349,o),
(54,301,o),
(54,193,cs),
(54,183,ls),
(54,65,o),
(152,-14,o),
(316,-14,cs)
);
},
{
closed = 1;
nodes = (
(195,42,o),
(116,90,o),
(116,184,cs),
(116,192,ls),
(116,286,o),
(194,334,o),
(316,334,cs),
(437,334,o),
(516,286,o),
(516,192,cs),
(516,184,ls),
(516,90,o),
(437,42,o),
(316,42,cs)
);
},
{
closed = 1;
nodes = (
(201,390,o),
(130,437,o),
(130,520,cs),
(130,528,ls),
(130,611,o),
(201,658,o),
(316,658,cs),
(431,658,o),
(502,611,o),
(502,528,cs),
(502,520,ls),
(502,437,o),
(431,390,o),
(316,390,cs)
);
}
);
width = 632;
}
);
note = eight;
unicode = 56;
},
{
glyphname = nine;
kernLeft = nine;
kernRight = nine;
lastChange = "2020-08-11 15:39:34 +0000";
layers = (
{
background = {
shapes = (
{
closed = 1;
nodes = (
(456,-14,o),
(568,70,o),
(568,240,cs),
(568,479,ls),
(568,617,o),
(466,714,o),
(306,714,cs),
(146,714,o),
(40,620,o),
(40,481,cs),
(40,469,ls),
(40,329,o),
(147,248,o),
(268,248,cs),
(358,248,o),
(399,277,o),
(422,304,c),
(440,304,l),
(440,232,ls),
(440,150,o),
(390,100,o),
(300,100,cs),
(210,100,o),
(174,148,o),
(174,204,c),
(44,204,l),
(44,68,o),
(144,-14,o),
(300,-14,cs)
);
},
{
closed = 1;
nodes = (
(221,350,o),
(168,397,o),
(168,471,cs),
(168,479,ls),
(168,553,o),
(220,600,o),
(304,600,cs),
(388,600,o),
(440,553,o),
(440,479,cs),
(440,471,ls),
(440,397,o),
(387,350,o),
(304,350,cs)
);
}
);
};
layerId = "5117E3E8-E17C-4812-BAF5-9E7064564A59";
shapes = (
{
closed = 1;
nodes = (
(456,-14,o),
(568,70,o),
(568,240,cs),
(568,479,ls),
(568,617,o),
(466,714,o),
(306,714,cs),
(146,714,o),
(40,620,o),
(40,481,cs),
(40,469,ls),
(40,329,o),
(147,248,o),
(268,248,cs),
(358,248,o),
(399,277,o),
(422,304,c),
(440,304,l),
(440,232,ls),
(440,150,o),
(390,100,o),
(300,100,cs),
(210,100,o),
(174,148,o),
(174,204,c),
(44,204,l),
(44,68,o),
(144,-14,o),
(300,-14,cs)
);
},
{
closed = 1;
nodes = (
(221,350,o),
(168,397,o),
(168,471,cs),
(168,479,ls),
(168,553,o),
(220,600,o),
(304,600,cs),
(388,600,o),
(440,553,o),
(440,479,cs),
(440,471,ls),
(440,397,o),
(387,350,o),
(304,350,cs)
);
}
);
width = 618;
},
{
background = {
shapes = (
{
closed = 1;
nodes = (
(455,-14,o),
(546,80,o),
(546,231,cs),
(546,478,ls),
(546,627,o),
(440,714,o),
(301,714,cs),
(163,714,o),
(56,626,o),
(56,483,cs),
(56,471,ls),
(56,330,o),
(157,240,o),
(286,240,cs),
(390,240,o),
(447,286,o),
(472,331,c),
(484,331,l),
(484,224,ls),
(484,111,o),
(417,42,o),
(299,42,cs),
(185,42,o),
(124,103,o),
(124,195,c),
(62,195,l),
(62,78,o),
(145,-14,o),
(299,-14,cs)
);
},
{
closed = 1;
nodes = (
(194,294,o),
(118,365,o),
(118,474,cs),
(118,482,ls),
(118,591,o),
(193,658,o),
(301,658,cs),
(409,658,o),
(484,591,o),
(484,482,cs),
(484,474,ls),
(484,365,o),
(408,294,o),
(301,294,cs)
);
}
);
};
layerId = "CEFBB1E5-951F-4065-926E-8B9137F837F5";
shapes = (
{
closed = 1;
nodes = (
(455,-14,o),
(546,80,o),
(546,231,cs),
(546,478,ls),
(546,627,o),
(440,714,o),
(301,714,cs),
(163,714,o),
(56,626,o),
(56,483,cs),
(56,471,ls),
(56,330,o),
(157,240,o),
(286,240,cs),
(390,240,o),
(447,286,o),
(472,331,c),
(484,331,l),
(484,224,ls),
(484,111,o),
(417,42,o),
(299,42,cs),
(185,42,o),
(124,103,o),
(124,195,c),
(62,195,l),
(62,78,o),
(145,-14,o),
(299,-14,cs)
);
},
{
closed = 1;
nodes = (
(194,294,o),
(118,365,o),
(118,474,cs),
(118,482,ls),
(118,591,o),
(193,658,o),
(301,658,cs),
(409,658,o),
(484,591,o),
(484,482,cs),
(484,474,ls),
(484,365,o),
(408,294,o),
(301,294,cs)
);
}
);
width = 610;
}
);
metricRight = O;
note = nine;
unicode = 57;
},
{
glyphname = bracketleft;
kernRight = bracketleft;
lastChange = "2020-08-10 18:12:01 +0000";
layers = (
{
background = {
shapes = (
{
closed = 1;
nodes = (
(342,-246,l),
(342,-138,l),
(219,-138,ls),
(201,-138,o),
(192,-128,o),
(192,-108,cs),
(192,618,ls),
(192,638,o),
(201,648,o),
(219,648,cs),
(342,648,l),
(342,756,l),
(172,756,ls),
(112,756,o),
(70,714,o),
(70,654,cs),
(70,-144,ls),
(70,-204,o),
(112,-246,o),
(172,-246,cs)
);
}
);
};
layerId = "5117E3E8-E17C-4812-BAF5-9E7064564A59";
shapes = (
{
closed = 1;
nodes = (
(342,-246,l),
(342,-138,l),
(219,-138,ls),
(201,-138,o),
(192,-128,o),
(192,-108,cs),
(192,618,ls),
(192,638,o),
(201,648,o),
(219,648,cs),
(342,648,l),
(342,756,l),
(172,756,ls),
(112,756,o),
(70,714,o),
(70,654,cs),
(70,-144,ls),
(70,-204,o),
(112,-246,o),
(172,-246,cs)
);
}
);
width = 358;
},
{
background = {
shapes = (
{
closed = 1;
nodes = (
(306,-230,l),
(306,-178,l),
(173,-178,ls),
(155,-178,o),
(146,-168,o),
(146,-148,cs),
(146,658,ls),
(146,678,o),
(155,688,o),
(173,688,cs),
(306,688,l),
(306,740,l),
(156,740,ls),
(116,740,o),
(88,710,o),
(88,671,cs),
(88,-161,ls),
(88,-200,o),
(116,-230,o),
(156,-230,cs)
);
}
);
};
layerId = "CEFBB1E5-951F-4065-926E-8B9137F837F5";
shapes = (
{
closed = 1;
nodes = (
(306,-230,l),
(306,-178,l),
(173,-178,ls),
(155,-178,o),
(146,-168,o),
(146,-148,cs),
(146,658,ls),
(146,678,o),
(155,688,o),
(173,688,cs),
(306,688,l),
(306,740,l),
(156,740,ls),
(116,740,o),
(88,710,o),
(88,671,cs),
(88,-161,ls),
(88,-200,o),
(116,-230,o),
(156,-230,cs)
);
}
);
width = 326;
}
);
metricLeft = l;
metricRight = braceleft;
note = bracketleft;
unicode = 91;
},
{
glyphname = bracketright;
kernLeft = bracketright;
lastChange = "2020-08-11 15:36:30 +0000";
layers = (
{
background = {
shapes = (
{
closed = 1;
nodes = (
(186,-246,ls),
(246,-246,o),
(288,-204,o),
(288,-144,cs),
(288,654,ls),
(288,714,o),
(246,756,o),
(186,756,cs),
(16,756,l),
(16,648,l),
(139,648,ls),
(157,648,o),
(166,638,o),
(166,618,cs),
(166,-108,ls),
(166,-128,o),
(157,-138,o),
(139,-138,cs),
(16,-138,l),
(16,-246,l)
);
}
);
};
layerId = "5117E3E8-E17C-4812-BAF5-9E7064564A59";
shapes = (
{
closed = 1;
nodes = (
(186,-246,ls),
(246,-246,o),
(288,-204,o),
(288,-144,cs),
(288,654,ls),
(288,714,o),
(246,756,o),
(186,756,cs),
(16,756,l),
(16,648,l),
(139,648,ls),
(157,648,o),
(166,638,o),
(166,618,cs),
(166,-108,ls),
(166,-128,o),
(157,-138,o),
(139,-138,cs),
(16,-138,l),
(16,-246,l)
);
}
);
width = 358;
},
{
background = {
shapes = (
{
closed = 1;
nodes = (
(170,-230,ls),
(210,-230,o),
(238,-200,o),
(238,-161,cs),
(238,671,ls),
(238,710,o),
(210,740,o),
(170,740,cs),
(20,740,l),
(20,688,l),
(153,688,ls),
(171,688,o),
(180,678,o),
(180,658,cs),
(180,-148,ls),
(180,-168,o),
(171,-178,o),
(153,-178,cs),
(20,-178,l),
(20,-230,l)
);
}
);
};
layerId = "CEFBB1E5-951F-4065-926E-8B9137F837F5";
shapes = (
{
closed = 1;
nodes = (
(170,-230,ls),
(210,-230,o),
(238,-200,o),
(238,-161,cs),
(238,671,ls),
(238,710,o),
(210,740,o),
(170,740,cs),
(20,740,l),
(20,688,l),
(153,688,ls),
(171,688,o),
(180,678,o),
(180,658,cs),
(180,-148,ls),
(180,-168,o),
(171,-178,o),
(153,-178,cs),
(20,-178,l),
(20,-230,l)
);
}
);
width = 326;
}
);
metricLeft = braceright;
metricRight = l;
note = bracketright;
unicode = 93;
},
{
glyphname = braceleft;
kernRight = bracketleft;
lastChange = "2020-08-10 18:12:01 +0000";
layers = (
{
background = {
shapes = (
{
closed = 1;
nodes = (
(450,-246,l),
(450,-138,l),
(327,-138,ls),
(309,-138,o),
(300,-128,o),
(300,-108,cs),
(300,166,ls),
(300,211,o),
(269,246,o),
(222,246,cs),
(206,246,l),
(206,264,l),
(222,264,ls),
(269,264,o),
(300,299,o),
(300,344,cs),
(300,618,ls),
(300,638,o),
(309,648,o),
(327,648,cs),
(450,648,l),
(450,756,l),
(280,756,ls),
(220,756,o),
(178,714,o),
(178,654,cs),
(178,344,ls),
(178,325,o),
(169,315,o),
(151,315,cs),
(36,315,l),
(36,195,l),
(151,195,ls),
(169,195,o),
(178,185,o),
(178,166,cs),
(178,-144,ls),
(178,-204,o),
(220,-246,o),
(280,-246,cs)
);
}
);
};
layerId = "5117E3E8-E17C-4812-BAF5-9E7064564A59";
shapes = (
{
closed = 1;
nodes = (
(450,-246,l),
(450,-138,l),
(327,-138,ls),
(309,-138,o),
(300,-128,o),
(300,-108,cs),
(300,166,ls),
(300,211,o),
(269,246,o),
(222,246,cs),
(206,246,l),
(206,264,l),
(222,264,ls),
(269,264,o),
(300,299,o),
(300,344,cs),
(300,618,ls),
(300,638,o),
(309,648,o),
(327,648,cs),
(450,648,l),
(450,756,l),
(280,756,ls),
(220,756,o),
(178,714,o),
(178,654,cs),
(178,344,ls),
(178,325,o),
(169,315,o),
(151,315,cs),
(36,315,l),
(36,195,l),
(151,195,ls),
(169,195,o),
(178,185,o),
(178,166,cs),
(178,-144,ls),
(178,-204,o),
(220,-246,o),
(280,-246,cs)
);
}
);
width = 466;
},
{
background = {
shapes = (
{
closed = 1;
nodes = (
(398,-230,l),
(398,-178,l),
(265,-178,ls),
(247,-178,o),
(238,-168,o),
(238,-148,cs),
(238,169,ls),
(238,218,o),
(213,249,o),
(165,249,cs),
(162,249,l),
(162,261,l),
(165,261,ls),
(213,261,o),
(238,292,o),
(238,341,cs),
(238,658,ls),
(238,678,o),
(247,688,o),
(265,688,cs),
(398,688,l),
(398,740,l),
(248,740,ls),
(209,740,o),
(180,710,o),
(180,671,cs),
(180,343,ls),
(180,304,o),
(159,284,o),
(115,284,cs),
(40,284,l),
(40,226,l),
(115,226,ls),
(159,226,o),
(180,206,o),
(180,167,cs),
(180,-161,ls),
(180,-200,o),
(209,-230,o),
(248,-230,cs)
);
}
);
};
layerId = "CEFBB1E5-951F-4065-926E-8B9137F837F5";
shapes = (
{
closed = 1;
nodes = (
(398,-230,l),
(398,-178,l),
(265,-178,ls),
(247,-178,o),
(238,-168,o),
(238,-148,cs),
(238,169,ls),
(238,218,o),
(213,249,o),
(165,249,cs),
(162,249,l),
(162,261,l),
(165,261,ls),
(213,261,o),
(238,292,o),
(238,341,cs),
(238,658,ls),
(238,678,o),
(247,688,o),
(265,688,cs),
(398,688,l),
(398,740,l),
(248,740,ls),
(209,740,o),
(180,710,o),
(180,671,cs),
(180,343,ls),
(180,304,o),
(159,284,o),
(115,284,cs),
(40,284,l),
(40,226,l),
(115,226,ls),
(159,226,o),
(180,206,o),
(180,167,cs),
(180,-161,ls),
(180,-200,o),
(209,-230,o),
(248,-230,cs)
);
}
);
width = 418;
}
);
note = braceleft;
unicode = 123;
},
{
glyphname = braceright;
kernLeft = bracketright;
lastChange = "2020-08-10 18:12:01 +0000";
layers = (
{
background = {
shapes = (
{
closed = 1;
nodes = (
(186,-246,ls),
(246,-246,o),
(288,-204,o),
(288,-144,cs),
(288,166,ls),
(288,185,o),
(297,195,o),
(315,195,cs),
(430,195,l),
(430,315,l),
(315,315,ls),
(297,315,o),
(288,325,o),
(288,344,cs),
(288,654,ls),
(288,714,o),
(246,756,o),
(186,756,cs),
(16,756,l),
(16,648,l),
(139,648,ls),
(157,648,o),
(166,638,o),
(166,618,cs),
(166,344,ls),
(166,299,o),
(197,264,o),
(244,264,cs),
(260,264,l),
(260,246,l),
(244,246,ls),
(197,246,o),
(166,211,o),
(166,166,cs),
(166,-108,ls),
(166,-128,o),
(157,-138,o),
(139,-138,cs),
(16,-138,l),
(16,-246,l)
);
}
);
};
layerId = "5117E3E8-E17C-4812-BAF5-9E7064564A59";
shapes = (
{
closed = 1;
nodes = (
(186,-246,ls),
(246,-246,o),
(288,-204,o),
(288,-144,cs),
(288,166,ls),
(288,185,o),
(297,195,o),
(315,195,cs),
(430,195,l),
(430,315,l),
(315,315,ls),
(297,315,o),
(288,325,o),
(288,344,cs),
(288,654,ls),
(288,714,o),
(246,756,o),
(186,756,cs),
(16,756,l),
(16,648,l),
(139,648,ls),
(157,648,o),
(166,638,o),
(166,618,cs),
(166,344,ls),
(166,299,o),
(197,264,o),
(244,264,cs),
(260,264,l),
(260,246,l),
(244,246,ls),
(197,246,o),
(166,211,o),
(166,166,cs),
(166,-108,ls),
(166,-128,o),
(157,-138,o),
(139,-138,cs),
(16,-138,l),
(16,-246,l)
);
}
);
width = 466;
},
{
background = {
shapes = (
{
closed = 1;
nodes = (
(170,-230,ls),
(209,-230,o),
(238,-200,o),
(238,-161,cs),
(238,167,ls),
(238,206,o),
(259,226,o),
(303,226,cs),
(378,226,l),
(378,284,l),
(303,284,ls),
(259,284,o),
(238,304,o),
(238,343,cs),
(238,671,ls),
(238,710,o),
(209,740,o),
(170,740,cs),
(20,740,l),
(20,688,l),
(153,688,ls),
(171,688,o),
(180,678,o),
(180,658,cs),
(180,341,ls),
(180,292,o),
(205,261,o),
(253,261,cs),
(256,261,l),
(256,249,l),
(253,249,ls),
(205,249,o),
(180,218,o),
(180,169,cs),
(180,-148,ls),
(180,-168,o),
(171,-178,o),
(153,-178,cs),
(20,-178,l),
(20,-230,l)
);
}
);
};
layerId = "CEFBB1E5-951F-4065-926E-8B9137F837F5";
shapes = (
{
closed = 1;
nodes = (
(170,-230,ls),
(209,-230,o),
(238,-200,o),
(238,-161,cs),
(238,167,ls),
(238,206,o),
(259,226,o),
(303,226,cs),
(378,226,l),
(378,284,l),
(303,284,ls),
(259,284,o),
(238,304,o),
(238,343,cs),
(238,671,ls),
(238,710,o),
(209,740,o),
(170,740,cs),
(20,740,l),
(20,688,l),
(153,688,ls),
(171,688,o),
(180,678,o),
(180,658,cs),
(180,341,ls),
(180,292,o),
(205,261,o),
(253,261,cs),
(256,261,l),
(256,249,l),
(253,249,ls),
(205,249,o),
(180,218,o),
(180,169,cs),
(180,-148,ls),
(180,-168,o),
(171,-178,o),
(153,-178,cs),
(20,-178,l),
(20,-230,l)
);
}
);
width = 418;
}
);
note = braceright;
unicode = 125;
},
{
glyphname = parenleft;
lastChange = "2020-08-10 18:12:01 +0000";
layers = (
{
background = {
shapes = (
{
closed = 1;
nodes = (
(390,-138,l),
(244,-138,o),
(172,-57,o),
(172,120,cs),
(172,390,ls),
(172,567,o),
(244,648,o),
(390,648,c),
(390,756,l),
(167,756,o),
(50,642,o),
(50,394,cs),
(50,116,ls),
(50,-132,o),
(167,-246,o),
(390,-246,c)
);
}
);
};
layerId = "5117E3E8-E17C-4812-BAF5-9E7064564A59";
shapes = (
{
closed = 1;
nodes = (
(390,-138,l),
(244,-138,o),
(172,-57,o),
(172,120,cs),
(172,390,ls),
(172,567,o),
(244,648,o),
(390,648,c),
(390,756,l),
(167,756,o),
(50,642,o),
(50,394,cs),
(50,116,ls),
(50,-132,o),
(167,-246,o),
(390,-246,c)
);
}
);
width = 398;
},
{
background = {
shapes = (
{
closed = 1;
nodes = (
(361,-178,l),
(195,-175,o),
(122,-89,o),
(122,89,cs),
(122,421,ls),
(122,599,o),
(195,685,o),
(361,688,c),
(361,740,l),
(179,740,o),
(64,651,o),
(64,426,cs),
(64,84,ls),
(64,-141,o),
(179,-230,o),
(361,-230,c)
);
}
);
};
layerId = "CEFBB1E5-951F-4065-926E-8B9137F837F5";
shapes = (
{
closed = 1;
nodes = (
(361,-178,l),
(195,-175,o),
(122,-89,o),
(122,89,cs),
(122,421,ls),
(122,599,o),
(195,685,o),
(361,688,c),
(361,740,l),
(179,740,o),
(64,651,o),
(64,426,cs),
(64,84,ls),
(64,-141,o),
(179,-230,o),
(361,-230,c)
);
}
);
width = 371;
}
);
metricLeft = O;
note = parenleft;
unicode = 40;
},
{
glyphname = parenright;
lastChange = "2020-08-11 15:56:49 +0000";
layers = (
{
background = {
shapes = (
{
closed = 1;
nodes = (
(223,-246,o),
(340,-132,o),
(340,116,cs),
(340,394,ls),
(340,642,o),
(223,756,o),
(0,756,c),
(0,648,l),
(146,648,o),
(218,567,o),
(218,390,cs),
(218,120,ls),
(218,-57,o),
(146,-138,o),
(0,-138,c),
(0,-246,l)
);
}
);
};
layerId = "5117E3E8-E17C-4812-BAF5-9E7064564A59";
shapes = (
{
closed = 1;
nodes = (
(223,-246,o),
(340,-132,o),
(340,116,cs),
(340,394,ls),
(340,642,o),
(223,756,o),
(0,756,c),
(0,648,l),
(146,648,o),
(218,567,o),
(218,390,cs),
(218,120,ls),
(218,-57,o),
(146,-138,o),
(0,-138,c),
(0,-246,l)
);
}
);
width = 390;
},
{
background = {
shapes = (
{
closed = 1;
nodes = (
(192,-230,o),
(307,-141,o),
(307,84,cs),
(307,426,ls),
(307,651,o),
(192,740,o),
(10,740,c),
(10,688,l),
(176,685,o),
(249,599,o),
(249,421,cs),
(249,89,ls),
(249,-89,o),
(176,-175,o),
(10,-178,c),
(10,-230,l)
);
}
);
};
layerId = "CEFBB1E5-951F-4065-926E-8B9137F837F5";
shapes = (
{
closed = 1;
nodes = (
(192,-230,o),
(307,-141,o),
(307,84,cs),
(307,426,ls),
(307,651,o),
(192,740,o),
(10,740,c),
(10,688,l),
(176,685,o),
(249,599,o),
(249,421,cs),
(249,89,ls),
(249,-89,o),
(176,-175,o),
(10,-178,c),
(10,-230,l)
);
}
);
width = 371;
}
);
metricRight = O;
note = parenright;
unicode = 41;
},
{
glyphname = slash;
lastChange = "2020-08-10 18:12:01 +0000";
layers = (
{
background = {
shapes = (
{
closed = 1;
nodes = (
(110,-200,l),
(404,700,l),
(278,700,l),
(-16,-200,l)
);
}
);
};
layerId = "5117E3E8-E17C-4812-BAF5-9E7064564A59";
shapes = (
{
closed = 1;
nodes = (
(110,-200,l),
(404,700,l),
(278,700,l),
(-16,-200,l)
);
}
);
width = 388;
},
{
background = {
shapes = (
{
closed = 1;
nodes = (
(67,-200,l),
(361,700,l),
(300,700,l),
(6,-200,l)
);
}
);
};
layerId = "CEFBB1E5-951F-4065-926E-8B9137F837F5";
shapes = (
{
closed = 1;
nodes = (
(67,-200,l),
(361,700,l),
(300,700,l),
(6,-200,l)
);
}
);
width = 363;
}
);
note = slash;
unicode = 47;
},
{
glyphname = bar;
lastChange = "2020-08-10 18:12:01 +0000";
layers = (
{
background = {
shapes = (
{
closed = 1;
nodes = (
(192,-246,l),
(192,806,l),
(66,806,l),
(66,-246,l)
);
}
);
};
layerId = "5117E3E8-E17C-4812-BAF5-9E7064564A59";
shapes = (
{
closed = 1;
nodes = (
(192,-246,l),
(192,806,l),
(66,806,l),
(66,-246,l)
);
}
);
width = 258;
},
{
background = {
shapes = (
{
closed = 1;
nodes = (
(146,-246,l),
(146,806,l),
(86,806,l),
(86,-246,l)
);
}
);
};
layerId = "CEFBB1E5-951F-4065-926E-8B9137F837F5";
shapes = (
{
closed = 1;
nodes = (
(146,-246,l),
(146,806,l),
(86,806,l),
(86,-246,l)
);
}
);
width = 232;
}
);
metricLeft = I;
metricRight = I;
note = bar;
unicode = 124;
},
{
glyphname = brokenbar;
lastChange = "2020-08-10 18:12:01 +0000";
layers = (
{
background = {
shapes = (
{
closed = 1;
nodes = (
(192,366,l),
(192,806,l),
(66,806,l),
(66,366,l)
);
},
{
closed = 1;
nodes = (
(192,-246,l),
(192,194,l),
(66,194,l),
(66,-246,l)
);
}
);
};
layerId = "5117E3E8-E17C-4812-BAF5-9E7064564A59";
shapes = (
{
closed = 1;
nodes = (
(192,366,l),
(192,806,l),
(66,806,l),
(66,366,l)
);
},
{
closed = 1;
nodes = (
(192,-246,l),
(192,194,l),
(66,194,l),
(66,-246,l)
);
}
);
width = 258;
},
{
background = {
shapes = (
{
closed = 1;
nodes = (
(146,366,l),
(146,806,l),
(86,806,l),
(86,366,l)
);
},
{
closed = 1;
nodes = (
(146,-246,l),
(146,194,l),
(86,194,l),
(86,-246,l)
);
}
);
};
layerId = "CEFBB1E5-951F-4065-926E-8B9137F837F5";
shapes = (
{
closed = 1;
nodes = (
(146,366,l),
(146,806,l),
(86,806,l),
(86,366,l)
);
},
{
closed = 1;
nodes = (
(146,-246,l),
(146,194,l),
(86,194,l),
(86,-246,l)
);
}
);
width = 232;
}
);
metricLeft = I;
metricRight = I;
note = brokenbar;
unicode = 166;
},
{
glyphname = backslash;
lastChange = "2020-08-10 18:12:01 +0000";
layers = (
{
background = {
shapes = (
{
closed = 1;
nodes = (
(404,-200,l),
(110,700,l),
(-16,700,l),
(278,-200,l)
);
}
);
};
layerId = "5117E3E8-E17C-4812-BAF5-9E7064564A59";
shapes = (
{
closed = 1;
nodes = (
(404,-200,l),
(110,700,l),
(-16,700,l),
(278,-200,l)
);
}
);
width = 388;
},
{
background = {
shapes = (
{
closed = 1;
nodes = (
(357,-200,l),
(63,700,l),
(2,700,l),
(296,-200,l)
);
}
);
};
layerId = "CEFBB1E5-951F-4065-926E-8B9137F837F5";
shapes = (
{
closed = 1;
nodes = (
(357,-200,l),
(63,700,l),
(2,700,l),
(296,-200,l)
);
}
);
width = 363;
}
);
note = backslash;
unicode = 92;
},
{
glyphname = quotesingle;
kernLeft = quoteleft;
kernRight = quoteleft;
lastChange = "2024-11-07 10:10:22 +0000";
layers = (
{
background = {
shapes = (
{
pos = (-3,540);
ref = comma;
}
);
};
layerId = "5117E3E8-E17C-4812-BAF5-9E7064564A59";
shapes = (
{
closed = 1;
nodes = (
(54,585.333,o),
(75.667,552,o),
(109,540,c),
(109,393,l),
(179,393,l),
(179,540,l),
(211,552,o),
(234,585.333,o),
(234,624,cs),
(234,674.667,o),
(194.667,714,o),
(144,714,cs),
(93.333,714,o),
(54,674.667,o),
(54,624,cs)
);
}
);
width = 288;
},
{
background = {
shapes = (
{
alignment = -1;
pos = (3,614);
ref = comma;
}
);
};
layerId = "CEFBB1E5-951F-4065-926E-8B9137F837F5";
shapes = (
{
closed = 1;
nodes = (
(60,625.333,o),
(74.333,604,o),
(97,596,c),
(97,498,l),
(144,498,l),
(144,596,l),
(166.667,604,o),
(182,625.333,o),
(182,652,cs),
(182,688,o),
(154.333,714,o),
(121,714,cs),
(86.333,714,o),
(60,688,o),
(60,652,cs)
);
}
);
width = 242;
}
);
metricLeft = period;
metricRight = period;
note = quotesingle;
unicode = 39;
},
{
glyphname = period;
kernLeft = period;
kernRight = period;
lastChange = "2020-08-10 18:12:01 +0000";
layers = (
{
background = {
shapes = (
{
closed = 1;
nodes = (
(203,-14,o),
(244,25,o),
(244,81,cs),
(244,137,o),
(203,176,o),
(149,176,cs),
(95,176,o),
(54,137,o),
(54,81,cs),
(54,25,o),
(95,-14,o),
(149,-14,cs)
);
}
);
};
layerId = "5117E3E8-E17C-4812-BAF5-9E7064564A59";
shapes = (
{
closed = 1;
nodes = (
(203,-14,o),
(244,25,o),
(244,81,cs),
(244,137,o),
(203,176,o),
(149,176,cs),
(95,176,o),
(54,137,o),
(54,81,cs),
(54,25,o),
(95,-14,o),
(149,-14,cs)
);
}
);
width = 298;
},
{
background = {
shapes = (
{
closed = 1;
nodes = (
(150,-14,o),
(174,10,o),
(174,43,cs),
(174,76,o),
(150,100,o),
(117,100,cs),
(84,100,o),
(60,76,o),
(60,43,cs),
(60,10,o),
(84,-14,o),
(117,-14,cs)
);
}
);
};
layerId = "CEFBB1E5-951F-4065-926E-8B9137F837F5";
shapes = (
{
closed = 1;
nodes = (
(150,-14,o),
(174,10,o),
(174,43,cs),
(174,76,o),
(150,100,o),
(117,100,cs),
(84,100,o),
(60,76,o),
(60,43,cs),
(60,10,o),
(84,-14,o),
(117,-14,cs)
);
}
);
width = 234;
}
);
note = period;
unicode = 46;
},
{
glyphname = comma;
kernLeft = period;
kernRight = period;
lastChange = "2020-09-27 11:00:10 +0000";
layers = (
{
background = {
shapes = (
{
closed = 1;
nodes = (
(128,-147,ls),
(202,-147,o),
(240,-109,o),
(240,-35,cs),
(240,80,ls),
(240,137,o),
(201,174,o),
(147,174,cs),
(93,174,o),
(54,137,o),
(54,84,cs),
(54,35,o),
(93,-1,o),
(147,-1,cs),
(164,-1,l),
(164,-33,ls),
(164,-65,o),
(150,-79,o),
(118,-79,cs),
(79,-79,l),
(79,-147,l)
);
}
);
};
layerId = "5117E3E8-E17C-4812-BAF5-9E7064564A59";
shapes = (
{
closed = 1;
nodes = (
(128,-147,ls),
(202,-147,o),
(240,-109,o),
(240,-35,cs),
(240,80,ls),
(240,137,o),
(201,174,o),
(147,174,cs),
(93,174,o),
(54,137,o),
(54,84,cs),
(54,35,o),
(93,-1,o),
(147,-1,cs),
(164,-1,l),
(164,-33,ls),
(164,-65,o),
(150,-79,o),
(118,-79,cs),
(79,-79,l),
(79,-147,l)
);
}
);
width = 294;
},
{
background = {
shapes = (
{
closed = 1;
nodes = (
(99,-116,ls),
(150,-116,o),
(174,-92,o),
(174,-40,cs),
(174,43,ls),
(174,75,o),
(149,100,o),
(117,100,cs),
(85,100,o),
(60,77,o),
(60,45,cs),
(60,13,o),
(85,-10,o),
(117,-10,cs),
(130,-10,l),
(130,-42,ls),
(130,-64,o),
(120,-74,o),
(98,-74,cs),
(74,-74,l),
(74,-116,l)
);
}
);
};
layerId = "CEFBB1E5-951F-4065-926E-8B9137F837F5";
shapes = (
{
closed = 1;
nodes = (
(99,-116,ls),
(150,-116,o),
(174,-92,o),
(174,-40,cs),
(174,43,ls),
(174,75,o),
(149,100,o),
(117,100,cs),
(85,100,o),
(60,77,o),
(60,45,cs),
(60,13,o),
(85,-10,o),
(117,-10,cs),
(130,-10,l),
(130,-42,ls),
(130,-64,o),
(120,-74,o),
(98,-74,cs),
(74,-74,l),
(74,-116,l)
);
}
);
width = 234;
}
);
metricLeft = period;
metricRight = period;
note = comma;
unicode = 44;
},
{
glyphname = exclam;
lastChange = "2020-08-10 18:12:01 +0000";
layers = (
{
background = {
shapes = (
{
closed = 1;
nodes = (
(213,230,l),
(213,700,l),
(85,700,l),
(85,230,l)
);
},
{
ref = period;
}
);
};
layerId = "5117E3E8-E17C-4812-BAF5-9E7064564A59";
shapes = (
{
closed = 1;
nodes = (
(213,230,l),
(213,700,l),
(85,700,l),
(85,230,l)
);
},
{
ref = period;
}
);
width = 298;
},
{
background = {
shapes = (
{
closed = 1;
nodes = (
(148,170,l),
(148,700,l),
(86,700,l),
(86,170,l)
);
},
{
alignment = -1;
ref = period;
}
);
};
layerId = "CEFBB1E5-951F-4065-926E-8B9137F837F5";
shapes = (
{
closed = 1;
nodes = (
(148,170,l),
(148,700,l),
(86,700,l),
(86,170,l)
);
},
{
alignment = -1;
ref = period;
}
);
width = 234;
}
);
metricLeft = period;
metricRight = period;
note = exclam;
unicode = 33;
},
{
glyphname = exclamdown;
lastChange = "2020-08-10 18:12:01 +0000";
layers = (
{
background = {
shapes = (
{
closed = 1;
nodes = (
(213,-200,l),
(213,266,l),
(85,266,l),
(85,-200,l)
);
},
{
angle = 180;
pos = (298,496);
ref = period;
}
);
};
layerId = "5117E3E8-E17C-4812-BAF5-9E7064564A59";
shapes = (
{
closed = 1;
nodes = (
(213,-200,l),
(213,266,l),
(85,266,l),
(85,-200,l)
);
},
{
angle = 180;
pos = (298,496);
ref = period;
}
);
width = 298;
},
{
background = {
shapes = (
{
closed = 1;
nodes = (
(148,-200,l),
(148,316,l),
(86,316,l),
(86,-200,l)
);
},
{
alignment = -1;
angle = 180;
pos = (234,486);
ref = period;
}
);
};
layerId = "CEFBB1E5-951F-4065-926E-8B9137F837F5";
shapes = (
{
closed = 1;
nodes = (
(148,-200,l),
(148,316,l),
(86,316,l),
(86,-200,l)
);
},
{
alignment = -1;
angle = 180;
pos = (234,486);
ref = period;
}
);
width = 234;
}
);
metricLeft = period;
metricRight = period;
note = exclamdown;
unicode = 161;
},
{
glyphname = question;
lastChange = "2020-08-10 18:12:01 +0000";
layers = (
{
background = {
shapes = (
{
closed = 1;
nodes = (
(341,230,l),
(341,248,ls),
(341,277,o),
(349,290,o),
(373,301,cs),
(390,309,ls),
(460,342,o),
(536,390,o),
(536,510,cs),
(536,630,o),
(432,714,o),
(290,714,cs),
(146,714,o),
(34,630,o),
(34,492,cs),
(34,472,l),
(164,472,l),
(164,494,ls),
(164,566,o),
(218,602,o),
(290,602,cs),
(360,602,o),
(406,568,o),
(406,510,cs),
(406,456,o),
(373,429,o),
(313,401,cs),
(296,393,ls),
(234,364,o),
(209,322,o),
(209,254,cs),
(209,230,l)
);
},
{
pos = (130,0);
ref = period;
}
);
};
layerId = "5117E3E8-E17C-4812-BAF5-9E7064564A59";
shapes = (
{
closed = 1;
nodes = (
(341,230,l),
(341,248,ls),
(341,277,o),
(349,290,o),
(373,301,cs),
(390,309,ls),
(460,342,o),
(536,390,o),
(536,510,cs),
(536,630,o),
(432,714,o),
(290,714,cs),
(146,714,o),
(34,630,o),
(34,492,cs),
(34,472,l),
(164,472,l),
(164,494,ls),
(164,566,o),
(218,602,o),
(290,602,cs),
(360,602,o),
(406,568,o),
(406,510,cs),
(406,456,o),
(373,429,o),
(313,401,cs),
(296,393,ls),
(234,364,o),
(209,322,o),
(209,254,cs),
(209,230,l)
);
},
{
pos = (130,0);
ref = period;
}
);
width = 578;
},
{
background = {
shapes = (
{
closed = 1;
nodes = (
(311,170,l),
(311,246,ls),
(311,280,o),
(321,295,o),
(347,306,cs),
(379,320,ls),
(464,355,o),
(533,408,o),
(533,518,cs),
(533,631,o),
(436,714,o),
(294,714,cs),
(150,714,o),
(46,640,o),
(46,505,cs),
(46,463,l),
(108,463,l),
(108,504,ls),
(108,609,o),
(196,660,o),
(294,660,cs),
(391,660,o),
(471,609,o),
(471,518,cs),
(471,436,o),
(426,398,o),
(354,369,cs),
(322,355,ls),
(265,331,o),
(249,304,o),
(249,245,cs),
(249,170,l)
);
},
{
alignment = -1;
pos = (163,0);
ref = period;
}
);
};
layerId = "CEFBB1E5-951F-4065-926E-8B9137F837F5";
shapes = (
{
closed = 1;
nodes = (
(311,170,l),
(311,246,ls),
(311,280,o),
(321,295,o),
(347,306,cs),
(379,320,ls),
(464,355,o),
(533,408,o),
(533,518,cs),
(533,631,o),
(436,714,o),
(294,714,cs),
(150,714,o),
(46,640,o),
(46,505,cs),
(46,463,l),
(108,463,l),
(108,504,ls),
(108,609,o),
(196,660,o),
(294,660,cs),
(391,660,o),
(471,609,o),
(471,518,cs),
(471,436,o),
(426,398,o),
(354,369,cs),
(322,355,ls),
(265,331,o),
(249,304,o),
(249,245,cs),
(249,170,l)
);
},
{
alignment = -1;
pos = (163,0);
ref = period;
}
);
width = 581;
}
);
note = question;
unicode = 63;
},
{
glyphname = questiondown;
lastChange = "2020-08-10 18:12:01 +0000";
layers = (
{
background = {
shapes = (
{
closed = 1;
nodes = (
(432,-214,o),
(544,-130,o),
(544,8,cs),
(544,28,l),
(414,28,l),
(414,6,ls),
(414,-66,o),
(360,-102,o),
(288,-102,cs),
(218,-102,o),
(172,-68,o),
(172,-10,cs),
(172,44,o),
(205,71,o),
(265,99,cs),
(282,107,ls),
(344,136,o),
(369,178,o),
(369,246,cs),
(369,266,l),
(237,266,l),
(237,252,ls),
(237,223,o),
(229,210,o),
(205,199,cs),
(188,191,ls),
(118,158,o),
(42,110,o),
(42,-10,cs),
(42,-130,o),
(146,-214,o),
(288,-214,cs)
);
},
{
angle = 180;
pos = (448,496);
ref = period;
}
);
};
layerId = "5117E3E8-E17C-4812-BAF5-9E7064564A59";
shapes = (
{
closed = 1;
nodes = (
(432,-214,o),
(544,-130,o),
(544,8,cs),
(544,28,l),
(414,28,l),
(414,6,ls),
(414,-66,o),
(360,-102,o),
(288,-102,cs),
(218,-102,o),
(172,-68,o),
(172,-10,cs),
(172,44,o),
(205,71,o),
(265,99,cs),
(282,107,ls),
(344,136,o),
(369,178,o),
(369,246,cs),
(369,266,l),
(237,266,l),
(237,252,ls),
(237,223,o),
(229,210,o),
(205,199,cs),
(188,191,ls),
(118,158,o),
(42,110,o),
(42,-10,cs),
(42,-130,o),
(146,-214,o),
(288,-214,cs)
);
},
{
angle = 180;
pos = (448,496);
ref = period;
}
);
width = 578;
},
{
background = {
shapes = (
{
closed = 1;
nodes = (
(431,-216,o),
(535,-142,o),
(535,-7,cs),
(535,35,l),
(473,35,l),
(473,-6,ls),
(473,-111,o),
(385,-162,o),
(287,-162,cs),
(190,-162,o),
(110,-111,o),
(110,-20,cs),
(110,62,o),
(156,98,o),
(227,129,cs),
(259,143,ls),
(316,168,o),
(332,194,o),
(332,253,cs),
(332,316,l),
(270,316,l),
(270,252,ls),
(270,218,o),
(260,203,o),
(234,192,cs),
(202,178,ls),
(118,141,o),
(48,90,o),
(48,-20,cs),
(48,-133,o),
(145,-216,o),
(287,-216,cs)
);
},
{
alignment = -1;
angle = 180;
pos = (417,486);
ref = period;
}
);
};
layerId = "CEFBB1E5-951F-4065-926E-8B9137F837F5";
shapes = (
{
closed = 1;
nodes = (
(431,-216,o),
(535,-142,o),
(535,-7,cs),
(535,35,l),
(473,35,l),
(473,-6,ls),
(473,-111,o),
(385,-162,o),
(287,-162,cs),
(190,-162,o),
(110,-111,o),
(110,-20,cs),
(110,62,o),
(156,98,o),
(227,129,cs),
(259,143,ls),
(316,168,o),
(332,194,o),
(332,253,cs),
(332,316,l),
(270,316,l),
(270,252,ls),
(270,218,o),
(260,203,o),
(234,192,cs),
(202,178,ls),
(118,141,o),
(48,90,o),
(48,-20,cs),
(48,-133,o),
(145,-216,o),
(287,-216,cs)
);
},
{
alignment = -1;
angle = 180;
pos = (417,486);
ref = period;
}
);
width = 581;
}
);
unicode = 191;
},
{
glyphname = guilsinglleft;
lastChange = "2020-08-10 18:12:01 +0000";
layers = (
{
background = {
shapes = (
{
closed = 1;
nodes = (
(412,6,l),
(412,141,l),
(178,239,l),
(178,257,l),
(412,355,l),
(412,490,l),
(406,490,l),
(52,320,l),
(52,176,l),
(406,6,l)
);
}
);
};
layerId = "5117E3E8-E17C-4812-BAF5-9E7064564A59";
shapes = (
{
closed = 1;
nodes = (
(412,6,l),
(412,141,l),
(178,239,l),
(178,257,l),
(412,355,l),
(412,490,l),
(406,490,l),
(52,320,l),
(52,176,l),
(406,6,l)
);
}
);
width = 480;
},
{
background = {
shapes = (
{
closed = 1;
nodes = (
(384,28,l),
(384,91,l),
(110,242,l),
(110,252,l),
(384,403,l),
(384,466,l),
(378,466,l),
(52,284,l),
(52,210,l),
(378,28,l)
);
}
);
};
layerId = "CEFBB1E5-951F-4065-926E-8B9137F837F5";
shapes = (
{
closed = 1;
nodes = (
(384,28,l),
(384,91,l),
(110,242,l),
(110,252,l),
(384,403,l),
(384,466,l),
(378,466,l),
(52,284,l),
(52,210,l),
(378,28,l)
);
}
);
width = 454;
}
);
note = guilsinglleft;
unicode = 8249;
},
{
glyphname = guilsinglright;
lastChange = "2020-08-10 18:12:01 +0000";
layers = (
{
background = {
shapes = (
{
closed = 1;
nodes = (
(74,6,l),
(428,176,l),
(428,320,l),
(74,490,l),
(68,490,l),
(68,355,l),
(302,257,l),
(302,239,l),
(68,141,l),
(68,6,l)
);
}
);
};
layerId = "5117E3E8-E17C-4812-BAF5-9E7064564A59";
shapes = (
{
closed = 1;
nodes = (
(74,6,l),
(428,176,l),
(428,320,l),
(74,490,l),
(68,490,l),
(68,355,l),
(302,257,l),
(302,239,l),
(68,141,l),
(68,6,l)
);
}
);
width = 480;
},
{
background = {
shapes = (
{
closed = 1;
nodes = (
(76,28,l),
(402,210,l),
(402,284,l),
(76,466,l),
(70,466,l),
(70,403,l),
(344,252,l),
(344,242,l),
(70,91,l),
(70,28,l)
);
}
);
};
layerId = "CEFBB1E5-951F-4065-926E-8B9137F837F5";
shapes = (
{
closed = 1;
nodes = (
(76,28,l),
(402,210,l),
(402,284,l),
(76,466,l),
(70,466,l),
(70,403,l),
(344,252,l),
(344,242,l),
(70,91,l),
(70,28,l)
);
}
);
width = 454;
}
);
note = guilsinglright;
unicode = 8250;
},
{
glyphname = hyphen;
kernLeft = hyphen;
kernRight = hyphen;
lastChange = "2020-08-11 15:41:36 +0000";
layers = (
{
background = {
shapes = (
{
closed = 1;
nodes = (
(364,198,l),
(364,312,l),
(68,312,l),
(68,198,l)
);
}
);
};
layerId = "5117E3E8-E17C-4812-BAF5-9E7064564A59";
shapes = (
{
closed = 1;
nodes = (
(364,198,l),
(364,312,l),
(68,312,l),
(68,198,l)
);
}
);
width = 432;
},
{
background = {
shapes = (
{
closed = 1;
nodes = (
(380,230,l),
(380,286,l),
(84,286,l),
(84,230,l)
);
}
);
};
layerId = "CEFBB1E5-951F-4065-926E-8B9137F837F5";
shapes = (
{
closed = 1;
nodes = (
(380,230,l),
(380,286,l),
(84,286,l),
(84,230,l)
);
}
);
width = 464;
}
);
note = hyphen;
unicode = 45;
},
{
glyphname = endash;
kernLeft = hyphen;
kernRight = hyphen;
lastChange = "2020-08-10 18:12:01 +0000";
layers = (
{
background = {
shapes = (
{
closed = 1;
nodes = (
(516,198,l),
(516,312,l),
(68,312,l),
(68,198,l)
);
}
);
};
layerId = "5117E3E8-E17C-4812-BAF5-9E7064564A59";
shapes = (
{
closed = 1;
nodes = (
(516,198,l),
(516,312,l),
(68,312,l),
(68,198,l)
);
}
);
width = 584;
},
{
background = {
shapes = (
{
closed = 1;
nodes = (
(532,230,l),
(532,286,l),
(84,286,l),
(84,230,l)
);
}
);
};
layerId = "CEFBB1E5-951F-4065-926E-8B9137F837F5";
shapes = (
{
closed = 1;
nodes = (
(532,230,l),
(532,286,l),
(84,286,l),
(84,230,l)
);
}
);
width = 616;
}
);
metricLeft = hyphen;
metricRight = hyphen;
note = endash;
unicode = 8211;
},
{
glyphname = emdash;
kernLeft = hyphen;
kernRight = hyphen;
lastChange = "2020-08-10 18:12:01 +0000";
layers = (
{
background = {
shapes = (
{
closed = 1;
nodes = (
(820,198,l),
(820,312,l),
(68,312,l),
(68,198,l)
);
}
);
};
layerId = "5117E3E8-E17C-4812-BAF5-9E7064564A59";
shapes = (
{
closed = 1;
nodes = (
(820,198,l),
(820,312,l),
(68,312,l),
(68,198,l)
);
}
);
width = 888;
},
{
background = {
shapes = (
{
closed = 1;
nodes = (
(836,230,l),
(836,286,l),
(84,286,l),
(84,230,l)
);
}
);
};
layerId = "CEFBB1E5-951F-4065-926E-8B9137F837F5";
shapes = (
{
closed = 1;
nodes = (
(836,230,l),
(836,286,l),
(84,286,l),
(84,230,l)
);
}
);
width = 920;
}
);
metricLeft = hyphen;
metricRight = hyphen;
note = emdash;
unicode = 8212;
},
{
glyphname = bullet;
lastChange = "2020-08-10 18:12:01 +0000";
layers = (
{
background = {
shapes = (
{
closed = 1;
nodes = (
(278,111,o),
(344,170,o),
(344,255,cs),
(344,338,o),
(283,399,o),
(200,399,cs),
(117,399,o),
(56,336,o),
(56,255,cs),
(56,174,o),
(120,111,o),
(200,111,cs)
);
}
);
};
layerId = "5117E3E8-E17C-4812-BAF5-9E7064564A59";
shapes = (
{
closed = 1;
nodes = (
(278,111,o),
(344,170,o),
(344,255,cs),
(344,338,o),
(283,399,o),
(200,399,cs),
(117,399,o),
(56,336,o),
(56,255,cs),
(56,174,o),
(120,111,o),
(200,111,cs)
);
}
);
width = 400;
},
{
background = {
shapes = (
{
closed = 1;
nodes = (
(234,150,o),
(282,196,o),
(282,258,cs),
(282,320,o),
(234,366,o),
(172,366,cs),
(110,366,o),
(62,320,o),
(62,258,cs),
(62,196,o),
(110,150,o),
(172,150,cs)
);
}
);
};
layerId = "CEFBB1E5-951F-4065-926E-8B9137F837F5";
shapes = (
{
closed = 1;
nodes = (
(234,150,o),
(282,196,o),
(282,258,cs),
(282,320,o),
(234,366,o),
(172,366,cs),
(110,366,o),
(62,320,o),
(62,258,cs),
(62,196,o),
(110,150,o),
(172,150,cs)
);
}
);
width = 344;
}
);
note = bullet;
unicode = 8226;
},
{
glyphname = underscore;
lastChange = "2020-08-10 18:12:01 +0000";
layers = (
{
background = {
shapes = (
{
closed = 1;
nodes = (
(555,-162,l),
(555,-48,l),
(65,-48,l),
(65,-162,l)
);
}
);
};
layerId = "5117E3E8-E17C-4812-BAF5-9E7064564A59";
shapes = (
{
closed = 1;
nodes = (
(555,-162,l),
(555,-48,l),
(65,-48,l),
(65,-162,l)
);
}
);
width = 620;
},
{
background = {
shapes = (
{
closed = 1;
nodes = (
(538,-106,l),
(538,-50,l),
(82,-50,l),
(82,-106,l)
);
}
);
};
layerId = "CEFBB1E5-951F-4065-926E-8B9137F837F5";
shapes = (
{
closed = 1;
nodes = (
(538,-106,l),
(538,-50,l),
(82,-50,l),
(82,-106,l)
);
}
);
width = 620;
}
);
note = underscore;
unicode = 95;
},
{
glyphname = at;
lastChange = "2020-08-10 18:21:19 +0000";
layers = (
{
background = {
shapes = (
{
closed = 1;
nodes = (
(740,-200,l),
(740,-86,l),
(532,-86,ls),
(316,-86,o),
(190,32,o),
(190,250,cs),
(190,266,ls),
(190,484,o),
(314,600,o),
(516,600,cs),
(530,600,ls),
(731,600,o),
(828,484,o),
(828,294,cs),
(828,222,ls),
(828,149,o),
(812,112,o),
(773,112,cs),
(769,112,ls),
(746,112,o),
(738,123,o),
(738,146,cs),
(738,500,l),
(616,500,l),
(616,440,l),
(598,440,l),
(577,475,o),
(547,506,o),
(473,506,cs),
(355,506,o),
(280,398,o),
(280,258,cs),
(280,242,ls),
(280,104,o),
(357,-6,o),
(483,-6,cs),
(556,-6,o),
(590,29,o),
(607,72,c),
(625,72,l),
(625,70,ls),
(625,27,o),
(659,0,o),
(722,0,cs),
(780,0,ls),
(895,0,o),
(952,82,o),
(952,222,cs),
(952,296,ls),
(952,546,o),
(785,714,o),
(534,714,cs),
(512,714,ls),
(236,714,o),
(66,544,o),
(66,270,cs),
(66,246,ls),
(66,-28,o),
(238,-200,o),
(524,-200,cs)
);
},
{
closed = 1;
nodes = (
(444,102,o),
(404,156,o),
(404,244,cs),
(404,256,ls),
(404,344,o),
(444,398,o),
(509,398,cs),
(574,398,o),
(616,344,o),
(616,256,cs),
(616,244,ls),
(616,156,o),
(574,102,o),
(509,102,cs)
);
}
);
};
layerId = "5117E3E8-E17C-4812-BAF5-9E7064564A59";
shapes = (
{
closed = 1;
nodes = (
(740,-200,l),
(740,-86,l),
(532,-86,ls),
(316,-86,o),
(190,32,o),
(190,250,cs),
(190,266,ls),
(190,484,o),
(314,600,o),
(516,600,cs),
(530,600,ls),
(731,600,o),
(828,484,o),
(828,294,cs),
(828,222,ls),
(828,149,o),
(812,112,o),
(773,112,cs),
(769,112,ls),
(746,112,o),
(738,123,o),
(738,146,cs),
(738,500,l),
(616,500,l),
(616,440,l),
(598,440,l),
(577,475,o),
(547,506,o),
(473,506,cs),
(355,506,o),
(280,398,o),
(280,258,cs),
(280,242,ls),
(280,104,o),
(357,-6,o),
(483,-6,cs),
(556,-6,o),
(590,29,o),
(607,72,c),
(625,72,l),
(625,70,ls),
(625,27,o),
(659,0,o),
(722,0,cs),
(780,0,ls),
(895,0,o),
(952,82,o),
(952,222,cs),
(952,296,ls),
(952,546,o),
(785,714,o),
(534,714,cs),
(512,714,ls),
(236,714,o),
(66,544,o),
(66,270,cs),
(66,246,ls),
(66,-28,o),
(238,-200,o),
(524,-200,cs)
);
},
{
closed = 1;
nodes = (
(444,102,o),
(404,156,o),
(404,244,cs),
(404,256,ls),
(404,344,o),
(444,398,o),
(509,398,cs),
(574,398,o),
(616,344,o),
(616,256,cs),
(616,244,ls),
(616,156,o),
(574,102,o),
(509,102,cs)
);
}
);
width = 1014;
},
{
background = {
shapes = (
{
closed = 1;
nodes = (
(729,-200,l),
(729,-146,l),
(537,-146,ls),
(306,-146,o),
(142,-14,o),
(142,242,cs),
(142,258,ls),
(142,514,o),
(292,646,o),
(517,646,cs),
(535,646,ls),
(752,646,o),
(893,515,o),
(893,282,cs),
(893,271,ls),
(893,112,o),
(857,52,o),
(767,52,cs),
(752,52,ls),
(736,52,o),
(729,57,o),
(729,75,cs),
(729,478,l),
(671,478,l),
(671,403,l),
(659,403,l),
(639,443,o),
(599,492,o),
(502,492,cs),
(386,492,o),
(295,390,o),
(295,248,cs),
(295,230,ls),
(295,89,o),
(386,-14,o),
(503,-14,cs),
(602,-14,o),
(643,39,o),
(661,80,c),
(673,80,l),
(673,67,ls),
(673,25,o),
(699,0,o),
(750,0,cs),
(773,0,ls),
(886,0,o),
(953,84,o),
(953,265,cs),
(953,284,ls),
(953,546,o),
(782,700,o),
(535,700,cs),
(515,700,ls),
(260,700,o),
(82,544,o),
(82,260,cs),
(82,240,ls),
(82,-44,o),
(274,-200,o),
(535,-200,cs)
);
},
{
closed = 1;
nodes = (
(421,41,o),
(355,116,o),
(355,233,cs),
(355,245,ls),
(355,362,o),
(421,437,o),
(513,437,cs),
(605,437,o),
(671,365,o),
(671,244,cs),
(671,234,ls),
(671,113,o),
(605,41,o),
(513,41,cs)
);
}
);
};
layerId = "CEFBB1E5-951F-4065-926E-8B9137F837F5";
shapes = (
{
closed = 1;
nodes = (
(729,-200,l),
(729,-146,l),
(537,-146,ls),
(306,-146,o),
(142,-14,o),
(142,242,cs),
(142,258,ls),
(142,514,o),
(292,646,o),
(517,646,cs),
(535,646,ls),
(752,646,o),
(893,515,o),
(893,282,cs),
(893,271,ls),
(893,112,o),
(857,52,o),
(767,52,cs),
(752,52,ls),
(736,52,o),
(729,57,o),
(729,75,cs),
(729,478,l),
(671,478,l),
(671,403,l),
(659,403,l),
(639,443,o),
(599,492,o),
(502,492,cs),
(386,492,o),
(295,390,o),
(295,248,cs),
(295,230,ls),
(295,89,o),
(386,-14,o),
(503,-14,cs),
(602,-14,o),
(643,39,o),
(661,80,c),
(673,80,l),
(673,67,ls),
(673,25,o),
(699,0,o),
(750,0,cs),
(773,0,ls),
(886,0,o),
(953,84,o),
(953,265,cs),
(953,284,ls),
(953,546,o),
(782,700,o),
(535,700,cs),
(515,700,ls),
(260,700,o),
(82,544,o),
(82,260,cs),
(82,240,ls),
(82,-44,o),
(274,-200,o),
(535,-200,cs)
);
},
{
closed = 1;
nodes = (
(421,41,o),
(355,116,o),
(355,233,cs),
(355,245,ls),
(355,362,o),
(421,437,o),
(513,437,cs),
(605,437,o),
(671,365,o),
(671,244,cs),
(671,234,ls),
(671,113,o),
(605,41,o),
(513,41,cs)
);
}
);
width = 1031;
}
);
note = at;
unicode = 64;
},
{
glyphname = ampersand;
lastChange = "2020-08-10 18:12:01 +0000";
layers = (
{
background = {
shapes = (
{
closed = 1;
nodes = (
(485,0,l),
(485,302,l),
(577,302,l),
(577,406,l),
(485,406,l),
(485,496,l),
(359,496,l),
(359,406,l),
(262,406,ls),
(206,406,o),
(158,434,o),
(158,501,cs),
(158,564,o),
(202,596,o),
(262,596,cs),
(348,596,l),
(348,700,l),
(239,700,ls),
(119,700,o),
(32,634,o),
(32,512,cs),
(32,430,o),
(79,382,o),
(146,362,c),
(146,348,l),
(79,328,o),
(28,274,o),
(28,189,cs),
(28,71,o),
(111,0,o),
(235,0,cs)
);
},
{
closed = 1;
nodes = (
(203,104,o),
(154,136,o),
(154,203,cs),
(154,268,o),
(199,302,o),
(258,302,cs),
(359,302,l),
(359,104,l),
(258,104,ls)
);
}
);
};
layerId = "5117E3E8-E17C-4812-BAF5-9E7064564A59";
shapes = (
{
closed = 1;
nodes = (
(485,0,l),
(485,302,l),
(577,302,l),
(577,406,l),
(485,406,l),
(485,496,l),
(359,496,l),
(359,406,l),
(262,406,ls),
(206,406,o),
(158,434,o),
(158,501,cs),
(158,564,o),
(202,596,o),
(262,596,cs),
(348,596,l),
(348,700,l),
(239,700,ls),
(119,700,o),
(32,634,o),
(32,512,cs),
(32,430,o),
(79,382,o),
(146,362,c),
(146,348,l),
(79,328,o),
(28,274,o),
(28,189,cs),
(28,71,o),
(111,0,o),
(235,0,cs)
);
},
{
closed = 1;
nodes = (
(203,104,o),
(154,136,o),
(154,203,cs),
(154,268,o),
(199,302,o),
(258,302,cs),
(359,302,l),
(359,104,l),
(258,104,ls)
);
}
);
width = 591;
},
{
associatedMasterId = "5117E3E8-E17C-4812-BAF5-9E7064564A59";
layerId = "E09CAE66-96CB-4F85-AC4D-35276C3EA270";
name = v1;
shapes = (
{
closed = 1;
nodes = (
(34,84,o),
(126,-15,o),
(272,-15,cs),
(352,-15,o),
(407,15,o),
(450,56,c),
(466,56,l),
(522,0,l),
(690,0,l),
(536,154,l),
(536,172,l),
(684,407,l),
(542,407,l),
(450,259,l),
(431,259,l),
(335,355,ls),
(265,425,o),
(222,465,o),
(222,515,cs),
(222,519,ls),
(222,559,o),
(250,594,o),
(304,594,cs),
(362,594,o),
(390,557,o),
(390,509,cs),
(390,496,l),
(524,496,l),
(524,512,ls),
(524,631,o),
(436,714,o),
(306,714,cs),
(178,714,o),
(88,633,o),
(88,521,cs),
(88,515,ls),
(88,471,o),
(104,434,o),
(128,400,c),
(128,383,l),
(73,340,o),
(34,277,o),
(34,202,cs)
);
},
{
closed = 1;
nodes = (
(168,214,ls),
(168,249,o),
(184,278,o),
(207,297,c),
(224,297,l),
(365,157,l),
(365,139,l),
(343,119,o),
(316,107,o),
(280,107,cs),
(216,107,o),
(168,156,o),
(168,210,cs)
);
}
);
width = 700;
},
{
background = {
shapes = (
{
closed = 1;
nodes = (
(480,0,l),
(480,326,l),
(580,326,l),
(580,380,l),
(480,380,l),
(480,495,l),
(420,495,l),
(420,380,l),
(265,380,ls),
(186,380,o),
(120,420,o),
(120,512,cs),
(120,604,o),
(185,646,o),
(265,646,cs),
(393,646,l),
(393,700,l),
(260,700,ls),
(152,700,o),
(58,635,o),
(58,515,cs),
(58,426,o),
(112,378,o),
(171,359,c),
(171,349,l),
(111,327,o),
(50,272,o),
(50,184,cs),
(50,66,o),
(143,0,o),
(256,0,cs)
);
},
{
closed = 1;
nodes = (
(179,54,o),
(112,96,o),
(112,190,cs),
(112,283,o),
(178,326,o),
(261,326,cs),
(420,326,l),
(420,54,l),
(261,54,ls)
);
}
);
};
layerId = "CEFBB1E5-951F-4065-926E-8B9137F837F5";
shapes = (
{
closed = 1;
nodes = (
(480,0,l),
(480,326,l),
(580,326,l),
(580,380,l),
(480,380,l),
(480,495,l),
(420,495,l),
(420,380,l),
(265,380,ls),
(186,380,o),
(120,420,o),
(120,512,cs),
(120,604,o),
(185,646,o),
(265,646,cs),
(393,646,l),
(393,700,l),
(260,700,ls),
(152,700,o),
(58,635,o),
(58,515,cs),
(58,426,o),
(112,378,o),
(171,359,c),
(171,349,l),
(111,327,o),
(50,272,o),
(50,184,cs),
(50,66,o),
(143,0,o),
(256,0,cs)
);
},
{
closed = 1;
nodes = (
(179,54,o),
(112,96,o),
(112,190,cs),
(112,283,o),
(178,326,o),
(261,326,cs),
(420,326,l),
(420,54,l),
(261,54,ls)
);
}
);
width = 610;
}
);
note = ampersand;
unicode = 38;
},
{
glyphname = asterisk;
lastChange = "2020-08-10 18:23:23 +0000";
layers = (
{
background = {
shapes = (
{
closed = 1;
nodes = (
(401,552,l),
(456,608,l),
(404,660,l),
(348,605,l),
(263,481,l),
(277,467,l)
);
},
{
closed = 1;
nodes = (
(192,343,l),
(277,467,l),
(263,481,l),
(139,396,l),
(84,340,l),
(136,288,l)
);
},
{
closed = 1;
nodes = (
(307,248,l),
(307,326,l),
(280,474,l),
(260,474,l),
(233,326,l),
(233,248,l)
);
},
{
closed = 1;
nodes = (
(122,437,l),
(270,464,l),
(270,484,l),
(122,511,l),
(44,511,l),
(44,437,l)
);
},
{
closed = 1;
nodes = (
(456,340,l),
(401,396,l),
(277,481,l),
(263,467,l),
(348,343,l),
(404,288,l)
);
},
{
closed = 1;
nodes = (
(277,481,l),
(192,605,l),
(136,660,l),
(84,608,l),
(139,552,l),
(263,467,l)
);
},
{
closed = 1;
nodes = (
(313,394,o),
(350,431,o),
(350,474,cs),
(350,519,o),
(313,554,o),
(270,554,cs),
(227,554,o),
(190,519,o),
(190,474,cs),
(190,431,o),
(227,394,o),
(270,394,cs)
);
},
{
closed = 1;
nodes = (
(280,474,l),
(307,622,l),
(307,700,l),
(233,700,l),
(233,622,l),
(260,474,l)
);
},
{
closed = 1;
nodes = (
(496,437,l),
(496,511,l),
(418,511,l),
(270,484,l),
(270,464,l),
(418,437,l)
);
}
);
};
layerId = "5117E3E8-E17C-4812-BAF5-9E7064564A59";
shapes = (
{
closed = 1;
nodes = (
(122,437,l),
(194,450,l),
(199,437,l),
(139,396,l),
(84,340,l),
(136,288,l),
(192,343,l),
(233,403,l),
(246,398,l),
(233,326,l),
(233,248,l),
(307,248,l),
(307,326,l),
(294,398,l),
(307,403,l),
(348,343,l),
(404,288,l),
(456,340,l),
(401,396,l),
(341,437,l),
(346,450,l),
(418,437,l),
(496,437,l),
(496,511,l),
(418,511,l),
(346,498,l),
(341,511,l),
(401,552,l),
(456,608,l),
(404,660,l),
(348,605,l),
(307,545,l),
(294,550,l),
(307,622,l),
(307,700,l),
(233,700,l),
(233,622,l),
(246,550,l),
(233,545,l),
(192,605,l),
(136,660,l),
(84,608,l),
(139,552,l),
(199,511,l),
(194,498,l),
(122,511,l),
(44,511,l),
(44,437,l)
);
}
);
width = 540;
},
{
background = {
shapes = (
{
closed = 1;
nodes = (
(357,561,l),
(419,623,l),
(387,655,l),
(325,593,l),
(249,499,l),
(263,485,l)
);
},
{
closed = 1;
nodes = (
(187,391,l),
(263,485,l),
(249,499,l),
(155,423,l),
(93,361,l),
(125,329,l)
);
},
{
closed = 1;
nodes = (
(279,284,l),
(279,372,l),
(266,492,l),
(246,492,l),
(233,372,l),
(233,284,l)
);
},
{
closed = 1;
nodes = (
(136,469,l),
(256,482,l),
(256,502,l),
(136,515,l),
(48,515,l),
(48,469,l)
);
},
{
closed = 1;
nodes = (
(419,361,l),
(357,423,l),
(263,499,l),
(249,485,l),
(325,391,l),
(387,329,l)
);
},
{
closed = 1;
nodes = (
(263,499,l),
(187,593,l),
(125,655,l),
(93,623,l),
(155,561,l),
(249,485,l)
);
},
{
closed = 1;
nodes = (
(285,438,o),
(310,463,o),
(310,492,cs),
(310,522,o),
(285,546,o),
(256,546,cs),
(227,546,o),
(202,522,o),
(202,492,cs),
(202,463,o),
(227,438,o),
(256,438,cs)
);
},
{
closed = 1;
nodes = (
(266,492,l),
(279,612,l),
(279,700,l),
(233,700,l),
(233,612,l),
(246,492,l)
);
},
{
closed = 1;
nodes = (
(464,469,l),
(464,515,l),
(376,515,l),
(256,502,l),
(256,482,l),
(376,469,l)
);
}
);
};
layerId = "CEFBB1E5-951F-4065-926E-8B9137F837F5";
shapes = (
{
closed = 1;
nodes = (
(136,469,l),
(204,476,l),
(209,466,l),
(155,423,l),
(93,361,l),
(125,329,l),
(187,391,l),
(230,445,l),
(240,440,l),
(233,372,l),
(233,284,l),
(279,284,l),
(279,372,l),
(272,440,l),
(282,445,l),
(325,391,l),
(387,329,l),
(419,361,l),
(357,423,l),
(303,466,l),
(308,476,l),
(376,469,l),
(464,469,l),
(464,515,l),
(376,515,l),
(308,508,l),
(303,518,l),
(357,561,l),
(419,623,l),
(387,655,l),
(325,593,l),
(282,539,l),
(272,544,l),
(279,612,l),
(279,700,l),
(233,700,l),
(233,612,l),
(240,544,l),
(230,539,l),
(187,593,l),
(125,655,l),
(93,623,l),
(155,561,l),
(209,518,l),
(204,508,l),
(136,515,l),
(48,515,l),
(48,469,l)
);
}
);
width = 512;
}
);
note = asterisk;
unicode = 42;
},
{
glyphname = AE;
kernLeft = A;
kernRight = E;
lastChange = "2020-08-10 18:12:01 +0000";
layers = (
{
anchors = (
{
name = top;
pos = (425,700);
}
);
background = {
anchors = (
{
name = top;
pos = (425,700);
}
);
shapes = (
{
closed = 1;
nodes = (
(789,0,l),
(789,120,l),
(505,120,l),
(505,293,l),
(755,293,l),
(755,413,l),
(505,413,l),
(505,580,l),
(783,580,l),
(783,700,l),
(375,700,l),
(375,0,l)
);
},
{
closed = 1;
nodes = (
(153,0,l),
(203,154,l),
(375,154,l),
(375,276,l),
(242,276,l),
(357,630,l),
(375,630,l),
(375,700,l),
(252,700,l),
(18,0,l)
);
}
);
};
layerId = "5117E3E8-E17C-4812-BAF5-9E7064564A59";
shapes = (
{
closed = 1;
nodes = (
(789,0,l),
(789,120,l),
(505,120,l),
(505,293,l),
(755,293,l),
(755,413,l),
(505,413,l),
(505,580,l),
(783,580,l),
(783,700,l),
(375,700,l),
(375,0,l)
);
},
{
closed = 1;
nodes = (
(153,0,l),
(203,154,l),
(375,154,l),
(375,276,l),
(242,276,l),
(357,630,l),
(375,630,l),
(375,700,l),
(252,700,l),
(18,0,l)
);
}
);
width = 821;
},
{
anchors = (
{
name = top;
pos = (430,700);
}
);
background = {
anchors = (
{
name = top;
pos = (430,700);
}
);
shapes = (
{
closed = 1;
nodes = (
(781,0,l),
(781,58,l),
(458,58,l),
(458,322,l),
(749,322,l),
(749,380,l),
(458,380,l),
(458,642,l),
(777,642,l),
(777,700,l),
(394,700,l),
(394,0,l)
);
},
{
closed = 1;
nodes = (
(98,0,l),
(178,186,l),
(394,186,l),
(394,244,l),
(203,244,l),
(383,662,l),
(394,662,l),
(394,700,l),
(334,700,l),
(28,0,l)
);
}
);
};
layerId = "CEFBB1E5-951F-4065-926E-8B9137F837F5";
shapes = (
{
closed = 1;
nodes = (
(781,0,l),
(781,58,l),
(458,58,l),
(458,322,l),
(749,322,l),
(749,380,l),
(458,380,l),
(458,642,l),
(777,642,l),
(777,700,l),
(394,700,l),
(394,0,l)
);
},
{
closed = 1;
nodes = (
(98,0,l),
(178,186,l),
(394,186,l),
(394,244,l),
(203,244,l),
(383,662,l),
(394,662,l),
(394,700,l),
(334,700,l),
(28,0,l)
);
}
);
width = 835;
}
);
metricLeft = A;
metricRight = E;
note = AE;
unicode = 198;
},
{
glyphname = Lslash;
kernRight = L;
lastChange = "2020-08-11 15:55:16 +0000";
layers = (
{
background = {
shapes = (
{
closed = 1;
nodes = (
(588,0,l),
(588,120,l),
(268,120,l),
(268,700,l),
(136,700,l),
(136,0,l)
);
},
{
closed = 1;
nodes = (
(396,393,l),
(356,474,l),
(8,302,l),
(48,221,l)
);
}
);
};
layerId = "5117E3E8-E17C-4812-BAF5-9E7064564A59";
shapes = (
{
closed = 1;
nodes = (
(588,0,l),
(588,120,l),
(268,120,l),
(268,700,l),
(136,700,l),
(136,0,l)
);
},
{
closed = 1;
nodes = (
(396,393,l),
(356,474,l),
(8,302,l),
(48,221,l)
);
}
);
width = 612;
},
{
background = {
shapes = (
{
closed = 1;
nodes = (
(566,0,l),
(566,58,l),
(198,58,l),
(198,700,l),
(134,700,l),
(134,0,l)
);
},
{
closed = 1;
nodes = (
(312,393,l),
(289,437,l),
(20,292,l),
(44,248,l)
);
}
);
};
layerId = "CEFBB1E5-951F-4065-926E-8B9137F837F5";
shapes = (
{
closed = 1;
nodes = (
(566,0,l),
(566,58,l),
(198,58,l),
(198,700,l),
(134,700,l),
(134,0,l)
);
},
{
closed = 1;
nodes = (
(312,393,l),
(289,437,l),
(20,292,l),
(44,248,l)
);
}
);
width = 595;
}
);
metricRight = L;
note = Lslash;
unicode = 321;
},
{
glyphname = OE;
kernLeft = O;
kernRight = E;
lastChange = "2020-08-10 18:12:01 +0000";
layers = (
{
background = {
shapes = (
{
closed = 1;
nodes = (
(804,0,l),
(804,120,l),
(520,120,l),
(520,293,l),
(770,293,l),
(770,413,l),
(520,413,l),
(520,580,l),
(798,580,l),
(798,700,l),
(390,700,l),
(390,0,l)
);
},
{
closed = 1;
nodes = (
(390,112,l),
(240,112,o),
(182,188,o),
(182,312,cs),
(182,388,ls),
(182,512,o),
(240,588,o),
(390,588,c),
(390,700,l),
(174,700,o),
(50,588,o),
(50,382,cs),
(50,318,ls),
(50,112,o),
(174,0,o),
(390,0,c)
);
}
);
};
layerId = "5117E3E8-E17C-4812-BAF5-9E7064564A59";
shapes = (
{
closed = 1;
nodes = (
(804,0,l),
(804,120,l),
(520,120,l),
(520,293,l),
(770,293,l),
(770,413,l),
(520,413,l),
(520,580,l),
(798,580,l),
(798,700,l),
(390,700,l),
(390,0,l)
);
},
{
closed = 1;
nodes = (
(390,112,l),
(240,112,o),
(182,188,o),
(182,312,cs),
(182,388,ls),
(182,512,o),
(240,588,o),
(390,588,c),
(390,700,l),
(174,700,o),
(50,588,o),
(50,382,cs),
(50,318,ls),
(50,112,o),
(174,0,o),
(390,0,c)
);
}
);
width = 836;
},
{
background = {
shapes = (
{
closed = 1;
nodes = (
(785,0,l),
(785,58,l),
(462,58,l),
(462,322,l),
(753,322,l),
(753,380,l),
(462,380,l),
(462,642,l),
(781,642,l),
(781,700,l),
(398,700,l),
(398,0,l)
);
},
{
closed = 1;
nodes = (
(398,56,l),
(216,56,o),
(128,150,o),
(128,308,cs),
(128,392,ls),
(128,549,o),
(217,644,o),
(398,644,c),
(398,700,l),
(187,700,o),
(64,592,o),
(64,385,cs),
(64,315,ls),
(64,108,o),
(187,0,o),
(398,0,c)
);
}
);
};
layerId = "CEFBB1E5-951F-4065-926E-8B9137F837F5";
shapes = (
{
closed = 1;
nodes = (
(785,0,l),
(785,58,l),
(462,58,l),
(462,322,l),
(753,322,l),
(753,380,l),
(462,380,l),
(462,642,l),
(781,642,l),
(781,700,l),
(398,700,l),
(398,0,l)
);
},
{
closed = 1;
nodes = (
(398,56,l),
(216,56,o),
(128,150,o),
(128,308,cs),
(128,392,ls),
(128,549,o),
(217,644,o),
(398,644,c),
(398,700,l),
(187,700,o),
(64,592,o),
(64,385,cs),
(64,315,ls),
(64,108,o),
(187,0,o),
(398,0,c)
);
}
);
width = 839;
}
);
metricLeft = O;
metricRight = E;
note = OE;
unicode = 338;
},
{
glyphname = Thorn;
kernLeft = H;
lastChange = "2020-08-10 18:12:01 +0000";
layers = (
{
background = {
shapes = (
{
closed = 1;
nodes = (
(354,138,ls),
(482,138,o),
(578,222,o),
(578,353,cs),
(578,367,ls),
(578,498,o),
(486,582,o),
(354,582,cs),
(198,582,l),
(198,462,l),
(341,462,ls),
(404,462,o),
(446,425,o),
(446,365,cs),
(446,355,ls),
(446,295,o),
(403,258,o),
(341,258,cs),
(198,258,l),
(198,138,l)
);
},
{
closed = 1;
nodes = (
(198,0,l),
(198,700,l),
(66,700,l),
(66,0,l)
);
}
);
};
layerId = "5117E3E8-E17C-4812-BAF5-9E7064564A59";
shapes = (
{
closed = 1;
nodes = (
(354,138,ls),
(482,138,o),
(578,222,o),
(578,353,cs),
(578,367,ls),
(578,498,o),
(486,582,o),
(354,582,cs),
(198,582,l),
(198,462,l),
(341,462,ls),
(404,462,o),
(446,425,o),
(446,365,cs),
(446,355,ls),
(446,295,o),
(403,258,o),
(341,258,cs),
(198,258,l),
(198,138,l)
);
},
{
closed = 1;
nodes = (
(198,0,l),
(198,700,l),
(66,700,l),
(66,0,l)
);
}
);
width = 604;
},
{
background = {
shapes = (
{
closed = 1;
nodes = (
(345,158,ls),
(466,158,o),
(564,230,o),
(564,356,cs),
(564,367,ls),
(564,493,o),
(468,565,o),
(345,565,cs),
(150,565,l),
(150,507,l),
(338,507,ls),
(440,507,o),
(500,456,o),
(500,366,cs),
(500,357,ls),
(500,267,o),
(438,216,o),
(338,216,cs),
(150,216,l),
(150,158,l)
);
},
{
closed = 1;
nodes = (
(150,0,l),
(150,700,l),
(86,700,l),
(86,0,l)
);
}
);
};
layerId = "CEFBB1E5-951F-4065-926E-8B9137F837F5";
shapes = (
{
closed = 1;
nodes = (
(345,158,ls),
(466,158,o),
(564,230,o),
(564,356,cs),
(564,367,ls),
(564,493,o),
(468,565,o),
(345,565,cs),
(150,565,l),
(150,507,l),
(338,507,ls),
(440,507,o),
(500,456,o),
(500,366,cs),
(500,357,ls),
(500,267,o),
(438,216,o),
(338,216,cs),
(150,216,l),
(150,158,l)
);
},
{
closed = 1;
nodes = (
(150,0,l),
(150,700,l),
(86,700,l),
(86,0,l)
);
}
);
width = 600;
}
);
metricLeft = I;
metricRight = P;
note = Thorn;
unicode = 222;
},
{
glyphname = Eng;
kernLeft = H;
kernRight = H;
lastChange = "2020-08-10 18:12:01 +0000";
layers = (
{
background = {
shapes = (
{
closed = 1;
nodes = (
(198,0,l),
(198,610,l),
(216,610,l),
(353,0,l),
(604,0,l),
(604,700,l),
(472,700,l),
(472,90,l),
(454,90,l),
(317,700,l),
(66,700,l),
(66,0,l)
);
},
{
closed = 1;
nodes = (
(494,-200,ls),
(560,-200,o),
(604,-157,o),
(604,-88,cs),
(604,0,l),
(476,0,l),
(476,-66,ls),
(476,-86,o),
(466,-96,o),
(448,-96,cs),
(354,-96,l),
(354,-200,l)
);
}
);
};
layerId = "5117E3E8-E17C-4812-BAF5-9E7064564A59";
shapes = (
{
closed = 1;
nodes = (
(198,0,l),
(198,610,l),
(216,610,l),
(353,0,l),
(604,0,l),
(604,700,l),
(472,700,l),
(472,90,l),
(454,90,l),
(317,700,l),
(66,700,l),
(66,0,l)
);
},
{
closed = 1;
nodes = (
(494,-200,ls),
(560,-200,o),
(604,-157,o),
(604,-88,cs),
(604,0,l),
(476,0,l),
(476,-66,ls),
(476,-86,o),
(466,-96,o),
(448,-96,cs),
(354,-96,l),
(354,-200,l)
);
}
);
width = 670;
},
{
background = {
shapes = (
{
closed = 1;
nodes = (
(150,0,l),
(150,663,l),
(162,663,l),
(448,0,l),
(575,0,l),
(575,700,l),
(511,700,l),
(511,38,l),
(499,38,l),
(213,700,l),
(86,700,l),
(86,0,l)
);
},
{
closed = 1;
nodes = (
(499,-200,ls),
(546,-200,o),
(575,-177,o),
(575,-126,cs),
(575,0,l),
(513,0,l),
(513,-116,ls),
(513,-136,o),
(505,-146,o),
(484,-146,cs),
(376,-146,l),
(376,-200,l)
);
}
);
};
layerId = "CEFBB1E5-951F-4065-926E-8B9137F837F5";
shapes = (
{
closed = 1;
nodes = (
(150,0,l),
(150,663,l),
(162,663,l),
(448,0,l),
(575,0,l),
(575,700,l),
(511,700,l),
(511,38,l),
(499,38,l),
(213,700,l),
(86,700,l),
(86,0,l)
);
},
{
closed = 1;
nodes = (
(499,-200,ls),
(546,-200,o),
(575,-177,o),
(575,-126,cs),
(575,0,l),
(513,0,l),
(513,-116,ls),
(513,-136,o),
(505,-146,o),
(484,-146,cs),
(376,-146,l),
(376,-200,l)
);
}
);
width = 661;
}
);
metricLeft = N;
metricRight = N;
note = Eng;
unicode = 330;
},
{
glyphname = IJ;
kernLeft = JSerif;
kernRight = JSerif;
lastChange = "2020-08-10 18:12:01 +0000";
layers = (
{
background = {
shapes = (
{
closed = 1;
nodes = (
(518,-14,o),
(608,65,o),
(608,210,cs),
(608,580,l),
(688,580,l),
(688,700,l),
(396,700,l),
(396,580,l),
(476,580,l),
(476,210,ls),
(476,146,o),
(436,110,o),
(365,110,cs),
(290,110,o),
(248,147,o),
(248,210,cs),
(248,230,l),
(116,230,l),
(116,210,ls),
(116,69,o),
(213,-14,o),
(369,-14,cs)
);
},
{
closed = 1;
nodes = (
(248,320,l),
(248,580,l),
(328,580,l),
(328,700,l),
(36,700,l),
(36,580,l),
(116,580,l),
(116,320,l)
);
}
);
};
layerId = "5117E3E8-E17C-4812-BAF5-9E7064564A59";
shapes = (
{
closed = 1;
nodes = (
(518,-14,o),
(608,65,o),
(608,210,cs),
(608,580,l),
(688,580,l),
(688,700,l),
(396,700,l),
(396,580,l),
(476,580,l),
(476,210,ls),
(476,146,o),
(436,110,o),
(365,110,cs),
(290,110,o),
(248,147,o),
(248,210,cs),
(248,230,l),
(116,230,l),
(116,210,ls),
(116,69,o),
(213,-14,o),
(369,-14,cs)
);
},
{
closed = 1;
nodes = (
(248,320,l),
(248,580,l),
(328,580,l),
(328,700,l),
(36,700,l),
(36,580,l),
(116,580,l),
(116,320,l)
);
}
);
width = 730;
},
{
background = {
shapes = (
{
closed = 1;
nodes = (
(506,-15,o),
(578,65,o),
(578,215,cs),
(578,641,l),
(666,641,l),
(666,699,l),
(426,699,l),
(426,641,l),
(514,641,l),
(514,215,ls),
(514,113,o),
(475,43,o),
(362,43,cs),
(251,43,o),
(198,113,o),
(198,215,cs),
(198,228,l),
(134,228,l),
(134,215,ls),
(134,65,o),
(221,-15,o),
(361,-15,cs)
);
},
{
closed = 1;
nodes = (
(198,358,l),
(198,642,l),
(286,642,l),
(286,700,l),
(46,700,l),
(46,642,l),
(134,642,l),
(134,358,l)
);
}
);
};
layerId = "CEFBB1E5-951F-4065-926E-8B9137F837F5";
shapes = (
{
closed = 1;
nodes = (
(506,-15,o),
(578,65,o),
(578,215,cs),
(578,641,l),
(666,641,l),
(666,699,l),
(426,699,l),
(426,641,l),
(514,641,l),
(514,215,ls),
(514,113,o),
(475,43,o),
(362,43,cs),
(251,43,o),
(198,113,o),
(198,215,cs),
(198,228,l),
(134,228,l),
(134,215,ls),
(134,65,o),
(221,-15,o),
(361,-15,cs)
);
},
{
closed = 1;
nodes = (
(198,358,l),
(198,642,l),
(286,642,l),
(286,700,l),
(46,700,l),
(46,642,l),
(134,642,l),
(134,358,l)
);
}
);
width = 712;
}
);
metricRight = J;
note = IJ;
unicode = 306;
},
{
glyphname = IJacute;
kernLeft = JSerif;
kernRight = JSerif;
lastChange = "2020-08-10 18:12:01 +0000";
layers = (
{
background = {
shapes = (
{
closed = 1;
nodes = (
(518,-14,o),
(608,65,o),
(608,210,cs),
(608,580,l),
(688,580,l),
(688,700,l),
(396,700,l),
(396,580,l),
(476,580,l),
(476,210,ls),
(476,146,o),
(436,110,o),
(365,110,cs),
(290,110,o),
(248,147,o),
(248,210,cs),
(248,230,l),
(116,230,l),
(116,210,ls),
(116,69,o),
(213,-14,o),
(369,-14,cs)
);
},
{
closed = 1;
nodes = (
(248,320,l),
(248,580,l),
(328,580,l),
(328,700,l),
(36,700,l),
(36,580,l),
(116,580,l),
(116,320,l)
);
},
{
closed = 1;
nodes = (
(216,758,l),
(320,888,l),
(174,888,l),
(104,758,l)
);
},
{
closed = 1;
nodes = (
(576,758,l),
(692,888,l),
(546,888,l),
(464,758,l)
);
}
);
};
layerId = "5117E3E8-E17C-4812-BAF5-9E7064564A59";
shapes = (
{
closed = 1;
nodes = (
(518,-14,o),
(608,65,o),
(608,210,cs),
(608,580,l),
(688,580,l),
(688,700,l),
(396,700,l),
(396,580,l),
(476,580,l),
(476,210,ls),
(476,146,o),
(436,110,o),
(365,110,cs),
(290,110,o),
(248,147,o),
(248,210,cs),
(248,230,l),
(116,230,l),
(116,210,ls),
(116,69,o),
(213,-14,o),
(369,-14,cs)
);
},
{
closed = 1;
nodes = (
(248,320,l),
(248,580,l),
(328,580,l),
(328,700,l),
(36,700,l),
(36,580,l),
(116,580,l),
(116,320,l)
);
},
{
closed = 1;
nodes = (
(216,758,l),
(320,888,l),
(174,888,l),
(104,758,l)
);
},
{
closed = 1;
nodes = (
(576,758,l),
(692,888,l),
(546,888,l),
(464,758,l)
);
}
);
width = 734;
},
{
background = {
shapes = (
{
closed = 1;
nodes = (
(506,-15,o),
(578,65,o),
(578,215,cs),
(578,641,l),
(666,641,l),
(666,699,l),
(426,699,l),
(426,641,l),
(514,641,l),
(514,215,ls),
(514,113,o),
(475,43,o),
(362,43,cs),
(251,43,o),
(198,113,o),
(198,215,cs),
(198,228,l),
(134,228,l),
(134,215,ls),
(134,65,o),
(221,-15,o),
(361,-15,cs)
);
},
{
closed = 1;
nodes = (
(198,358,l),
(198,642,l),
(286,642,l),
(286,700,l),
(46,700,l),
(46,642,l),
(134,642,l),
(134,358,l)
);
},
{
closed = 1;
nodes = (
(181,758,l),
(263,876,l),
(185,876,l),
(119,758,l)
);
},
{
closed = 1;
nodes = (
(561,758,l),
(643,876,l),
(565,876,l),
(499,758,l)
);
}
);
};
layerId = "CEFBB1E5-951F-4065-926E-8B9137F837F5";
shapes = (
{
closed = 1;
nodes = (
(506,-15,o),
(578,65,o),
(578,215,cs),
(578,641,l),
(666,641,l),
(666,699,l),
(426,699,l),
(426,641,l),
(514,641,l),
(514,215,ls),
(514,113,o),
(475,43,o),
(362,43,cs),
(251,43,o),
(198,113,o),
(198,215,cs),
(198,228,l),
(134,228,l),
(134,215,ls),
(134,65,o),
(221,-15,o),
(361,-15,cs)
);
},
{
closed = 1;
nodes = (
(198,358,l),
(198,642,l),
(286,642,l),
(286,700,l),
(46,700,l),
(46,642,l),
(134,642,l),
(134,358,l)
);
},
{
closed = 1;
nodes = (
(181,758,l),
(263,876,l),
(185,876,l),
(119,758,l)
);
},
{
closed = 1;
nodes = (
(561,758,l),
(643,876,l),
(565,876,l),
(499,758,l)
);
}
);
width = 712;
}
);
metricLeft = IJ;
metricRight = IJ;
note = IJ;
unicode = 57651;
},
{
glyphname = ae;
kernLeft = a;
kernRight = o;
lastChange = "2020-08-10 18:12:01 +0000";
layers = (
{
anchors = (
{
name = top;
pos = (444,496);
}
);
background = {
anchors = (
{
name = top;
pos = (444,496);
}
);
shapes = (
{
closed = 1;
nodes = (
(726,-14,o),
(780,39,o),
(819,94,c),
(726,161,l),
(708,132,o),
(677,96,o),
(609,96,cs),
(539,96,o),
(494,142,o),
(491,205,c),
(832,205,l),
(832,266,ls),
(832,400,o),
(751,510,o),
(607,510,cs),
(473,510,o),
(378,398,o),
(378,252,cs),
(378,106,o),
(473,-14,o),
(615,-14,cs)
);
},
{
closed = 1;
nodes = (
(192,88,o),
(162,113,o),
(162,149,cs),
(162,185,o),
(192,205,o),
(243,205,cs),
(368,205,l),
(368,198,ls),
(368,132,o),
(320,88,o),
(250,88,cs)
);
},
{
closed = 1;
nodes = (
(353,-14,o),
(399,45,o),
(417,75,c),
(445,75,l),
(436,260,l),
(458,442,l),
(430,442,l),
(398,482,o),
(351,510,o),
(270,510,cs),
(145,510,o),
(79,445,o),
(52,370,c),
(164,331,l),
(177,375,o),
(209,408,o),
(270,408,cs),
(334,408,o),
(368,373,o),
(368,328,cs),
(368,299,l),
(234,299,ls),
(118,299,o),
(38,246,o),
(38,144,cs),
(38,42,o),
(120,-14,o),
(236,-14,cs)
);
},
{
closed = 1;
nodes = (
(494,360,o),
(535,400,o),
(602,400,cs),
(665,400,o),
(706,362,o),
(708,299,c),
(492,299,l)
);
}
);
};
layerId = "5117E3E8-E17C-4812-BAF5-9E7064564A59";
shapes = (
{
closed = 1;
nodes = (
(726,-14,o),
(780,39,o),
(819,94,c),
(726,161,l),
(708,132,o),
(677,96,o),
(609,96,cs),
(539,96,o),
(494,142,o),
(491,205,c),
(832,205,l),
(832,266,ls),
(832,400,o),
(751,510,o),
(607,510,cs),
(473,510,o),
(378,398,o),
(378,252,cs),
(378,106,o),
(473,-14,o),
(615,-14,cs)
);
},
{
closed = 1;
nodes = (
(192,88,o),
(162,113,o),
(162,149,cs),
(162,185,o),
(192,205,o),
(243,205,cs),
(368,205,l),
(368,198,ls),
(368,132,o),
(320,88,o),
(250,88,cs)
);
},
{
closed = 1;
nodes = (
(353,-14,o),
(399,45,o),
(417,75,c),
(445,75,l),
(436,260,l),
(458,442,l),
(430,442,l),
(398,482,o),
(351,510,o),
(270,510,cs),
(145,510,o),
(79,445,o),
(52,370,c),
(164,331,l),
(177,375,o),
(209,408,o),
(270,408,cs),
(334,408,o),
(368,373,o),
(368,328,cs),
(368,299,l),
(234,299,ls),
(118,299,o),
(38,246,o),
(38,144,cs),
(38,42,o),
(120,-14,o),
(236,-14,cs)
);
},
{
closed = 1;
nodes = (
(494,360,o),
(535,400,o),
(602,400,cs),
(665,400,o),
(706,362,o),
(708,299,c),
(492,299,l)
);
}
);
width = 874;
},
{
anchors = (
{
name = top;
pos = (480,486);
}
);
background = {
anchors = (
{
name = top;
pos = (480,486);
}
);
shapes = (
{
closed = 1;
nodes = (
(787,-14,o),
(840,49,o),
(876,119,c),
(824,146,l),
(798,89,o),
(756,40,o),
(669,40,cs),
(563,40,o),
(492,111,o),
(486,227,c),
(886,227,l),
(886,263,ls),
(886,410,o),
(795,500,o),
(661,500,cs),
(526,500,o),
(430,390,o),
(430,247,cs),
(430,100,o),
(524,-14,o),
(670,-14,cs)
);
},
{
closed = 1;
nodes = (
(172,37,o),
(114,74,o),
(114,136,cs),
(114,197,o),
(170,227,o),
(243,227,cs),
(425,227,l),
(425,217,ls),
(425,103,o),
(354,37,o),
(251,37,cs)
);
},
{
closed = 1;
nodes = (
(365,-14,o),
(425,44,o),
(451,110,c),
(476,110,l),
(461,253,l),
(483,397,l),
(462,397,l),
(437,460,o),
(375,500,o),
(285,500,cs),
(162,500,o),
(92,432,o),
(69,349,c),
(125,332,l),
(144,401,o),
(197,446,o),
(285,446,cs),
(372,446,o),
(425,399,o),
(425,321,cs),
(425,278,l),
(242,278,ls),
(135,278,o),
(55,232,o),
(55,135,cs),
(55,38,o),
(137,-14,o),
(249,-14,cs)
);
},
{
closed = 1;
nodes = (
(497,382,o),
(565,445,o),
(661,445,cs),
(757,445,o),
(821,387,o),
(825,278,c),
(486,278,l)
);
}
);
};
layerId = "CEFBB1E5-951F-4065-926E-8B9137F837F5";
shapes = (
{
closed = 1;
nodes = (
(787,-14,o),
(840,49,o),
(876,119,c),
(824,146,l),
(798,89,o),
(756,40,o),
(669,40,cs),
(563,40,o),
(492,111,o),
(486,227,c),
(886,227,l),
(886,263,ls),
(886,410,o),
(795,500,o),
(661,500,cs),
(526,500,o),
(430,390,o),
(430,247,cs),
(430,100,o),
(524,-14,o),
(670,-14,cs)
);
},
{
closed = 1;
nodes = (
(172,37,o),
(114,74,o),
(114,136,cs),
(114,197,o),
(170,227,o),
(243,227,cs),
(425,227,l),
(425,217,ls),
(425,103,o),
(354,37,o),
(251,37,cs)
);
},
{
closed = 1;
nodes = (
(365,-14,o),
(425,44,o),
(451,110,c),
(476,110,l),
(461,253,l),
(483,397,l),
(462,397,l),
(437,460,o),
(375,500,o),
(285,500,cs),
(162,500,o),
(92,432,o),
(69,349,c),
(125,332,l),
(144,401,o),
(197,446,o),
(285,446,cs),
(372,446,o),
(425,399,o),
(425,321,cs),
(425,278,l),
(242,278,ls),
(135,278,o),
(55,232,o),
(55,135,cs),
(55,38,o),
(137,-14,o),
(249,-14,cs)
);
},
{
closed = 1;
nodes = (
(497,382,o),
(565,445,o),
(661,445,cs),
(757,445,o),
(821,387,o),
(825,278,c),
(486,278,l)
);
}
);
width = 946;
}
);
metricLeft = a;
metricRight = e;
note = ae;
unicode = 230;
},
{
glyphname = eth;
kernLeft = o;
kernRight = o;
lastChange = "2020-08-10 18:12:01 +0000";
layers = (
{
background = {
shapes = (
{
closed = 1;
nodes = (
(462,-12,o),
(568,89,o),
(568,289,cs),
(568,513,o),
(451,695,o),
(228,770,c),
(188,669,l),
(317,623,o),
(406,545,o),
(431,440,c),
(413,440,l),
(382,476,o),
(339,501,o),
(271,500,cs),
(149,498,o),
(46,401,o),
(46,252,cs),
(46,242,ls),
(46,89,o),
(152,-16,o),
(307,-14,cs)
);
},
{
closed = 1;
nodes = (
(229,98,o),
(172,151,o),
(172,245,cs),
(172,249,ls),
(172,343,o),
(228,396,o),
(306,396,cs),
(384,396,o),
(440,343,o),
(440,249,cs),
(440,245,ls),
(440,151,o),
(383,98,o),
(306,98,cs)
);
},
{
closed = 1;
nodes = (
(436,740,l),
(377,784,l),
(224,573,l),
(282,530,l)
);
}
);
};
layerId = "5117E3E8-E17C-4812-BAF5-9E7064564A59";
shapes = (
{
closed = 1;
nodes = (
(462,-12,o),
(568,89,o),
(568,289,cs),
(568,513,o),
(451,695,o),
(228,770,c),
(188,669,l),
(317,623,o),
(406,545,o),
(431,440,c),
(413,440,l),
(382,476,o),
(339,501,o),
(271,500,cs),
(149,498,o),
(46,401,o),
(46,252,cs),
(46,242,ls),
(46,89,o),
(152,-16,o),
(307,-14,cs)
);
},
{
closed = 1;
nodes = (
(229,98,o),
(172,151,o),
(172,245,cs),
(172,249,ls),
(172,343,o),
(228,396,o),
(306,396,cs),
(384,396,o),
(440,343,o),
(440,249,cs),
(440,245,ls),
(440,151,o),
(383,98,o),
(306,98,cs)
);
},
{
closed = 1;
nodes = (
(436,740,l),
(377,784,l),
(224,573,l),
(282,530,l)
);
}
);
width = 616;
},
{
background = {
shapes = (
{
closed = 1;
nodes = (
(459,-14,o),
(556,86,o),
(556,261,cs),
(556,517,o),
(434,651,o),
(229,711,c),
(211,665,l),
(365,621,o),
(447,533,o),
(474,431,c),
(463,431,l),
(429,471,o),
(377,499,o),
(300,499,cs),
(161,499,o),
(64,399,o),
(64,249,cs),
(64,237,ls),
(64,86,o),
(162,-14,o),
(310,-14,cs)
);
},
{
closed = 1;
nodes = (
(197,40,o),
(124,120,o),
(124,239,cs),
(124,247,ls),
(124,366,o),
(196,446,o),
(310,446,cs),
(423,446,o),
(496,366,o),
(496,247,cs),
(496,239,ls),
(496,120,o),
(422,40,o),
(310,40,cs)
);
},
{
closed = 1;
nodes = (
(404,701,l),
(366,727,l),
(256,576,l),
(294,550,l)
);
}
);
};
layerId = "CEFBB1E5-951F-4065-926E-8B9137F837F5";
shapes = (
{
closed = 1;
nodes = (
(459,-14,o),
(556,86,o),
(556,261,cs),
(556,517,o),
(434,651,o),
(229,711,c),
(211,665,l),
(365,621,o),
(447,533,o),
(474,431,c),
(463,431,l),
(429,471,o),
(377,499,o),
(300,499,cs),
(161,499,o),
(64,399,o),
(64,249,cs),
(64,237,ls),
(64,86,o),
(162,-14,o),
(310,-14,cs)
);
},
{
closed = 1;
nodes = (
(197,40,o),
(124,120,o),
(124,239,cs),
(124,247,ls),
(124,366,o),
(196,446,o),
(310,446,cs),
(423,446,o),
(496,366,o),
(496,247,cs),
(496,239,ls),
(496,120,o),
(422,40,o),
(310,40,cs)
);
},
{
closed = 1;
nodes = (
(404,701,l),
(366,727,l),
(256,576,l),
(294,550,l)
);
}
);
width = 614;
}
);
metricLeft = o;
note = eth;
unicode = 240;
},
{
glyphname = kgreenlandic;
kernLeft = n;
kernRight = k;
lastChange = "2020-08-10 18:12:01 +0000";
layers = (
{
background = {
shapes = (
{
closed = 1;
nodes = (
(148,0,l),
(148,219,l),
(160,219,l),
(418,0,l),
(505,0,l),
(209,249,l),
(497,486,l),
(409,486,l),
(160,278,l),
(148,278,l),
(148,486,l),
(88,486,l),
(88,0,l)
);
}
);
};
layerId = "CEFBB1E5-951F-4065-926E-8B9137F837F5";
shapes = (
{
closed = 1;
nodes = (
(148,0,l),
(148,219,l),
(160,219,l),
(418,0,l),
(505,0,l),
(209,249,l),
(497,486,l),
(409,486,l),
(160,278,l),
(148,278,l),
(148,486,l),
(88,486,l),
(88,0,l)
);
}
);
width = 527;
},
{
background = {
shapes = (
{
closed = 1;
nodes = (
(196,0,l),
(196,197,l),
(214,197,l),
(388,0,l),
(550,0,l),
(313,256,l),
(542,496,l),
(378,496,l),
(214,313,l),
(196,313,l),
(196,496,l),
(70,496,l),
(70,0,l)
);
}
);
};
layerId = "5117E3E8-E17C-4812-BAF5-9E7064564A59";
shapes = (
{
closed = 1;
nodes = (
(196,0,l),
(196,197,l),
(214,197,l),
(388,0,l),
(550,0,l),
(313,256,l),
(542,496,l),
(378,496,l),
(214,313,l),
(196,313,l),
(196,496,l),
(70,496,l),
(70,0,l)
);
}
);
width = 564;
}
);
metricLeft = n;
metricRight = k;
unicode = 312;
},
{
glyphname = lslash;
kernLeft = lslash;
kernRight = lslash;
lastChange = "2020-08-11 15:30:26 +0000";
layers = (
{
background = {
shapes = (
{
closed = 1;
nodes = (
(404,359,l),
(367,434,l),
(16,262,l),
(53,187,l)
);
},
{
closed = 1;
nodes = (
(273,0,l),
(273,700,l),
(147,700,l),
(147,0,l)
);
}
);
};
layerId = "5117E3E8-E17C-4812-BAF5-9E7064564A59";
shapes = (
{
closed = 1;
nodes = (
(404,359,l),
(367,434,l),
(16,262,l),
(53,187,l)
);
},
{
closed = 1;
nodes = (
(273,0,l),
(273,700,l),
(147,700,l),
(147,0,l)
);
}
);
width = 420;
},
{
background = {
shapes = (
{
closed = 1;
nodes = (
(320,349,l),
(298,390,l),
(28,245,l),
(50,204,l)
);
},
{
closed = 1;
nodes = (
(204,0,l),
(204,700,l),
(144,700,l),
(144,0,l)
);
}
);
};
layerId = "CEFBB1E5-951F-4065-926E-8B9137F837F5";
shapes = (
{
closed = 1;
nodes = (
(320,349,l),
(298,390,l),
(28,245,l),
(50,204,l)
);
},
{
closed = 1;
nodes = (
(204,0,l),
(204,700,l),
(144,700,l),
(144,0,l)
);
}
);
width = 348;
}
);
note = lslash;
unicode = 322;
},
{
glyphname = oe;
kernLeft = o;
kernRight = o;
lastChange = "2020-08-10 18:12:01 +0000";
layers = (
{
background = {
shapes = (
{
closed = 1;
nodes = (
(393,-14,o),
(458,24,o),
(497,84,c),
(515,84,l),
(548,25,o),
(618,-14,o),
(707,-14,cs),
(839,-14,o),
(898,63,o),
(926,116,c),
(823,170,l),
(806,132,o),
(777,96,o),
(707,96,cs),
(637,96,o),
(584,143,o),
(581,211,c),
(942,211,l),
(942,254,ls),
(942,406,o),
(847,510,o),
(701,510,cs),
(621,510,o),
(555,472,o),
(515,412,c),
(497,412,l),
(458,472,o),
(393,510,o),
(299,510,cs),
(157,510,o),
(46,416,o),
(46,256,cs),
(46,240,ls),
(46,80,o),
(157,-14,o),
(299,-14,cs)
);
},
{
closed = 1;
nodes = (
(229,98,o),
(172,150,o),
(172,243,cs),
(172,253,ls),
(172,346,o),
(228,398,o),
(306,398,cs),
(384,398,o),
(440,346,o),
(440,253,cs),
(440,243,ls),
(440,150,o),
(383,98,o),
(306,98,cs)
);
},
{
closed = 1;
nodes = (
(590,360,o),
(632,400,o),
(700,400,cs),
(765,400,o),
(808,362,o),
(814,305,c),
(582,305,l)
);
}
);
};
layerId = "5117E3E8-E17C-4812-BAF5-9E7064564A59";
shapes = (
{
closed = 1;
nodes = (
(393,-14,o),
(458,24,o),
(497,84,c),
(515,84,l),
(548,25,o),
(618,-14,o),
(707,-14,cs),
(839,-14,o),
(898,63,o),
(926,116,c),
(823,170,l),
(806,132,o),
(777,96,o),
(707,96,cs),
(637,96,o),
(584,143,o),
(581,211,c),
(942,211,l),
(942,254,ls),
(942,406,o),
(847,510,o),
(701,510,cs),
(621,510,o),
(555,472,o),
(515,412,c),
(497,412,l),
(458,472,o),
(393,510,o),
(299,510,cs),
(157,510,o),
(46,416,o),
(46,256,cs),
(46,240,ls),
(46,80,o),
(157,-14,o),
(299,-14,cs)
);
},
{
closed = 1;
nodes = (
(229,98,o),
(172,150,o),
(172,243,cs),
(172,253,ls),
(172,346,o),
(228,398,o),
(306,398,cs),
(384,398,o),
(440,346,o),
(440,253,cs),
(440,243,ls),
(440,150,o),
(383,98,o),
(306,98,cs)
);
},
{
closed = 1;
nodes = (
(590,360,o),
(632,400,o),
(700,400,cs),
(765,400,o),
(808,362,o),
(814,305,c),
(582,305,l)
);
}
);
width = 984;
},
{
background = {
shapes = (
{
closed = 1;
nodes = (
(411,-14,o),
(487,36,o),
(522,123,c),
(534,123,l),
(570,40,o),
(649,-14,o),
(753,-14,cs),
(882,-14,o),
(937,58,o),
(969,124,c),
(914,147,l),
(887,87,o),
(843,40,o),
(752,40,cs),
(644,40,o),
(569,112,o),
(564,231,c),
(977,231,l),
(977,262,ls),
(977,410,o),
(881,500,o),
(746,500,cs),
(650,500,o),
(572,447,o),
(534,363,c),
(522,363,l),
(487,449,o),
(411,500,o),
(309,500,cs),
(161,500,o),
(64,399,o),
(64,249,cs),
(64,236,ls),
(64,87,o),
(161,-14,o),
(309,-14,cs)
);
},
{
closed = 1;
nodes = (
(197,40,o),
(123,119,o),
(123,239,cs),
(123,247,ls),
(123,366,o),
(196,445,o),
(310,445,cs),
(423,445,o),
(496,366,o),
(496,247,cs),
(496,239,ls),
(496,119,o),
(422,40,o),
(310,40,cs)
);
},
{
closed = 1;
nodes = (
(576,382,o),
(647,445,o),
(745,445,cs),
(843,445,o),
(911,387,o),
(915,282,c),
(565,282,l)
);
}
);
};
layerId = "CEFBB1E5-951F-4065-926E-8B9137F837F5";
shapes = (
{
closed = 1;
nodes = (
(411,-14,o),
(487,36,o),
(522,123,c),
(534,123,l),
(570,40,o),
(649,-14,o),
(753,-14,cs),
(882,-14,o),
(937,58,o),
(969,124,c),
(914,147,l),
(887,87,o),
(843,40,o),
(752,40,cs),
(644,40,o),
(569,112,o),
(564,231,c),
(977,231,l),
(977,262,ls),
(977,410,o),
(881,500,o),
(746,500,cs),
(650,500,o),
(572,447,o),
(534,363,c),
(522,363,l),
(487,449,o),
(411,500,o),
(309,500,cs),
(161,500,o),
(64,399,o),
(64,249,cs),
(64,236,ls),
(64,87,o),
(161,-14,o),
(309,-14,cs)
);
},
{
closed = 1;
nodes = (
(197,40,o),
(123,119,o),
(123,239,cs),
(123,247,ls),
(123,366,o),
(196,445,o),
(310,445,cs),
(423,445,o),
(496,366,o),
(496,247,cs),
(496,239,ls),
(496,119,o),
(422,40,o),
(310,40,cs)
);
},
{
closed = 1;
nodes = (
(576,382,o),
(647,445,o),
(745,445,cs),
(843,445,o),
(911,387,o),
(915,282,c),
(565,282,l)
);
}
);
width = 1037;
}
);
metricLeft = o;
metricRight = e;
note = oe;
unicode = 339;
},
{
glyphname = germandbls;
lastChange = "2020-08-10 18:12:01 +0000";
layers = (
{
background = {
shapes = (
{
closed = 1;
nodes = (
(552,-14,o),
(627,60,o),
(627,158,cs),
(627,256,o),
(564,298,o),
(480,328,cs),
(455,337,ls),
(437,343,o),
(429,350,o),
(429,360,cs),
(429,369,o),
(435,375,o),
(446,382,cs),
(500,417,o),
(552,460,o),
(552,547,cs),
(552,643,o),
(460,714,o),
(336,714,cs),
(179,714,o),
(70,610,o),
(70,430,cs),
(70,0,l),
(196,0,l),
(196,434,ls),
(196,564,o),
(269,608,o),
(336,608,cs),
(390,608,o),
(428,581,o),
(428,543,cs),
(428,501,o),
(397,473,o),
(365,450,cs),
(322,419,o),
(300,393,o),
(300,347,cs),
(300,303,o),
(326,269,o),
(385,248,cs),
(427,233,ls),
(474,216,o),
(503,199,o),
(503,159,cs),
(503,119,o),
(474,88,o),
(426,88,cs),
(372,88,o),
(343,119,o),
(333,164,c),
(219,127,l),
(237,60,o),
(300,-14,o),
(426,-14,cs)
);
}
);
};
layerId = "5117E3E8-E17C-4812-BAF5-9E7064564A59";
shapes = (
{
closed = 1;
nodes = (
(552,-14,o),
(627,60,o),
(627,158,cs),
(627,256,o),
(564,298,o),
(480,328,cs),
(455,337,ls),
(437,343,o),
(429,350,o),
(429,360,cs),
(429,369,o),
(435,375,o),
(446,382,cs),
(500,417,o),
(552,460,o),
(552,547,cs),
(552,643,o),
(460,714,o),
(336,714,cs),
(179,714,o),
(70,610,o),
(70,430,cs),
(70,0,l),
(196,0,l),
(196,434,ls),
(196,564,o),
(269,608,o),
(336,608,cs),
(390,608,o),
(428,581,o),
(428,543,cs),
(428,501,o),
(397,473,o),
(365,450,cs),
(322,419,o),
(300,393,o),
(300,347,cs),
(300,303,o),
(326,269,o),
(385,248,cs),
(427,233,ls),
(474,216,o),
(503,199,o),
(503,159,cs),
(503,119,o),
(474,88,o),
(426,88,cs),
(372,88,o),
(343,119,o),
(333,164,c),
(219,127,l),
(237,60,o),
(300,-14,o),
(426,-14,cs)
);
}
);
width = 651;
},
{
background = {
shapes = (
{
closed = 1;
nodes = (
(514,-14,o),
(587,45,o),
(587,140,cs),
(587,234,o),
(513,270,o),
(437,305,cs),
(394,326,ls),
(372,335,o),
(361,348,o),
(361,363,cs),
(361,378,o),
(369,389,o),
(392,401,cs),
(460,438,o),
(517,480,o),
(517,565,cs),
(517,647,o),
(444,714,o),
(331,714,cs),
(188,714,o),
(88,614,o),
(88,446,cs),
(88,0,l),
(147,0,l),
(147,450,ls),
(147,603,o),
(246,661,o),
(331,661,cs),
(401,661,o),
(458,626,o),
(458,564,cs),
(458,506,o),
(416,474,o),
(369,448,cs),
(330,427,o),
(301,405,o),
(301,361,cs),
(301,327,o),
(323,299,o),
(369,278,cs),
(405,261,ls),
(466,233,o),
(528,204,o),
(528,140,cs),
(528,75,o),
(480,39,o),
(402,39,cs),
(323,39,o),
(266,75,o),
(250,161,c),
(194,149,l),
(208,44,o),
(287,-14,o),
(402,-14,cs)
);
}
);
};
layerId = "CEFBB1E5-951F-4065-926E-8B9137F837F5";
shapes = (
{
closed = 1;
nodes = (
(514,-14,o),
(587,45,o),
(587,140,cs),
(587,234,o),
(513,270,o),
(437,305,cs),
(394,326,ls),
(372,335,o),
(361,348,o),
(361,363,cs),
(361,378,o),
(369,389,o),
(392,401,cs),
(460,438,o),
(517,480,o),
(517,565,cs),
(517,647,o),
(444,714,o),
(331,714,cs),
(188,714,o),
(88,614,o),
(88,446,cs),
(88,0,l),
(147,0,l),
(147,450,ls),
(147,603,o),
(246,661,o),
(331,661,cs),
(401,661,o),
(458,626,o),
(458,564,cs),
(458,506,o),
(416,474,o),
(369,448,cs),
(330,427,o),
(301,405,o),
(301,361,cs),
(301,327,o),
(323,299,o),
(369,278,cs),
(405,261,ls),
(466,233,o),
(528,204,o),
(528,140,cs),
(528,75,o),
(480,39,o),
(402,39,cs),
(323,39,o),
(266,75,o),
(250,161,c),
(194,149,l),
(208,44,o),
(287,-14,o),
(402,-14,cs)
);
}
);
width = 618;
}
);
metricLeft = n;
note = germandbls;
unicode = 223;
},
{
glyphname = longs;
kernLeft = t;
lastChange = "2020-08-10 18:12:01 +0000";
layers = (
{
background = {
shapes = (
{
closed = 1;
nodes = (
(202,0,l),
(202,616,ls),
(202,636,o),
(210,646,o),
(232,646,cs),
(336,646,l),
(336,700,l),
(220,700,ls),
(168,700,o),
(142,672,o),
(142,624,cs),
(142,486,l),
(30,486,l),
(30,432,l),
(142,432,l),
(142,0,l)
);
}
);
};
layerId = "CEFBB1E5-951F-4065-926E-8B9137F837F5";
shapes = (
{
closed = 1;
nodes = (
(202,0,l),
(202,616,ls),
(202,636,o),
(210,646,o),
(232,646,cs),
(336,646,l),
(336,700,l),
(220,700,ls),
(168,700,o),
(142,672,o),
(142,624,cs),
(142,486,l),
(30,486,l),
(30,432,l),
(142,432,l),
(142,0,l)
);
}
);
width = 334;
},
{
background = {
shapes = (
{
closed = 1;
nodes = (
(258,0,l),
(258,566,ls),
(258,586,o),
(268,596,o),
(286,596,cs),
(372,596,l),
(372,700,l),
(242,700,ls),
(176,700,o),
(132,656,o),
(132,588,cs),
(132,496,l),
(26,496,l),
(26,392,l),
(132,392,l),
(132,0,l)
);
}
);
};
layerId = "5117E3E8-E17C-4812-BAF5-9E7064564A59";
shapes = (
{
closed = 1;
nodes = (
(258,0,l),
(258,566,ls),
(258,586,o),
(268,596,o),
(286,596,cs),
(372,596,l),
(372,700,l),
(242,700,ls),
(176,700,o),
(132,656,o),
(132,588,cs),
(132,496,l),
(26,496,l),
(26,392,l),
(132,392,l),
(132,0,l)
);
}
);
width = 370;
}
);
metricLeft = f;
unicode = 383;
},
{
glyphname = tbar;
kernLeft = t;
kernRight = t;
lastChange = "2020-08-10 18:12:01 +0000";
layers = (
{
background = {
shapes = (
{
closed = 1;
nodes = (
(400,0,l),
(400,104,l),
(304,104,ls),
(286,104,o),
(276,114,o),
(276,134,cs),
(276,392,l),
(412,392,l),
(412,496,l),
(276,496,l),
(276,650,l),
(150,650,l),
(150,496,l),
(26,496,l),
(26,392,l),
(150,392,l),
(150,112,ls),
(150,44,o),
(194,0,o),
(260,0,cs)
);
},
{
closed = 1;
nodes = (
(412,208,l),
(412,292,l),
(26,292,l),
(26,208,l)
);
}
);
};
layerId = "5117E3E8-E17C-4812-BAF5-9E7064564A59";
shapes = (
{
closed = 1;
nodes = (
(400,0,l),
(400,104,l),
(304,104,ls),
(286,104,o),
(276,114,o),
(276,134,cs),
(276,392,l),
(412,392,l),
(412,496,l),
(276,496,l),
(276,650,l),
(150,650,l),
(150,496,l),
(26,496,l),
(26,392,l),
(150,392,l),
(150,112,ls),
(150,44,o),
(194,0,o),
(260,0,cs)
);
},
{
closed = 1;
nodes = (
(412,208,l),
(412,292,l),
(26,292,l),
(26,208,l)
);
}
);
width = 456;
},
{
background = {
shapes = (
{
closed = 1;
nodes = (
(390,0,l),
(390,54,l),
(275,54,ls),
(255,54,o),
(246,64,o),
(246,84,cs),
(246,432,l),
(416,432,l),
(416,486,l),
(246,486,l),
(246,668,l),
(186,668,l),
(186,486,l),
(30,486,l),
(30,432,l),
(186,432,l),
(186,74,ls),
(186,27,o),
(215,0,o),
(262,0,cs)
);
},
{
closed = 1;
nodes = (
(416,224,l),
(416,272,l),
(30,272,l),
(30,224,l)
);
}
);
};
layerId = "CEFBB1E5-951F-4065-926E-8B9137F837F5";
shapes = (
{
closed = 1;
nodes = (
(390,0,l),
(390,54,l),
(275,54,ls),
(255,54,o),
(246,64,o),
(246,84,cs),
(246,432,l),
(416,432,l),
(416,486,l),
(246,486,l),
(246,668,l),
(186,668,l),
(186,486,l),
(30,486,l),
(30,432,l),
(186,432,l),
(186,74,ls),
(186,27,o),
(215,0,o),
(262,0,cs)
);
},
{
closed = 1;
nodes = (
(416,224,l),
(416,272,l),
(30,272,l),
(30,224,l)
);
}
);
width = 462;
}
);
metricLeft = t;
metricRight = t;
note = tbar;
unicode = 359;
},
{
glyphname = thorn;
kernLeft = l;
kernRight = o;
lastChange = "2020-08-10 18:12:01 +0000";
layers = (
{
background = {
shapes = (
{
closed = 1;
nodes = (
(196,-200,l),
(196,57,l),
(214,57,l),
(235,22,o),
(278,-14,o),
(368,-14,cs),
(488,-14,o),
(592,78,o),
(592,240,cs),
(592,256,ls),
(592,418,o),
(488,510,o),
(368,510,cs),
(278,510,o),
(235,474,o),
(214,439,c),
(196,439,l),
(196,700,l),
(70,700,l),
(70,-200,l)
);
},
{
closed = 1;
nodes = (
(252,96,o),
(194,147,o),
(194,243,cs),
(194,253,ls),
(194,349,o),
(252,400,o),
(330,400,cs),
(408,400,o),
(466,349,o),
(466,253,cs),
(466,243,ls),
(466,147,o),
(408,96,o),
(330,96,cs)
);
}
);
};
layerId = "5117E3E8-E17C-4812-BAF5-9E7064564A59";
shapes = (
{
closed = 1;
nodes = (
(196,-200,l),
(196,57,l),
(214,57,l),
(235,22,o),
(278,-14,o),
(368,-14,cs),
(488,-14,o),
(592,78,o),
(592,240,cs),
(592,256,ls),
(592,418,o),
(488,510,o),
(368,510,cs),
(278,510,o),
(235,474,o),
(214,439,c),
(196,439,l),
(196,700,l),
(70,700,l),
(70,-200,l)
);
},
{
closed = 1;
nodes = (
(252,96,o),
(194,147,o),
(194,243,cs),
(194,253,ls),
(194,349,o),
(252,400,o),
(330,400,cs),
(408,400,o),
(466,349,o),
(466,253,cs),
(466,243,ls),
(466,147,o),
(408,96,o),
(330,96,cs)
);
}
);
width = 638;
},
{
background = {
shapes = (
{
closed = 1;
nodes = (
(147,-200,l),
(147,84,l),
(158,84,l),
(185,35,o),
(240,-14,o),
(347,-14,cs),
(478,-14,o),
(580,82,o),
(580,237,cs),
(580,249,ls),
(580,403,o),
(478,500,o),
(347,500,cs),
(240,500,o),
(185,450,o),
(158,401,c),
(147,401,l),
(147,700,l),
(88,700,l),
(88,-200,l)
);
},
{
closed = 1;
nodes = (
(225,40,o),
(147,115,o),
(147,239,cs),
(147,247,ls),
(147,371,o),
(225,446,o),
(334,446,cs),
(444,446,o),
(519,371,o),
(519,247,cs),
(519,239,ls),
(519,115,o),
(444,40,o),
(334,40,cs)
);
}
);
};
layerId = "CEFBB1E5-951F-4065-926E-8B9137F837F5";
shapes = (
{
closed = 1;
nodes = (
(147,-200,l),
(147,84,l),
(158,84,l),
(185,35,o),
(240,-14,o),
(347,-14,cs),
(478,-14,o),
(580,82,o),
(580,237,cs),
(580,249,ls),
(580,403,o),
(478,500,o),
(347,500,cs),
(240,500,o),
(185,450,o),
(158,401,c),
(147,401,l),
(147,700,l),
(88,700,l),
(88,-200,l)
);
},
{
closed = 1;
nodes = (
(225,40,o),
(147,115,o),
(147,239,cs),
(147,247,ls),
(147,371,o),
(225,446,o),
(334,446,cs),
(444,446,o),
(519,371,o),
(519,247,cs),
(519,239,ls),
(519,115,o),
(444,40,o),
(334,40,cs)
);
}
);
width = 644;
}
);
metricLeft = l;
metricRight = o;
note = thorn;
unicode = 254;
},
